<svg xmlns="http://www.w3.org/2000/svg" viewBox="0 0 724.76 746.11"><defs><style>.cls-1{isolation:isolate;}.cls-2{fill:#a8182a;}.cls-11,.cls-2,.cls-3,.cls-8,.cls-9{stroke:#000;stroke-miterlimit:10;}.cls-2,.cls-3{stroke-width:3px;}.cls-3,.cls-6{fill:#e91c24;}.cls-4{fill:#b23242;}.cls-10,.cls-4{mix-blend-mode:multiply;}.cls-5{fill:#e02d3a;mix-blend-mode:screen;}.cls-7{fill:#1d1d1b;}.cls-8{fill:#2c1811;stroke-width:2px;}.cls-9{fill:#fffff5;}.cls-10{fill:#e2d8cf;}.cls-11{fill:#341209;}</style></defs><g class="cls-1"><g id="Layer_13" data-name="Layer 13"><path d="M634.83,724.2" transform="translate(-195.15 -164.7)"/></g><g id="Layer_6" data-name="Layer 6"><path class="cls-2" d="M393.57,321s14.61-4.54,16.6-18.61c1.83-13-11.83-18.66-17.41-24.38-5.23-5.34-13.43-17.58-13.22-20.37a27.91,27.91,0,0,0,2.77-12.8c-.38-6.29-5.37-14.11-16.6-18.8-10-4.19-18.21,4.3-18.21,4.3a39.79,39.79,0,0,0-5.49,12.1c-1.94,7.49.38,16.54,7.85,24.46,0,0,5.34,2.37,6.95,3.68,0,0,3.3,9.81,1.06,17.86-2.31,8.28-2.82,20.63,2.11,27.29,5.31,7.16,7.71,8.67,13.91,10.16C380.33,327.41,385.48,323.78,393.57,321Z" transform="translate(-195.15 -164.7)"/><path d="M358.79,278a52.85,52.85,0,0,1,.73-9.48,23.34,23.34,0,0,1,1.42-4.48c.14-.32.3-.63.44-.95s.24-.89.43-1.32a3.9,3.9,0,0,0,.64-2.27,1,1,0,0,0-1.2-.68c-.85.14-1.36,1-1.87,1.66a9.75,9.75,0,0,0-1.48,2.27,20.15,20.15,0,0,0-1.54,5.21,15.58,15.58,0,0,0,0,5.32,13.88,13.88,0,0,0,.54,2.56,10.77,10.77,0,0,0,1.28,2.33.33.33,0,0,0,.62-.17Z" transform="translate(-195.15 -164.7)"/><path d="M380.77,262.43a25.26,25.26,0,0,0-4.42-6.63,5.7,5.7,0,0,0-3.43-2,4.1,4.1,0,0,0-3.61,1.85.33.33,0,0,0,.32.55c.58-.08,1.16-.18,1.73-.3a5.47,5.47,0,0,1,1.66-.19,6.32,6.32,0,0,1,2.81,1.65,21.54,21.54,0,0,1,4.8,5.1.08.08,0,0,0,.14-.08Z" transform="translate(-195.15 -164.7)"/><path class="cls-2" d="M295.6,474.14s6-14.07-3.42-24.7c-8.7-9.8-21.88-3.08-29.85-2.53-7.46.52-22.09-1.17-24.09-3.13a27.85,27.85,0,0,0-8-10.4c-5-3.79-14.22-5.05-25.06.46-9.68,4.92-8.53,16.66-8.53,16.66a39.51,39.51,0,0,0,5.66,12c4.45,6.34,12.85,10.43,23.72,9.87,0,0,5.27-2.53,7.31-2.9,0,0,9.61,3.84,14.29,10.76,4.81,7.13,13.88,15.52,22.16,16.07,8.89.6,11.59-.25,16.75-4C291.93,488.4,292.5,482.12,295.6,474.14Z" transform="translate(-195.15 -164.7)"/><path d="M240.37,472.83c-1-.88-1.94-1.77-3-2.63a26.73,26.73,0,0,1-2.77-2.86,23.68,23.68,0,0,1-2.36-3.1c-.33-.54-.63-1.1-.92-1.65a19.27,19.27,0,0,0-1-1.87,10.27,10.27,0,0,1-.9-1.62c-.32-.72-.91-1.5-1.8-1s-.61,1.28-.5,2c.05.34.11.69.18,1s0,.68.14,1a13.67,13.67,0,0,0,2,3.84,22.5,22.5,0,0,0,2.63,3.28,16.64,16.64,0,0,0,3.74,2.77,10.21,10.21,0,0,0,4.27,1.36.34.34,0,0,0,.23-.57Z" transform="translate(-195.15 -164.7)"/><path d="M242.72,446a22.14,22.14,0,0,0-8.93-.81A4.67,4.67,0,0,0,230.6,447a4.41,4.41,0,0,0-.43,3.45.34.34,0,0,0,.61.08c.51-.81,1-1.64,1.47-2.46a3.52,3.52,0,0,1,2.57-1.34,24,24,0,0,1,7.88-.56.08.08,0,0,0,0-.15Z" transform="translate(-195.15 -164.7)"/><path class="cls-2" d="M301.59,652.78s-5.77-14.17-20-14.95c-13.08-.72-17.58,13.37-22.8,19.43-4.88,5.66-16.38,14.87-19.18,14.91a27.82,27.82,0,0,0-13-1.67c-6.23.91-13.59,6.55-17.31,18.14-3.31,10.33,5.84,17.78,5.84,17.78a39.8,39.8,0,0,0,12.52,4.43c7.63,1.3,16.45-1.79,23.7-9.91,0,0,1.91-5.52,3.08-7.23,0,0,9.49-4.13,17.71-2.58,8.44,1.59,20.79,1,27-4.44,6.68-5.9,8-8.41,8.94-14.72C309.14,665.42,305.08,660.6,301.59,652.78Z" transform="translate(-195.15 -164.7)"/><path d="M261.79,691.1a58.32,58.32,0,0,1-9.53.09,23.26,23.26,0,0,1-4.53-1c-.77-.24-1.52-.42-2.29-.65s-1.5-.71-2.34-.5a1,1,0,0,0-.69,1.21c.24.87,1.12,1.31,1.82,1.79a10.82,10.82,0,0,0,2.47,1.31,20.38,20.38,0,0,0,5.41,1.08,16.64,16.64,0,0,0,5.26-.47,11.08,11.08,0,0,0,4.66-2.26.33.33,0,0,0-.24-.56Z" transform="translate(-195.15 -164.7)"/><path d="M244.36,670.52a23.47,23.47,0,0,0-6.37,5.14,5.46,5.46,0,0,0-1.52,3.62,4.29,4.29,0,0,0,2.2,3.28.34.34,0,0,0,.49-.38,22,22,0,0,1-.78-3.18c-.08-1.11.78-2.13,1.34-3a21.51,21.51,0,0,1,4.74-5.33c.07-.06,0-.17-.1-.13Z" transform="translate(-195.15 -164.7)"/><path class="cls-2" d="M467.09,811.27s-13.85-6.49-24.8,2.56c-10.1,8.35-3.84,21.76-3.57,29.75.26,7.46-1.94,22-4,24a27.83,27.83,0,0,0-10.68,7.59c-3.95,4.89-5.54,14-.41,25.07,4.58,9.84,16.35,9.1,16.35,9.1a39.63,39.63,0,0,0,12.21-5.24c6.49-4.23,10.87-12.47,10.69-23.36,0,0-2.35-5.35-2.64-7.4,0,0,4.16-9.47,11.25-13.91,7.29-4.56,16-13.33,16.83-21.58.91-8.87.15-11.6-3.42-16.88C481.22,815.44,475,814.65,467.09,811.27Z" transform="translate(-195.15 -164.7)"/><path d="M463.85,866.43c-.93,1-1.87,1.91-2.78,2.9a26.78,26.78,0,0,1-2.9,2.63,24.83,24.83,0,0,1-3.22,2.26c-.54.3-1.09.58-1.64.85s-1.32.5-1.88.84a8.92,8.92,0,0,1-1.59.84c-.76.3-1.66.88-1.15,1.83.37.71,1.12.64,1.79.56.37,0,.74-.09,1.1-.15s.74,0,1.1-.11a13.62,13.62,0,0,0,3.84-1.75,23.86,23.86,0,0,0,3.4-2.51,17,17,0,0,0,2.94-3.64,10.16,10.16,0,0,0,1.54-4.22c.05-.31-.3-.59-.55-.33Z" transform="translate(-195.15 -164.7)"/><path d="M437.09,863.14a21.81,21.81,0,0,0-1.13,8.73,4.71,4.71,0,0,0,1.66,3.38,4.4,4.4,0,0,0,3.47.58c.31-.05.29-.46.08-.6-.81-.56-1.66-1-2.46-1.6a3.85,3.85,0,0,1-1.21-2.72,23.61,23.61,0,0,1-.26-7.73.08.08,0,0,0-.15,0Z" transform="translate(-195.15 -164.7)"/><path class="cls-2" d="M639.2,809.94s-14.93,3.33-18.06,17.19c-2.89,12.78,10.26,19.56,15.35,25.72,4.77,5.75,11.94,18.62,11.51,21.39a27.89,27.89,0,0,0-3.81,12.53c-.14,6.29,4.2,14.5,15,20.09,9.64,5,18.51-2.8,18.51-2.8a39.59,39.59,0,0,0,6.46-11.6c2.54-7.31,1-16.52-5.83-25,0,0-5.13-2.81-6.62-4.25,0,0-2.49-10,.41-17.88,3-8.07,4.5-20.33.12-27.37-4.7-7.57-7-9.27-13-11.27C652.93,804.6,647.49,807.8,639.2,809.94Z" transform="translate(-195.15 -164.7)"/><path d="M670.35,855.61a54.43,54.43,0,0,1-1.5,9.34,22.88,22.88,0,0,1-1.72,4.23,21.73,21.73,0,0,0-1,2.07c-.29.77-1.06,1.43-1,2.3a1,1,0,0,0,1,1c.94-.06,1.52-.8,2.13-1.46a10.06,10.06,0,0,0,1-1,12.52,12.52,0,0,0,.68-1.1,20.38,20.38,0,0,0,2-5.17,14.17,14.17,0,0,0-1-10.36.34.34,0,0,0-.62.16Z" transform="translate(-195.15 -164.7)"/><path d="M647.16,869.31a25.78,25.78,0,0,0,3.87,7,5.67,5.67,0,0,0,3.25,2.24,4.19,4.19,0,0,0,3.78-1.57.34.34,0,0,0-.23-.57c-.57,0-1.15.08-1.71.16a6.77,6.77,0,0,1-1.68.08c-1.07-.15-1.93-1.16-2.69-1.84a21.79,21.79,0,0,1-4.44-5.54c0-.07-.18,0-.15.06Z" transform="translate(-195.15 -164.7)"/><path class="cls-2" d="M793.15,685s-3,15,8.39,23.48c10.51,7.83,22-1.44,29.74-3.6,7.19-2,21.86-3.36,24.22-1.84a27.8,27.8,0,0,0,9.91,8.56c5.69,2.68,15,2,24.44-5.56,8.48-6.78,4.95-18,4.95-18a39.56,39.56,0,0,0-8-10.62c-5.65-5.29-14.71-7.59-25.24-4.82,0,0-4.64,3.55-6.56,4.32,0,0-10.19-1.79-16.18-7.62-6.17-6-16.76-12.36-25-11.22-8.82,1.23-11.3,2.61-15.58,7.34C793.84,670.32,794.56,676.58,793.15,685Z" transform="translate(-195.15 -164.7)"/><path d="M847.51,675.07c1.16.67,2.3,1.36,3.48,2a24,24,0,0,1,3.1,2.09,25.06,25.06,0,0,1,3.11,2.71c.42.45.82.92,1.22,1.39s.79,1.17,1.26,1.62a8.52,8.52,0,0,1,1.19,1.35c.47.66,1.26,1.38,2,.65.59-.54.34-1.26.1-1.9q-.19-.51-.42-1c-.14-.35-.2-.71-.37-1a13.52,13.52,0,0,0-2.62-3.31,23.92,23.92,0,0,0-3.24-2.7,16.91,16.91,0,0,0-4.24-2,10.22,10.22,0,0,0-4.46-.49.33.33,0,0,0-.16.62Z" transform="translate(-195.15 -164.7)"/><path d="M850.67,701.84a22.05,22.05,0,0,0,8.62-.93,4.84,4.84,0,0,0,2.94-2.29,4.38,4.38,0,0,0-.19-3.69c-.13-.29-.52-.16-.61.08s-.13.48-.22.71a4.17,4.17,0,0,0-.23.55c-.16.51-.32,1-.51,1.52-.38,1-1.44,1.4-2.34,1.8a23.46,23.46,0,0,1-7.46,2.09.08.08,0,0,0,0,.16Z" transform="translate(-195.15 -164.7)"/><path class="cls-2" d="M815.75,490.74s4.29,14.68,18.32,16.92c12.94,2,18.86-11.5,24.68-17,5.43-5.13,17.81-13.11,20.6-12.86a28,28,0,0,0,12.75,3c6.29-.27,14.2-5.13,19.08-16.27,4.36-9.94-4-18.28-4-18.28a39.64,39.64,0,0,0-12-5.7c-7.46-2.07-16.55.09-24.6,7.43,0,0-2.46,5.3-3.8,6.88,0,0-9.86,3.13-17.88.75-8.24-2.45-20.57-3.18-27.32,1.64-7.25,5.18-8.8,7.55-10.4,13.73C809.54,477.39,813.08,482.6,815.75,490.74Z" transform="translate(-195.15 -164.7)"/><path d="M859.3,456.71a52.85,52.85,0,0,1,9.48.9,22.78,22.78,0,0,1,4.4,1.48c.73.33,1.44.58,2.18.87s1.44.88,2.39.73a1,1,0,0,0,.68-1.21c-.12-.83-1-1.36-1.62-1.87a9.71,9.71,0,0,0-2.22-1.52,20.08,20.08,0,0,0-5.24-1.64,14.16,14.16,0,0,0-10.22,1.64.34.34,0,0,0,.17.62Z" transform="translate(-195.15 -164.7)"/><path d="M874.5,479a25.36,25.36,0,0,0,6.73-4.32,5.79,5.79,0,0,0,2-3.24,4.11,4.11,0,0,0-1.77-3.79c-.19-.16-.61-.08-.57.23s.12.57.15.85,0,.47.08.7a7.45,7.45,0,0,1,.23,1.76c0,1.08-1,2-1.59,2.79a21.83,21.83,0,0,1-5.31,4.88.08.08,0,0,0,.08.14Z" transform="translate(-195.15 -164.7)"/><path class="cls-2" d="M720.45,328.32s13.58,7.06,24.89-1.54c10.43-7.93,4.73-21.58,4.79-29.57,0-7.47,2.83-21.94,4.94-23.78a27.92,27.92,0,0,0,11-7.15c4.16-4.73,6.11-13.8,1.44-25-4.17-10-16-9.76-16-9.76a39.75,39.75,0,0,0-12.41,4.73c-6.65,4-11.37,12-11.63,22.91,0,0,2.12,5.44,2.33,7.5,0,0-4.55,9.29-11.81,13.44-7.47,4.26-16.52,12.67-17.7,20.87-1.27,8.82-.63,11.58,2.73,17C706.51,323.58,712.73,324.63,720.45,328.32Z" transform="translate(-195.15 -164.7)"/><path d="M726,273.33c1-.92,1.93-1.8,2.87-2.75a26.38,26.38,0,0,1,3-2.49,23.43,23.43,0,0,1,3.4-2.19c.57-.29,1.15-.55,1.74-.81a12,12,0,0,0,1.95-.83c.84-.55,3.52-.89,2.68-2.47-.35-.67-1.07-.66-1.73-.61l-1,.1c-.42.06-.79,0-1.19.08a12.67,12.67,0,0,0-4,1.63,23.22,23.22,0,0,0-3.49,2.4,16.41,16.41,0,0,0-3,3.46,10.16,10.16,0,0,0-1.71,4.16.33.33,0,0,0,.55.32Z" transform="translate(-195.15 -164.7)"/><path d="M752.55,277.73a21.91,21.91,0,0,0,1.5-8.61,4.85,4.85,0,0,0-1.39-3.4,4.36,4.36,0,0,0-3.51-.85.34.34,0,0,0-.17.62c.79.59,1.65,1.09,2.42,1.71a4,4,0,0,1,1.07,2.78,23.2,23.2,0,0,1-.07,7.71.08.08,0,0,0,.15,0Z" transform="translate(-195.15 -164.7)"/><path class="cls-2" d="M554,263.31s14.24,2.74,22.19-8.13c7.34-10-1.53-20.89-3.65-28.17-2-6.8-3.35-20.7-1.93-22.94a26.47,26.47,0,0,0,8-9.46c2.5-5.42,1.82-14.19-5.46-23.13-6.5-8-17.15-4.55-17.15-4.55a37.64,37.64,0,0,0-10,7.65c-5,5.4-7.08,14-4.37,24,0,0,3.4,4.37,4.15,6.19,0,0-1.62,9.67-7.1,15.4-5.63,5.89-11.58,16-10.44,23.75,1.24,8.36,2.57,10.69,7.08,14.71C540.06,262.77,546,262,554,263.31Z" transform="translate(-195.15 -164.7)"/><path d="M544.16,211.87c.37-.62.78-1.22,1.16-1.85s.62-1.21,1-1.79a30.88,30.88,0,0,1,2.42-3.48,21.58,21.58,0,0,1,3-3.09c.55-.47,1.18-.83,1.68-1.35a6.76,6.76,0,0,1,.7-.72c.28-.23.58-.45.88-.66a1.25,1.25,0,0,0,.54-1.33,1.19,1.19,0,0,0-.3-.52,1.17,1.17,0,0,0-1.15-.3c-.72.25-1.44.58-2.15.81a7.85,7.85,0,0,0-2.34,1.5,19.9,19.9,0,0,0-3.35,3.63,15.74,15.74,0,0,0-2.19,4.35,9.65,9.65,0,0,0-.51,4.64.34.34,0,0,0,.62.16Z" transform="translate(-195.15 -164.7)"/><path d="M569.49,208.66a21,21,0,0,0-.9-8.18,4.7,4.7,0,0,0-2.21-2.8,4.06,4.06,0,0,0-3.53.24c-.29.13-.16.51.08.6s.44.14.67.22.1,0,0,0l.15.11a2.26,2.26,0,0,0,.33.13q.74.21,1.44.48c1,.34,1.32,1.32,1.71,2.17a22.24,22.24,0,0,1,2.08,7,.08.08,0,1,0,.15,0Z" transform="translate(-195.15 -164.7)"/></g><g id="Layer_1" data-name="Layer 1"><path class="cls-3" d="M270.73,673.88c-4.62-13.56-10.36-24-12-39.4-2-18.8-8.87-38-13.38-56.8-4.93-20.65-4.34-39.58-1.55-60.43,1.87-13.93,3.75-27.93,7.92-41.35,5.81-18.68,15.89-35.7,26.1-52.38,27.39-44.72,36-68.36,78.49-99.12,52.58-38.09,117.78-74.51,182.69-75.72,41.45-.77,76.38,9.69,116.48,21.51,18.49,5.45,36.91,11.52,54.07,20.32,45.53,23.34,79.31,64.25,108.83,106,27.12,38.39,42.81,63.44,53.13,123.3,5.31,30.81-5.6,78.86-16.93,114.86l-21,66.73c-3.32,10.56-6.67,21.17-11.6,31.08-8.09,16.25-20.18,30.1-32.14,43.76C773.45,795,757.65,815.34,736,827.66c-32.58,18.57-72.89,29.13-107.11,43.07-26.41,10.75-56.55,8-84.94,6-29.57-2-50.17-8.84-76.7-21.06-15-6.91-30.67-7.63-46.37-12C406.77,839.8,394,832,382.11,823.38c0,0-31.09-19.9-53.4-46.46s-41.43-55.24-47.8-68c-5-9.9-5.59-20-8.64-30.24C271.77,677,271.26,675.44,270.73,673.88Z" transform="translate(-195.15 -164.7)"/><path class="cls-4" d="M538.94,247.32a51.53,51.53,0,0,0-12.83,4.14c-15.43,7.37-25.77,22-38,34s-29.55,22.05-45.75,16.58c-6.42-2.16-11.91-6.57-18.36-8.63-13-4.16-26.94,2-38.86,8.65l-.93.52c46.41-29.74,99.69-54.28,152.77-55.26Z" transform="translate(-195.15 -164.7)"/><path class="cls-4" d="M722.51,297.7c-11.69-6.08-24.31-8.8-36.1-3.67-8.35,3.63-14.63,10.68-21.94,16.11s-17.16,9.3-25.41,5.45c-12.34-5.78-12.12-23.14-18.43-35.22-5.28-10.08-15.47-16.55-25.62-21.68a125.46,125.46,0,0,0-25.1-9.64c28.12,3.37,54.49,11.23,83.59,19.8,18.49,5.46,36.91,11.52,54.07,20.32Q715.27,293.12,722.51,297.7Z" transform="translate(-195.15 -164.7)"/><path class="cls-4" d="M852.6,633.38,844.22,660c-.75-5.34-6.09-9.17-9.75-13.44-4-4.64-4.6-14,1.44-14.95-1.2,2.71,4.21,2.55,6,.17a23.65,23.65,0,0,0,2.6-23.1c2.23-2,6.21.09,6.61,2.83,0,.47-.07,1-.13,1.43a3,3,0,0,0,.13-1.43c1.51-23.27-26.59-44.87-17-66.3,3.66-8.16,11.91-13.13,17.67-20,9.49-11.25,11.69-27.29,9-41.77s-11.46-25.24-15.56-39.38a43.49,43.49,0,0,0-15.43-22.4c-7.7-5.81-17.15-8.91-24.93-14.62-22.68-16.65-25-49.57-40.87-72.77a106,106,0,0,0-15.78-17.57c26.23,22.31,48.17,50.21,68.16,78.51,27.12,38.39,42.81,63.43,53.13,123.3C874.84,549.33,863.93,597.38,852.6,633.38Z" transform="translate(-195.15 -164.7)"/><path class="cls-4" d="M841.76,667.79l-10.18,32.32c-3.32,10.56-6.67,21.17-11.6,31.07-8.09,16.25-20.18,30.11-32.14,43.77C771.45,793.66,755.65,814,734,826.33c-32.58,18.57-72.89,29.13-107.11,43.06-14.68,6-30.51,7.77-46.55,7.85q3.76-.18,7.53-.58c34-3.66,64.66-21.53,94.11-39l33.86-20.07c14.32-8.49,28.68-17,41.79-27.27C777,775.17,793.4,756.41,807.16,736c10.9-16.14,20.38-33.78,23.42-53,.16-1-.93-1.82-1.51-2C831.6,675.62,838.12,672.3,841.76,667.79Z" transform="translate(-195.15 -164.7)"/><path class="cls-4" d="M509.5,870.58c-14.73-3.58-28.42-8.94-44.22-16.22-15-6.9-30.66-7.63-46.36-12-14.15-3.92-26.92-11.72-38.81-20.33,0,0-31.09-19.9-53.4-46.46s-41.43-55.24-47.8-68c-3.26-6.52-4.65-13.13-6.1-19.81a90.65,90.65,0,0,0,18.45,24.62c5.28,5,11.2,9.22,16.12,14.54,12.72,13.75,17.65,33.21,29.83,47.44,12.53,14.63,31.38,22.2,50,27.14s42.81,1.59,55.88,15.75l13,14c12.73,13.79,26,27.95,43.13,35.56A78.37,78.37,0,0,0,509.5,870.58Z" transform="translate(-195.15 -164.7)"/><path class="cls-4" d="M274.75,580.81c-2.77,4.13-6.26,7.74-8.84,12-4.85,8-6.08,17.67-6.5,27a153.55,153.55,0,0,0,2,33.06,84.42,84.42,0,0,1-4.64-19.74c-2-18.81-8.87-38-13.38-56.8-4.93-20.65-4.34-39.58-1.55-60.43,1.87-13.93,3.75-27.94,7.92-41.36l.12-.38a118.88,118.88,0,0,0,0,15.45c.57,13,1.68,27.3,10.82,36.57,3.19,3.25,7.17,5.62,10.48,8.74C283.28,546.37,284,567,274.75,580.81Z" transform="translate(-195.15 -164.7)"/><path class="cls-4" d="M360.64,318.54c-7.38,6.24-13.76,13.45-18.18,22-5.94,11.55-7.87,24.74-12.92,36.7a76.52,76.52,0,0,1-52.84,44.11l-.35,0c27-44.19,35.77-67.72,78-98.3C356.41,321.55,358.51,320.05,360.64,318.54Z" transform="translate(-195.15 -164.7)"/><path class="cls-3" d="M463.74,307.66s-10.09,2.66-17.53-5.05-2.48-17.82-2.12-25-1.33-23.1-3.19-25.76a39.24,39.24,0,0,1-10.35-11.68c-4.25-7.44-6.64-21-1.86-37.18s18.59-10.89,18.59-10.89a52.68,52.68,0,0,1,13.27,13c6.38,8.76,9.56,22.31,7.71,36.91,0,0-2.93,6.11-3.46,8.5,0,0,2.53,11.54,8,17.53s10.68,15.41,9.83,22.57-1.84,9.12-5.2,12.53S469.58,306.33,463.74,307.66Z" transform="translate(-195.15 -164.7)"/><path class="cls-4" d="M469.76,306.55c-1.82.33-3.82.61-6,1.11,0,0-10.09,2.65-17.53-5.05s-2.48-17.82-2.12-25-1.33-23.1-3.19-25.76a39.46,39.46,0,0,1-10.36-11.69c-4.24-7.43-6.63-21-1.85-37.17,4-13.53,14.28-12.06,17.56-11.2-7.28.7-9.41,2.34-11.27,12.56s.14,20.7,3.12,30.61a30.47,30.47,0,0,0,3.66,8.53c1.75,2.57,10,4.42,13,5-1.79.79-5.81,4.27-5.78,6.22.1,7.57,0,12,1.78,20.89,1.87,9.37.22,21.83,8,27.35A19.37,19.37,0,0,0,469.76,306.55Z" transform="translate(-195.15 -164.7)"/><path class="cls-5" d="M481.26,290.66c-.85,7.16-1.84,9.12-5.19,12.53a10,10,0,0,1-3.69,2.35c2.88-5,5.17-11.59,4.48-17.18-.84-6.92-5.81-12.5-10-18.09S459,257.65,461.08,251c1.05-3.31,4.13-7.56,6-10.65-.06.58-.12,1.15-.2,1.73,0,0-2.92,6.1-3.45,8.49,0,0,2.52,11.54,8,17.53S482.11,283.5,481.26,290.66Z" transform="translate(-195.15 -164.7)"/><path class="cls-5" d="M467.32,238.3h0c-1.52,2.42-3.39,5.54-4.89,7.92,2.38-4.09,2.88-9.06,2.29-13.75a62.76,62.76,0,0,0-3.85-13.63c-3.56-9.67-7.74-19.89-16.27-25.68a17.08,17.08,0,0,1,4.9,2h0a57.45,57.45,0,0,1,9.71,10.37C465,213.42,468.15,225.28,467.32,238.3Z" transform="translate(-195.15 -164.7)"/><path class="cls-3" d="M746,416.46s-3.48-5.74-4.26-10.47c-.84-5,2.74-2.88,4.44-3.29s5.5-3.43,5.55-5.17a35.75,35.75,0,0,1-.67-10c.55-5.14,4.29-11,14.11-12.09,13-1.38,18.28,16.7,18.28,16.7a47.55,47.55,0,0,1-1,17.18c-2,7.24-8,10.59-15.75,9.1a43.68,43.68,0,0,0-4.83-2.61,7.68,7.68,0,0,0-2.84,6.19c.13,3.69-.83,7.05-3.12,6.2s-2.94-1.47-4.8-3.61S748.07,419.89,746,416.46Z" transform="translate(-195.15 -164.7)"/><path class="cls-4" d="M748.08,420c-.62-1.07-1.28-2.25-2-3.53,0,0-3.48-5.74-4.27-10.47-.83-5,2.75-2.88,4.45-3.29s5.5-3.43,5.55-5.17a35.75,35.75,0,0,1-.67-10c.55-5.14,4.29-11,14.11-12.09,10.58-1.12,16.3,11.34,17.84,15.42-5.27-8.16-7.75-10-15-8.54-6.07,1.22-9.57,5.71-11.95,10.29a10.71,10.71,0,0,0-1.36,4.38c-.11,1.74,2.68,8.38,3.74,10.82-1-1.33-3.78-4.09-4.38-3.87-2.19.78-3.45,1.1-5.11,3s-4.78,1.55-3.5,6.46A34.13,34.13,0,0,0,748.08,420Z" transform="translate(-195.15 -164.7)"/><path class="cls-5" d="M755.52,427.35c-2.12-.76-2.92-1.43-4.77-3.56a19.71,19.71,0,0,1-1.66-2.24c2,1.79,4.35,3.32,5.57,3,1.6-.43,1.44-3.78,1.56-6.74.13-3.12.91-6.16,4-4.89,1.65.68,4.63,3,6.75,4.54l-.81-.13a42.5,42.5,0,0,0-4.79-2.55,7.91,7.91,0,0,0-2.79,6.28C758.74,424.76,757.8,428.16,755.52,427.35Z" transform="translate(-195.15 -164.7)"/><path class="cls-5" d="M768,417.57h0c-1.73-1.23-3.83-2.68-5.4-3.81,2.65,1.8,5,2.06,6.82,1.37s3.42-2.46,4.94-4.32c3.68-4.49,7.95-10.47,6.65-21.47a29.37,29.37,0,0,1,1.76,6.12h0a45,45,0,0,1-1.24,12.47C779.72,414.58,774.63,418.06,768,417.57Z" transform="translate(-195.15 -164.7)"/><path class="cls-3" d="M286.54,555s3,9.17.87,15.38c-2.4,6.94-8.66.75-12.72-.4-4.26-1.2-14.38-1.2-16.07.71a35.23,35.23,0,0,1-8.18,12.47c-6.29,5.82-19.66,9.08-37.62-.2-20.22-10.46-9.33-31.35-9.33-31.35A56.22,56.22,0,0,1,219.75,538c8.55-4.6,19.61-4.17,30.16,1.23a66.76,66.76,0,0,0,5.87,5.2s6.94-.08,9.83-3.77c2.59-3.32,6.81-5.67,10.34-3.62a15,15,0,0,1,6.4,6.24C284.36,546.44,285,550,286.54,555Z" transform="translate(-195.15 -164.7)"/><path class="cls-4" d="M285,549.87c.45,1.53.9,3.23,1.5,5.14,0,0,3,9.17.87,15.38-2.4,6.94-8.66.75-12.72-.4-4.26-1.2-14.38-1.2-16.07.71a35.23,35.23,0,0,1-8.18,12.47c-6.29,5.82-19.66,9.08-37.62-.2-16.71-8.65-11.82-25.26-9.95-30-.93,11.25.63,15,12.66,19.64,11,4.24,21.5,2.49,30.23-.44a16.16,16.16,0,0,0,6.64-3.63c1.81-1.8,2.55-11.06,2.75-14.28.68,2.08,3.4,7.08,4.71,7.35,4.93,1,7.7,1.71,12.71,1.05s11.48,2.48,12.73-4A23.85,23.85,0,0,0,285,549.87Z" transform="translate(-195.15 -164.7)"/><path class="cls-5" d="M276.12,538.06a14.85,14.85,0,0,1,6.44,6.25,18.23,18.23,0,0,1,1.61,3.29c-2.65-3.09-6-6-8.56-6.5-3.3-.6-5.58,2.54-8.14,5.21-2.75,2.87-6.68,5.25-11.14,1.89-2.28-1.72-5.34-5.7-7.55-8.27.4.19.8.38,1.2.59a64.39,64.39,0,0,0,5.89,5.21s7-.15,9.88-3.92C268.35,538.43,272.59,536,276.12,538.06Z" transform="translate(-195.15 -164.7)"/><path class="cls-5" d="M247.34,539.27h0c1.76,2.06,4,4.61,5.71,6.61a16.24,16.24,0,0,0-9.89-5.37c-3.57-.51-7.18.1-10.93.79-9,1.62-19.83,4.12-28.13,14.47a26.38,26.38,0,0,1,3.37-6.52h0a56.12,56.12,0,0,1,12.44-9.6C227.75,535.33,237.67,535.21,247.34,539.27Z" transform="translate(-195.15 -164.7)"/><path class="cls-3" d="M827.5,554.78s.65-12.22,4.17-17.78c3.94-6.22,9.07,1.33,13,3.4,4.13,2.19,12.75,7.13,14.89,5.66a34.54,34.54,0,0,1,11.08-10.25c7.71-4.2,22.17-4.21,38.67,9.13,18.59,15,2.94,32.87,2.94,32.87a57.29,57.29,0,0,1-19.63,9.47c-9.77,2.47-21.06-.57-30.78-8.36a69.36,69.36,0,0,0-4.93-6.48s-7.16-1.57-10.92,1.36c-3.37,2.62-8.22,3.92-11.41,1.08a15.8,15.8,0,0,1-5.27-7.63C827.92,563.67,828,560.08,827.5,554.78Z" transform="translate(-195.15 -164.7)"/><path class="cls-4" d="M828,560.17c-.14-1.61-.25-3.38-.45-5.39,0,0,.65-12.22,4.17-17.78,3.94-6.22,9.07,1.33,13,3.4,4.13,2.19,12.76,7.13,14.89,5.66a34.54,34.54,0,0,1,11.08-10.25c7.71-4.2,22.17-4.21,38.67,9.13,15.37,12.43,6.81,27.51,3.88,31.65,3.35-10.78,2.55-14.82-8.85-22.21-10.41-6.75-21.61-7.55-31.22-6.75a17.3,17.3,0,0,0-7.6,2c-2.24,1.33-5,10.21-5.86,13.32-.26-2.2-2-7.73-3.29-8.31-4.86-2.14-7.56-3.5-12.86-4-5.14-.53-11.29-5.16-14,.92A22.71,22.71,0,0,0,828,560.17Z" transform="translate(-195.15 -164.7)"/><path class="cls-5" d="M834.62,573.83a15.62,15.62,0,0,1-5.3-7.64,18.05,18.05,0,0,1-1-3.6c2.07,3.65,4.9,7.33,7.43,8.39,3.27,1.37,6.28-1.16,9.48-3.17,3.45-2.15,8-3.54,11.87.8,2,2.22,4.29,6.84,6,9.88-.37-.28-.74-.56-1.11-.86a69,69,0,0,0-5-6.49s-7.21-1.52-11,1.48C842.7,575.31,837.82,576.67,834.62,573.83Z" transform="translate(-195.15 -164.7)"/><path class="cls-5" d="M864.5,579.48h0c-1.37-2.43-3.14-5.46-4.47-7.82a17.77,17.77,0,0,0,9,7.6c3.58,1.35,7.41,1.6,11.42,1.83,9.57.53,21.29.67,32-7.48a25.41,25.41,0,0,1-4.86,5.57h0a57.91,57.91,0,0,1-14.85,6.43C883.82,588,873.59,585.74,864.5,579.48Z" transform="translate(-195.15 -164.7)"/><path class="cls-3" d="M383.62,757.76s-6.12-10.6-11.78-14c-6.32-3.76-7.48,5.29-10,8.93-2.7,3.82-8.15,12.13-10.72,11.79a34.35,34.35,0,0,0-14.51-4.12c-8.78-.26-21.68,6.28-30.35,25.66-9.76,21.82,12.27,30.64,12.27,30.64a57.48,57.48,0,0,0,21.79-.46c9.84-2.23,18.52-10,23.66-21.4a68.15,68.15,0,0,1,1.46-8s5.67-4.65,10.35-3.74c4.19.82,9.1-.22,10.66-4.2a15.75,15.75,0,0,0,1.24-9.19C387.27,765.88,385.53,762.73,383.62,757.76Z" transform="translate(-195.15 -164.7)"/><path class="cls-4" d="M385.65,762.77c-.61-1.5-1.31-3.12-2-5,0,0-6.12-10.6-11.78-14-6.32-3.76-7.48,5.29-10,8.93-2.7,3.82-8.15,12.13-10.72,11.79a34.35,34.35,0,0,0-14.51-4.12c-8.78-.26-21.68,6.28-30.35,25.66-8.07,18,6.4,27.61,10.88,30-7.87-8.1-9-12.06-2.17-23.81,6.22-10.74,15.84-16.52,24.77-20.16a17.33,17.33,0,0,1,7.67-1.69c2.61.17,9.06,6.86,11.27,9.22-.77-2.08-1.73-7.8-.84-8.9,3.37-4.11,5.15-6.54,9.63-9.43s7.73-9.71,12.87-5.5A22.89,22.89,0,0,1,385.65,762.77Z" transform="translate(-195.15 -164.7)"/><path class="cls-5" d="M385.9,778a15.65,15.65,0,0,0,1.26-9.21,18.71,18.71,0,0,0-.77-3.64c-.2,4.19-1.05,8.75-2.82,10.84-2.3,2.7-6.13,1.81-9.9,1.48-4-.36-8.73.45-10.22,6.09-.75,2.87-.72,8-.89,11.53.21-.42.41-.84.61-1.27a69.3,69.3,0,0,1,1.47-8s5.75-4.62,10.48-3.66C379.37,783,384.33,782,385.9,778Z" transform="translate(-195.15 -164.7)"/><path class="cls-5" d="M361.82,796.55h0c.12-2.79.33-6.29.44-9a17.67,17.67,0,0,1-4.61,10.86c-2.57,2.83-5.88,4.79-9.35,6.81-8.29,4.81-18.67,10.25-31.94,7.84a25.41,25.41,0,0,0,6.85,2.77h0a58,58,0,0,0,16.15-1C348.45,812.88,356.55,806.25,361.82,796.55Z" transform="translate(-195.15 -164.7)"/><path class="cls-3" d="M319.49,394.58s-5.58,8.85-16.47,8-14.34-12-19.08-17.72S266.76,368,263.52,367.21a40.37,40.37,0,0,1-15.84-2c-8.35-2.84-19.61-11.62-27.45-27.27s6.09-20.9,6.09-20.9a53.39,53.39,0,0,1,18.92,1c10.85,2.42,22.7,10.66,31.58,23.12,0,0,2.12,6.65,3.41,8.85,0,0,9.95,7.14,18.17,8.07,8,.89,18.69,4.61,23.09,10.68s5,8.24,4.94,13.11S322.87,389.62,319.49,394.58Z" transform="translate(-195.15 -164.7)"/><path class="cls-4" d="M323.16,389.68c-1.12,1.48-2.4,3-3.67,4.9,0,0-5.58,8.85-16.47,8s-14.34-12-19.08-17.72S266.76,368,263.52,367.21a40.37,40.37,0,0,1-15.84-2c-8.35-2.84-19.61-11.62-27.45-27.27-6.54-13.07,2.09-18.88,5.11-20.45-4.88,5.45-5.3,8.15.49,17.25s14.62,15.78,23.77,21.38a32.48,32.48,0,0,0,8.69,4.07c3.09.8,10.46-3.34,13.13-4.93-.76,1.82-1.28,7.2.1,8.67,5.39,5.75,8.42,9.21,16,14.83,7.95,5.92,15.47,16.59,25.1,15.57A18.93,18.93,0,0,0,323.16,389.68Z" transform="translate(-195.15 -164.7)"/><path class="cls-5" d="M320.5,369.72c4.4,6.07,5,8.24,4.95,13.11a10,10,0,0,1-1.06,4.3c-1.36-5.76-4.32-12.38-8.75-16.2-5.48-4.74-13.06-5.67-20.06-7.14s-14.68-4.36-17.8-10.88c-1.55-3.25-2.25-8.59-3-12.25.36.48.71,1,1.06,1.46,0,0,2.13,6.65,3.41,8.85,0,0,10,7.14,18.18,8.06C305.44,359.93,316.11,363.65,320.5,369.72Z" transform="translate(-195.15 -164.7)"/><path class="cls-5" d="M273.48,339h0c.58,2.89,1.38,6.54,1.95,9.37-1.11-4.74-4.23-8.89-8-12.09a67,67,0,0,0-12.39-7.85c-9.42-5-19.67-10-30-8.73a16.69,16.69,0,0,1,5-1.81h0a58.6,58.6,0,0,1,14.44,1.4C254.32,321.44,265,328.41,273.48,339Z" transform="translate(-195.15 -164.7)"/><path class="cls-3" d="M647.22,306.29a17.87,17.87,0,0,0,17.52-5.51c7.44-8.41,2.49-19.47,2.13-27.27s1.33-25.23,3.19-28.13a41.73,41.73,0,0,0,10.35-12.76c4.25-8.12,6.64-22.91,1.86-40.6s-18.59-11.89-18.59-11.89a55,55,0,0,0-13.28,14.21c-6.37,9.57-9.56,24.36-7.7,40.31,0,0,2.92,6.67,3.45,9.28,0,0-2.52,12.6-8,19.14-5.31,6.38-10.68,16.84-9.83,24.65s1.84,10,5.2,13.68S641.37,304.84,647.22,306.29Z" transform="translate(-195.15 -164.7)"/><path class="cls-4" d="M641.2,305.08c1.82.36,3.82.66,6,1.21a17.9,17.9,0,0,0,17.52-5.51c7.44-8.41,2.49-19.47,2.13-27.27s1.33-25.23,3.19-28.13a41.73,41.73,0,0,0,10.35-12.76c4.25-8.12,6.64-22.91,1.86-40.6-4-14.77-14.28-13.16-17.56-12.23,7.27.77,9.41,2.56,11.27,13.72s-.14,22.6-3.12,33.43a35.07,35.07,0,0,1-3.66,9.32c-1.75,2.8-10,4.82-13,5.48,1.79.87,5.8,4.67,5.78,6.8-.1,8.27,0,13.1-1.78,22.81-1.87,10.23-.22,23.84-8,29.87A18.27,18.27,0,0,1,641.2,305.08Z" transform="translate(-195.15 -164.7)"/><path class="cls-5" d="M629.69,287.73c.86,7.82,1.85,10,5.2,13.67a10,10,0,0,0,3.69,2.58c-2.88-5.43-5.17-12.66-4.49-18.77.85-7.56,5.82-13.65,10-19.75s7.89-13.79,5.79-21.06c-1-3.61-4.14-8.26-6-11.62.06.62.12,1.25.2,1.87,0,0,2.92,6.67,3.45,9.28,0,0-2.52,12.6-8,19.14C634.21,269.46,628.84,279.91,629.69,287.73Z" transform="translate(-195.15 -164.7)"/><path class="cls-5" d="M643.64,230.54h0c1.52,2.65,3.39,6.05,4.89,8.65-2.38-4.47-2.88-9.89-2.29-15a73.15,73.15,0,0,1,3.85-14.88c3.56-10.57,7.74-21.73,16.27-28.05a16.07,16.07,0,0,0-4.9,2.13h0a60.35,60.35,0,0,0-9.71,11.33C646,203.37,642.81,216.32,643.64,230.54Z" transform="translate(-195.15 -164.7)"/><path class="cls-3" d="M794.33,395.84s7.51,10.55,20,10.43,15.25-12.49,20.09-18.62,18-17.76,21.66-18.39a46,46,0,0,0,18.15-.94c9.36-2.54,21.42-11.62,28.7-28.81s-9.48-24.32-9.48-24.32a63.29,63.29,0,0,0-21.84-.4c-12.31,1.87-25.11,10.28-34,23.75,0,0-1.7,7.41-2.93,9.8,0,0-10.73,7.33-20.16,7.7-9.2.36-21.15,3.72-25.55,10.28s-4.89,9-4.23,14.53S789.84,389.91,794.33,395.84Z" transform="translate(-195.15 -164.7)"/><path class="cls-4" d="M789.51,390c1.47,1.78,3.13,3.66,4.82,5.89,0,0,7.51,10.55,20,10.43s15.25-12.49,20.09-18.62,18-17.76,21.66-18.39a46,46,0,0,0,18.15-.94c9.36-2.54,21.42-11.62,28.7-28.81,6.08-14.36-4.6-21.7-8.29-23.73,6.29,6.62,7.1,9.73,1.42,19.62S881,352.18,871,357.8a31.31,31.31,0,0,1-9.61,3.93c-3.5.65-12.52-4.67-15.81-6.7,1.1,2.13,2.32,8.3.89,9.87-5.59,6.1-8.7,9.8-16.81,15.58-8.55,6.1-16,17.64-27.34,15.67A26.76,26.76,0,0,1,789.51,390Z" transform="translate(-195.15 -164.7)"/><path class="cls-5" d="M790.28,367.42c-4.39,6.55-4.89,9-4.22,14.54a12.86,12.86,0,0,0,1.73,5c.92-6.45,3.58-13.75,8.27-17.74,5.82-4.95,14.5-5.38,22.46-6.48s16.53-3.76,19.39-10.94c1.43-3.57,1.63-9.6,2.08-13.7-.36.51-.71,1-1.06,1.57,0,0-1.7,7.41-2.94,9.8,0,0-10.72,7.33-20.15,7.7C806.64,357.51,794.68,360.87,790.28,367.42Z" transform="translate(-195.15 -164.7)"/><path class="cls-5" d="M841.29,336.25h0c-.33,3.24-.84,7.33-1.17,10.52.74-5.32,3.87-9.79,7.83-13.13s8.73-5.66,13.47-7.93c10.35-4.94,21.67-9.82,33.83-7.47a23.19,23.19,0,0,0-6-2.47h0a66.54,66.54,0,0,0-16.59.4C861.51,317.86,850,324.92,841.29,336.25Z" transform="translate(-195.15 -164.7)"/><path class="cls-3" d="M788.73,704.44s-6.63,8.71-5.5,17.62c1.18,9.25,10.44,7.34,15.56,9.08s16.28,8.62,17.33,11.48a39.85,39.85,0,0,0,3.59,15.48c3.73,7.72,14,16.27,31.88,17.94,19.23,1.8,21.94-17.89,21.94-17.89a59.6,59.6,0,0,0-5.44-21.08c-4.88-10.38-15.61-18.2-29.25-20.46,0,0-6.6,1.34-8.82,1.22,0,0-7.72-5.75-9.44-12.75-1.63-6.62-5.86-13.89-11.3-14.56s-7.1-.13-11,2.28S792.44,699.34,788.73,704.44Z" transform="translate(-195.15 -164.7)"/><path class="cls-4" d="M792.38,699.14c-1.1,1.6-2.26,3.38-3.65,5.3,0,0-6.63,8.71-5.5,17.62,1.18,9.25,10.44,7.34,15.56,9.08s16.28,8.62,17.33,11.48a39.85,39.85,0,0,0,3.59,15.48c3.73,7.72,14,16.27,31.88,17.94,16,1.5,20.6-12,21.66-16.49-5.06,8.69-8,10.58-19.26,8.24-10.67-2.22-19-8.89-25.76-16.08a23,23,0,0,1-5-7.12c-1.11-2.78,1.89-12.19,3-15.62-1.6,1.65-6.51,4.79-8,4.14-5.73-2.45-9.08-3.69-14.58-8.09s-14.74-6.16-14.42-14.91A26.48,26.48,0,0,1,792.38,699.14Z" transform="translate(-195.15 -164.7)"/><path class="cls-5" d="M808.62,691.77c-5.3-.67-7.09-.14-11,2.26a14.86,14.86,0,0,0-3.34,2.9c4.66-1.61,10.22-2.35,13.71-.51,4.45,2.35,5.94,8.48,7.89,14s5.43,11.44,11.79,11.18c3.22-.13,8.36-2.16,12-3.29l-1.55-.29s-6.6,1.33-8.81,1.2c0,0-7.7-5.79-9.41-12.81C818.28,699.76,814.06,692.46,808.62,691.77Z" transform="translate(-195.15 -164.7)"/><path class="cls-5" d="M841.5,718.7h0c-2.86.92-6.47,2-9.23,2.88a16.64,16.64,0,0,1,12.84,1.68c3.8,2.11,6.94,5.35,10.09,8.66,7.11,7.49,14.79,16.31,15.69,29.08a25,25,0,0,0,.89-6.83h0A61.3,61.3,0,0,0,867,738.51C862.6,729.06,853.36,721.7,841.5,718.7Z" transform="translate(-195.15 -164.7)"/><path class="cls-3" d="M503.67,810.85s-8.11-2.15-14-.35c-6.39,2-2.15,6.72-1.85,9.92.32,3.44-1.5,11.76-3.54,13.08a38.5,38.5,0,0,0-12.42,6.07c-6.11,4.76-11.6,15.63-7.8,32.84,4.85,21.94,28.3,15.84,28.3,15.84A59.13,59.13,0,0,0,510.7,874c6.86-8.2,8.09-19.67,3.56-30.61a58.32,58.32,0,0,1-4.74-5.89s1.19-6.29,5.59-8.74c4-2.23,7.2-6,5.43-9.12-1.66-3-2.7-3.83-5.74-5.5S508.36,812,503.67,810.85Z" transform="translate(-195.15 -164.7)"/><path class="cls-4" d="M508.48,812c-1.46-.34-3.05-.68-4.81-1.12,0,0-8.11-2.15-14-.35-6.39,2-2.15,6.72-1.85,9.92.32,3.44-1.5,11.76-3.54,13.08a38.5,38.5,0,0,0-12.42,6.07c-6.11,4.76-11.6,15.63-7.8,32.84,4,17.92,21.35,17,26.67,16.15-11.77-1.77-15.09-4.21-16.85-16.9-1.5-10.84,2.22-20,6.59-27.35a17.09,17.09,0,0,1,4.56-5.44c2-1.43,11-1.5,14.18-1.48-1.95-.73-6.32-3.37-6.34-4.51-.07-4.21-.27-6.55,1.22-10.67,1.43-4-.34-9.2,5.9-10.29A27.26,27.26,0,0,1,508.48,812Z" transform="translate(-195.15 -164.7)"/><path class="cls-5" d="M519.45,819.44c-1.63-3-2.67-3.83-5.7-5.5a17,17,0,0,0-3.13-1.3c2.77,2.18,5.37,5,5.48,7.23.16,2.89-3.52,4.83-6.71,7-3.4,2.32-6.47,5.67-3.76,9.84,1.43,2.18,5.19,5.33,7.66,7.65-.14-.4-.29-.8-.46-1.19a55.54,55.54,0,0,1-4.68-5.89s1.27-6.29,5.72-8.74C517.92,826.33,521.18,822.59,519.45,819.44Z" transform="translate(-195.15 -164.7)"/><path class="cls-5" d="M513.8,845.81h0c-2-1.87-4.41-4.2-6.27-5.94a13.57,13.57,0,0,1,4.22,9.85c0,3.56-1.3,7-2.69,10.72-3.38,8.87-8.16,19.76-21,26.14a27.92,27.92,0,0,0,7.65-2h0a59.55,59.55,0,0,0,13.09-11.13C515.17,866,516.9,855.82,513.8,845.81Z" transform="translate(-195.15 -164.7)"/><path class="cls-6" d="M528.84,344.87,537.49,326c3.26-7.11,6.56-14.33,7.81-22.06,1.67-10.33-.43-20.88-.3-31.34.26-21.93,10.19-42.43,19.91-62.09a79.31,79.31,0,0,0,.13,70.26c3.25,6.42,7.4,12.42,9.72,19.23,3,8.87,2.75,18.52,4.86,27.65s7.84,18.58,17,20.39" transform="translate(-195.15 -164.7)"/><path d="M528.84,344.87q3.48-8.13,7-16.22c3.5-8.06,7.27-16.08,8.62-24.79s-.07-17.44-.52-26.28a78.71,78.71,0,0,1,1-17.87c2.94-17.64,10.86-34,18.65-49.84l2.67,1.33a78.93,78.93,0,0,0-5.63,54,80.45,80.45,0,0,0,6.61,17.24c2.88,5.49,6.29,10.9,8.35,17,4.13,12.05,1.89,25.2,7.57,36.7,2.72,5.52,7.29,10.54,13.51,11.94-6.36-1.08-11.29-6-14.23-11.57-6.16-11.13-4.45-24.77-8.67-36.43-2.09-5.78-5.54-11-8.61-16.53a80,80,0,0,1-1.56-73.67l2.67,1.33c-10.29,20.77-21,42.62-20,66.3.25,8.76,1.43,17.83-.09,26.63S540.36,321,536.56,329q-3.81,8-7.72,15.9Z" transform="translate(-195.15 -164.7)"/><path class="cls-4" d="M554.31,299c-.62-6.86-2.23-13.6-2.62-20.48-.84-15,4.21-29.89,3.33-44.9-6.82,8.62-8.95,20.05-9.4,31s.55,22.05-1,32.94A116.62,116.62,0,0,1,540.21,316c-2.48,8-8.54,18-9.36,26.18-.41,4.13-1.93,2.17,3.84,2.4,2.94.12,5.69,3.57,7.84,1.64C553,336.84,555.46,311.78,554.31,299Z" transform="translate(-195.15 -164.7)"/><path class="cls-5" d="M564.93,288.94c-1.53-2.91-3.47-5.57-5-8.46A35.91,35.91,0,0,1,556,258.81a157.89,157.89,0,0,0,12,28.28c2,3.69,4.18,7.33,5.46,11.34,2.79,8.76,2.48,19.37,3.07,28.47C569,316,571.08,300.62,564.93,288.94Z" transform="translate(-195.15 -164.7)"/><path class="cls-6" d="M354.18,426.27l-3.82-5.59c-1.59-2.33-3.3-4.82-5.94-6.38-3.78-2.24-9.14-2.4-14.19-4-12.06-3.75-22.51-15.71-35.17-30.48,13.76,16.25,30.86,22.14,45.57,18.91,4-.87,7.95-2.36,11.5-2.5,4.39-.18,7.75,1.75,11.48,2.1,3.52.34,8.08-1.24,11.53-6" transform="translate(-195.15 -164.7)"/><path d="M354.18,426.27c-2.89-3.53-5.48-8.35-9.2-11-4.11-2.6-9-2.47-13.74-3.71-9.72-2.44-17.46-9.36-24.3-16.32-4.57-4.65-8.77-9.58-13-14.46l2.25-1.92a78.42,78.42,0,0,0,7.67,7.69c10.86,9.43,26,14.51,40.11,10.28,3.62-.9,7.53-1.95,11.32-1.17s7,2.61,10.7,2.18a14.1,14.1,0,0,0,9.15-5.47,13.9,13.9,0,0,1-9,6.3c-3.77.71-7.45-1-11.06-1.48s-7,.59-10.54,1.63c-18.88,6.36-38.54-3.39-50.58-18.05l2.26-1.92c4.18,4.91,8.37,9.8,12.73,14.49,6.53,6.86,13.61,13.64,22.8,16.42,4.51,1.4,9.88,1.64,13.88,4.65,3.84,3.15,5.87,7.8,8.58,11.83Z" transform="translate(-195.15 -164.7)"/><path class="cls-4" d="M345.15,408.48c-3.08-.63-6.58-.66-9.92-1.49-7.93-2-14.89-8.51-25.1-11.36,3.64,7.21,10.06,10.92,16.13,13.07,5.52,2,11.07,2.9,15.35,5.19a28.73,28.73,0,0,1,5.95,4.46c2.19,2,3.89,5.84,6.33,6.81,1.18.46.16,1,1.79-1.63.85-1.37,2.66-2.4,2.67-3.58C358.41,413.9,350.51,409.59,345.15,408.48Z" transform="translate(-195.15 -164.7)"/><path class="cls-5" d="M344.28,400.37c-1.79.44-3.63,1.21-5.48,1.69a16.36,16.36,0,0,1-12.43-1.49,82.38,82.38,0,0,0,18.08-2.48,30.11,30.11,0,0,1,6.59-1.28c4.33-.07,8.06,2,11.31,3.21C356.27,402.5,351.15,398.66,344.28,400.37Z" transform="translate(-195.15 -164.7)"/><path class="cls-6" d="M321.89,535.22c-1.44-.89-7.15-3-8.73-4a15.57,15.57,0,0,0-6.31-2.72c-3.43-.42-7.35,1.16-11.49,1.63-9.89,1.12-21.22-4.2-35-10.85,15.07,7.37,29.27,6.2,38.87-.79,2.6-1.89,5-4.23,7.5-5.45,3.11-1.52,6.14-1.19,8.95-2.12,2.64-.88,5.44-3.46,6.43-7.95" transform="translate(-195.15 -164.7)"/><path d="M321.89,535.22c-2.44-1.2-5.05-2-7.56-3.09s-4.7-2.78-7.36-3c-5.31-.21-10.63,2.78-16.15,2.19-11.21-.72-21.2-6.1-31.14-10.67L261,518a47.87,47.87,0,0,0,16.21,4.75,33.2,33.2,0,0,0,16.47-2.39c4-1.58,7.2-4.64,10.83-7a13.4,13.4,0,0,1,4.26-1.81c3-.7,6-.34,8.4-1.75a11.07,11.07,0,0,0,4.93-6.75,11.11,11.11,0,0,1-4.46,7.5c-2.49,1.74-5.74,1.65-8.47,2.49s-4.76,2.64-7,4.54c-6.7,6.17-16.23,8.92-25.23,8.08a48.34,48.34,0,0,1-17.25-5L261,518c7.32,3.49,14.52,7.21,22.25,9.59a30.28,30.28,0,0,0,15.59,1.13c3.87-.84,8.67-1.65,12.26.85,3.36,2.44,7.21,3.68,10.82,5.67Z" transform="translate(-195.15 -164.7)"/><path class="cls-4" d="M305.54,524.1c-2.43.52-5,1.61-7.63,2.06-6.35,1.09-13.45-1.41-21.71-.24,4.91,4.05,10.72,4.69,15.77,4.32,4.62-.33,8.91-1.41,12.73-1.12a22.39,22.39,0,0,1,5.71,1.34c2.22.77,4.65,3,6.71,2.9,1,0,4.43,4.3,4.77,1.86a16.72,16.72,0,0,0-.45-5.33C319.57,525.5,309.76,523.2,305.54,524.1Z" transform="translate(-195.15 -164.7)"/><path class="cls-5" d="M302.34,518.52c-1.15.89-2.24,2-3.42,3a12.89,12.89,0,0,1-9.44,2.86,64.35,64.35,0,0,0,12.26-7.52,24.5,24.5,0,0,1,4.35-3c3.1-1.42,6.45-1.1,9.17-1.27C311.67,516.26,306.75,515.11,302.34,518.52Z" transform="translate(-195.15 -164.7)"/><path class="cls-6" d="M782.54,635.68l7.12,4.64c3,1.93,6.18,4,9.92,4.75,5.43,1.08,11.74-.71,18.63-.83,17.33-.33,37.39,9.74,62.46,22.58-27.31-14.16-52.94-14.79-68.9-6.58-4,2.06-7.58,4.67-11.27,5.77-4.45,1.33-8.78.37-12.63,1a9.33,9.33,0,0,0-7.83,8.18" transform="translate(-195.15 -164.7)"/><path d="M782.54,635.68c3.38,2,7.9,4.91,11.28,6.74,8,4.72,16.92.73,25.61.87,9,0,17.7,2.39,26,5.49,12.39,4.64,24.16,10.77,35.92,16.71L880,668.15c-19.59-10-43.38-16.29-64.73-8.43-6.34,2.37-11.92,7.62-19,7.57-2.33.08-4.6-.14-6.83,0a9.44,9.44,0,0,0-9.36,8,9.7,9.7,0,0,1,9.3-8.75c2.31-.22,4.6-.11,6.82-.3,7-.39,11.88-5.67,18.33-8.26,21.82-8.86,46.66-2.68,66.86,7.62L880,668.15c-11.7-6-23.3-12.1-35.49-16.94-8-3.15-16.43-5.74-25.09-6-4.29-.19-8.61.53-13,.79a26.13,26.13,0,0,1-6.71-.37c-6.58-1.57-11.6-6.4-17.11-10Z" transform="translate(-195.15 -164.7)"/><path class="cls-4" d="M801.81,651.53c3.76-.35,7.76-1.51,12.08-1.76,10.63-.62,22.69,4.24,37.85,3.91-8.42-7.07-18.87-8.93-27.76-9.09-7.83-.14-14.92.86-21-.09a41,41,0,0,1-9-2.69c-3.47-1.41-7.37-4.91-10.48-5-1.49-.06-.75-1.07-1,2.44-.11,1.78-1.39,3.52-.75,4.76C785,650.27,795.43,652.14,801.81,651.53Z" transform="translate(-195.15 -164.7)"/><path class="cls-5" d="M806.9,659.68c1.76-1,3.45-2.36,5.32-3.44a22.52,22.52,0,0,1,15.63-2.48,98.22,98.22,0,0,0-20,8.29,30.66,30.66,0,0,1-6.47,3.13c-4.46,1.23-9.29.21-13.11-.07C793.08,661,800.33,663.39,806.9,659.68Z" transform="translate(-195.15 -164.7)"/><path class="cls-6" d="M769.55,438.57l8.41,1.26c3.51.53,7.28,1.09,11,.22,5.39-1.28,10.4-5.52,16.61-8.49,15.64-7.49,38.06-6.65,66.2-5.36-30.72-1.57-54.3,8.5-65.42,22.59-2.8,3.54-5,7.4-7.86,9.93-3.49,3-7.84,4-11.08,6.14a9.34,9.34,0,0,0-3.73,10.69" transform="translate(-195.15 -164.7)"/><path d="M769.55,438.57l6.54.76c4.26.5,8.71,1.3,12.9.13,6.32-1.93,11.16-6.61,17.29-9.27,8.12-3.75,17.09-5.17,25.93-5.79,13.2-.92,26.45-.23,39.62.3l-.15,3c-21.95-.94-46.23,3.18-62.38,19.18-4.8,4.79-7.7,11.88-14.18,14.78-2.08,1-4.24,1.78-6.23,2.79a9.44,9.44,0,0,0-5.22,11.11,9.7,9.7,0,0,1,4.83-11.82c2-1.15,4.14-2,6.09-3.1,6.24-3.28,8.45-10.08,13.25-15.12,16.17-17.11,41.34-21.79,64-20.81l-.14,3c-13.12-.58-26.22-1.35-39.32-.69-8.61.46-17.33,1.59-25.31,5-4,1.6-7.61,4.05-11.55,6.12a25.9,25.9,0,0,1-6.26,2.46c-6.63,1.3-13.21-1-19.7-2Z" transform="translate(-195.15 -164.7)"/><path class="cls-4" d="M793.67,445c3.27-1.88,6.43-4.6,10.26-6.62,9.41-5,22.4-5.55,36.05-12.14-10.59-2.94-20.87-.3-29,3.24-7.19,3.12-13.22,7-19.19,8.65a39.84,39.84,0,0,1-9.3,1.28c-3.74.17-8.74-1.4-11.63-.22-1.37.57-1.12-.66.14,2.62.65,1.66.2,3.78,1.3,4.64C777.81,450.84,788.11,448.2,793.67,445Z" transform="translate(-195.15 -164.7)"/><path class="cls-5" d="M801.67,450.3c1.19-1.63,2.17-3.58,3.42-5.34a22.56,22.56,0,0,1,13.19-8.74,98.91,98.91,0,0,0-14.77,15.85,30.7,30.7,0,0,1-4.58,5.53c-3.55,3-8.37,4-12,5.38C789.67,457.27,797.24,456.4,801.67,450.3Z" transform="translate(-195.15 -164.7)"/><path class="cls-6" d="M598.37,833.83l4.47,5.12c1.86,2.14,3.86,4.44,4.88,7.35,1.46,4.19.8,9.33,1.47,14.6,1.62,12.78,11.13,26.37,23,43.06-13.08-18.19-16-36.6-11-49.79,1.32-3.51,3.19-6.79,3.78-10,.74-4-.51-7.59-.33-11.07a9.82,9.82,0,0,1,6.65-8.66" transform="translate(-195.15 -164.7)"/><path d="M598.37,833.83c11.17,11.51,10.54,10.85,11.7,26.45,1.45,9.75,6.68,18.33,12,26.53,3.64,5.5,7.48,10.9,11.34,16.29L631,904.83c-10.51-14.6-17.69-34.44-10.41-52,1.44-3.37,3.31-6.47,3.75-9.85s-.58-7.14-.05-10.75a10.06,10.06,0,0,1,7-7.85,9.94,9.94,0,0,0-6.17,8c-.28,3.46,1.08,7,.75,10.79s-2.12,7.06-3.38,10.46c-6.25,17,1,35.46,10.94,49.47L631,904.82c-3.81-5.43-7.7-10.84-11.26-16.5-5.28-8.46-10.52-17.66-11.54-27.83-.57-16.27.57-13.81-9.82-26.66Z" transform="translate(-195.15 -164.7)"/><path class="cls-4" d="M613.08,847.24c.12,3.07-.36,6.38-.1,9.79.64,8.17,5.6,16.72,6.76,27.57-6.13-5.56-8.59-12.9-9.66-19.41-1-5.87-1-11.44-2.42-16.13a33,33,0,0,0-3.14-6.84c-1.51-2.62-4.69-5.27-5.19-7.81-.24-1.22-.92-.44,1.75-1.19,1.38-.39,2.58-1.76,3.64-1.44C610.16,833.43,612.86,841.93,613.08,847.24Z" transform="translate(-195.15 -164.7)"/><path class="cls-5" d="M620.23,850.3c-.64,1.56-1.59,3.08-2.28,4.69a17.15,17.15,0,0,0-.42,12.31,76.89,76.89,0,0,1,4.76-16.53,26.83,26.83,0,0,0,2-5.78c.64-4-.71-8-1.32-11.25C620,838.59,622.7,844.37,620.23,850.3Z" transform="translate(-195.15 -164.7)"/><path class="cls-6" d="M753.06,771.13l4.69,2.65c2,1.13,4.19,2.37,5.67,4.64,2.17,3.33,2.68,8.64,4.46,13.64,4.58,12.83,17.86,24.07,36.48,39.53-20.31-16.68-28.32-36-27-51.64.35-4,1.23-7.94,1-11.23-.33-4-2.3-6.6-3-9.72-.6-2.88.26-6.81,3.74-10.26" transform="translate(-195.15 -164.7)"/><path d="M753.06,771.13c12.33,6,11.25,6.47,15.07,19.07a42.12,42.12,0,0,0,7.37,12.91c8.64,10.34,19.5,18.67,29.81,27.34l-1.89,2.29c-15.07-12.36-28-30.37-27.16-50.67.13-5.92,2.56-11.42.64-17.11a55.26,55.26,0,0,1-1.84-5.58c-.86-4,1.17-8,4.08-10.64-2.56,2.74-4.29,6.73-3.26,10.45.49,1.81,1.44,3.51,2.15,5.37,2.41,5.57.18,12,.29,17.58-.08,19.46,12.57,36.32,27,48.31l-1.88,2.28c-5.21-4.37-10.46-8.72-15.5-13.32-8.09-7.5-16.61-15.64-20.54-26.25-2.27-5.31-1.7-12.18-5.9-16.43a22.87,22.87,0,0,0-4.09-2.91l-4.33-2.69Z" transform="translate(-195.15 -164.7)"/><path class="cls-4" d="M768.39,776.93c.79,2.86,1.09,6.29,2.12,9.53,2.54,8,9.56,15,13.83,26.77-7.75-3.61-12-10.67-14.63-17.13-2.25-5.62-3.49-11.14-5.77-15.05a23.39,23.39,0,0,0-4.13-5c-1.8-1.73-5-2.75-5.85-4.79-.4-1-.84,0,1.27-1.8,1.09-.93,1.86-2.64,2.81-2.82C763,765.7,767.05,772.1,768.39,776.93Z" transform="translate(-195.15 -164.7)"/><path class="cls-5" d="M775.57,776.64c-.21,1.78-.71,3.68-1,5.57a18.87,18.87,0,0,0,2.7,12.74,94.21,94.21,0,0,1,.26-18.8,31.67,31.67,0,0,0,.42-6.35c-.41-3.92-2.56-6.89-3.86-9.49C772.6,765.92,776.37,770,775.57,776.64Z" transform="translate(-195.15 -164.7)"/><path class="cls-6" d="M451.71,815l-6,3.22c-2.49,1.34-5.17,2.8-7.15,5.16-2.84,3.41-4,8.45-6.51,13.15-6,11.39-19.7,20.77-36.69,32.21C414,856.34,423.24,840.13,423.21,826c0-3.74-.6-7.47,0-10.72.72-4,3.15-6.92,4.2-10.24a9.82,9.82,0,0,0-3.18-10.45" transform="translate(-195.15 -164.7)"/><path d="M451.71,815c-14.3,8.41-12.31,6.48-18.57,21.5-4.53,9.16-12.68,15.93-20.6,22-5.32,4-10.86,7.74-16.34,11.49l-1.66-2.47c14.26-9.61,27.53-24.41,27.64-42.47,0-3.62-.51-7.37.52-11s3.55-6.5,4.5-9.84a9.91,9.91,0,0,0-3-9.62,10.09,10.09,0,0,1,3.78,9.81c-.77,3.56-3.09,6.55-3.83,10-.78,3.32-.12,6.89,0,10.54.65,19-13,35-28,45l-1.65-2.47c5.51-3.69,11-7.39,16.35-11.26,7.86-5.81,15.77-12,20.56-20.61,6.59-14.24,5.76-13.79,20.26-20.64Z" transform="translate(-195.15 -164.7)"/><path class="cls-4" d="M433.23,822.39c-1.2,2.83-1.91,6.11-3.36,9.2-3.47,7.42-11.12,13.68-16,23.43,7.68-3,12.57-9,15.86-14.77,3-5.16,5-10.36,7.94-14.25a33.45,33.45,0,0,1,5.35-5.3c2.34-1.91,6.25-3.28,7.6-5.48.66-1.06,1-.09-1.22-1.73-1.15-.85-1.79-2.56-2.9-2.63C440.81,810.5,435.29,817.5,433.23,822.39Z" transform="translate(-195.15 -164.7)"/><path class="cls-5" d="M425.45,822.75c.06,1.68.4,3.44.48,5.19A17.15,17.15,0,0,1,422,839.61a77.2,77.2,0,0,0,1.36-17.16,26.38,26.38,0,0,1,.13-6.12c.8-3.93,3.46-7.2,5.19-10.06C429.8,811.87,425.23,816.33,425.45,822.75Z" transform="translate(-195.15 -164.7)"/><path class="cls-6" d="M332.2,672.37l-5.43-2.63c-2.32-1.13-4.86-2.36-7.61-2.16-4.08.29-8.45,3.66-13.63,5.6-13.7,5.13-33,.15-60.34-7.18,29.61,8.13,51.51,1.71,62.58-10.69,2.7-3,4.94-6.46,7.49-8.36,3-2.27,6.27-2.18,8.89-3.58,2.38-1.27,4.4-4.47,4.23-9.58" transform="translate(-195.15 -164.7)"/><path d="M332.2,672.37,327,670.1c-3.3-1.59-7-3-10.52-1.38-4.35,1.76-8.26,4.7-12.86,6-8.32,2.52-17.24,1.74-25.68.42-11.22-1.82-22.2-4.83-33.15-7.7l.78-2.87c19,5.08,41.63,6.3,57.85-6.52,3.26-2.5,5.66-5.71,8.38-8.81a15,15,0,0,1,5-3.93,55.34,55.34,0,0,1,5.95-1.79c4.06-1.19,5.6-5.83,5.58-9.73.38,4.06-1.06,9-5.29,10.5a58,58,0,0,0-5.73,2.08,13.71,13.71,0,0,0-4.39,3.87c-2.56,3.19-5,6.7-8.22,9.36-16.43,14-40.25,13.22-59.95,7.84l.78-2.87c10.9,2.9,21.74,6,32.81,8,10.83,2.06,22.53,2.89,32.48-2.66,9.9-5.26,12.37-2.21,21.33,2.43Z" transform="translate(-195.15 -164.7)"/><path class="cls-4" d="M316.57,661.75c-2.69,1.26-5.47,3.39-8.67,4.72-8.13,3.38-18.82,1.51-31.86,6.08,8.77,5.17,17.83,4.13,24.95,1.83,6.08-2,11.23-4.8,15.85-5.4a20.94,20.94,0,0,1,6.77.38c2.59.49,5.73,2.86,7.83,2.2,1-.3.64.83.3-2.52-.17-1.71.44-3.65-.15-4.68C328.56,659.1,321,659.66,316.57,661.75Z" transform="translate(-195.15 -164.7)"/><path class="cls-5" d="M311.54,654.76c-1.16,1.42-2.21,3.19-3.45,4.74a16.54,16.54,0,0,1-11.8,6.45,85.49,85.49,0,0,0,14.16-13.39,25.92,25.92,0,0,1,4.3-4.59c3.06-2.17,6.67-2.14,9.4-2.64C321.37,650.36,315.79,649.56,311.54,654.76Z" transform="translate(-195.15 -164.7)"/></g><g id="Layer_7" data-name="Layer 7"><path class="cls-4" d="M491.31,366.11c5,5.4,13.24,8.81,19.88,5.6,4.46-2.16,7.18-6.72,9.63-11-.06,3.74,4.11,8.24,4,12a19.66,19.66,0,0,1-.76,6.12c-1.5,4.32-6.57,9.61-11.11,10.22s-13.06-.12-17.33-1.78c-3.7-1.43-7-7-9.86-9.77a21.87,21.87,0,0,1-6.12-14.55c-.19-4.31.46-11.81,3.65-14.93C485.1,354.77,486.28,360.7,491.31,366.11Z" transform="translate(-195.15 -164.7)"/><path class="cls-4" d="M523.64,390.67a7,7,0,0,1,1.62-2.83,20.06,20.06,0,0,1,7-5.26c3.15-1.41,7.08-1.9,9.89.11a10.11,10.11,0,0,1,1.38,1.24,18.15,18.15,0,0,1,4.91,12.4,7.16,7.16,0,0,1-.59,3.17,9.12,9.12,0,0,1-2,2.44l-4.82,4.66a26,26,0,0,0-.9-6.8c-.49-1.85-1.39-3.86-3.21-4.46-5-1.63-5.92,4.5-9.52,5.05C523,401.07,523,393.51,523.64,390.67Z" transform="translate(-195.15 -164.7)"/><path class="cls-4" d="M604.08,404.44c2.32,1.85,5.45,2.27,8.41,2.28,4.89,0,10.15-1.07,13.43-4.69a16.62,16.62,0,0,0,2.32-3.5,28.27,28.27,0,0,0,2.88-9.4,42.38,42.38,0,0,1-15.8,9.4,12.57,12.57,0,0,1-6.4.76c-1.77-.36-6.71-4.26-8.38-2.39C599,398.56,602.84,403.45,604.08,404.44Z" transform="translate(-195.15 -164.7)"/><path class="cls-4" d="M591.94,408a16.26,16.26,0,0,0-3.32-10.82,9.44,9.44,0,0,0-3.09-2.71,9.34,9.34,0,0,0-6.61-.38,12.18,12.18,0,0,0-7.11,4.84,8.59,8.59,0,0,0-.73,8.38A11.47,11.47,0,0,1,585,405.61a4.19,4.19,0,0,1,1.64,1.62,5.19,5.19,0,0,1,.4,1.8c.22,2.17-.62,7,1,8.29C590.48,415.13,591.73,411.21,591.94,408Z" transform="translate(-195.15 -164.7)"/><path class="cls-4" d="M598.56,319.05a6,6,0,0,1-1.73-1.05,4.65,4.65,0,0,1-1.21-2.71,10.77,10.77,0,0,1,3.08-8.84,16.36,16.36,0,0,1,8.47-4.4,10.75,10.75,0,0,1,4-.22,10.29,10.29,0,0,1,4.46,2.15,13.42,13.42,0,0,1,3.71,4.26c2.37,4.51,1.09,10.38-2.3,14.18a27.38,27.38,0,0,0-2-5.52,9.54,9.54,0,0,0-2.31-3.26,4.27,4.27,0,0,0-3.74-1,6,6,0,0,0-2.25,1.37,8.8,8.8,0,0,0-2.84,3.66,5.49,5.49,0,0,0,.07,3.21C602.26,321.07,600.2,319.81,598.56,319.05Z" transform="translate(-195.15 -164.7)"/><path class="cls-4" d="M473.48,311c6.1-2.43,11.8-6.44,15-12.18A25.75,25.75,0,0,1,477,319.52a16.69,16.69,0,0,1-4,2c-3.29,1-8.57.94-11.65-.68-3.32-1.74-6.28-6.06-10.66-5.92C458.47,314.66,466,314,473.48,311Z" transform="translate(-195.15 -164.7)"/><path class="cls-4" d="M455.52,329a24.51,24.51,0,0,1,.87,12.38,15.78,15.78,0,0,1-2.82,7.51c-2.1,2.64-5.39,4-8.66,4.83a35.85,35.85,0,0,1-23.17-2.08,39.28,39.28,0,0,0,22-14.77,18.12,18.12,0,0,0,3.19-6.26c.6-2.45-1.15-7.62,1.74-8.5C451.83,321.12,454.7,326.8,455.52,329Z" transform="translate(-195.15 -164.7)"/><path class="cls-4" d="M299.9,565.87c.39,6-2.72,5.84-3.57,11.8,4.23-3.56,8.33-5.85,7.4-12.27a27.71,27.71,0,0,0-3.34-8.89c-.93-1.77-2.09-4.84-4.08-4.84C296.32,555.88,299.59,561.11,299.9,565.87Z" transform="translate(-195.15 -164.7)"/><path class="cls-4" d="M273.47,619.88a10.16,10.16,0,0,1-6.8-6,10.55,10.55,0,0,1,.79-9.92,8.61,8.61,0,0,1,9.06-3.55c-3.18.5-5.09,4.36-4.17,7.45s3.95,5.2,7.11,5.81c1.55.3,2.76.88,1.56,2.36C282.78,619.24,275.5,620.35,273.47,619.88Z" transform="translate(-195.15 -164.7)"/><path class="cls-4" d="M333.94,652.55a27.78,27.78,0,0,0-.24-4.83,27.33,27.33,0,0,0-1.43-4.75l-3.16-8.53c1.66,5.73,7.45,9.29,10,14.67a14.41,14.41,0,0,1,.64,10.66,18.9,18.9,0,0,1-2,4.13c-1.08,1.71-2.73,4.63-4.8,4.86C333.28,663.35,333.88,658,333.94,652.55Z" transform="translate(-195.15 -164.7)"/><path class="cls-4" d="M560.25,831.75c0,3.75,1.39,7.93,4.78,9.54,2.73,1.3,6.11.52,8.55-1.26a20.63,20.63,0,0,0,5.55-7.08,25.25,25.25,0,0,1-7.06,1.67,4.87,4.87,0,0,1-2.4-.21c-3.51-1.51-.41-5.55-2.36-7.68C564,823.14,560.22,828.67,560.25,831.75Z" transform="translate(-195.15 -164.7)"/><path class="cls-4" d="M681.53,816.93a14.66,14.66,0,0,0-3.55,8.39c-.3,2.42-.12,5.19,1.68,6.83s4.86,1.55,7.42,1.15A104.34,104.34,0,0,0,698,831c1.31-.35,1.65-4.62,2.81-5.33,3.27-2,2.71-1.76,3.24-5.57a62.24,62.24,0,0,0,.54-10.21c-1.63,4.5-2.57,7.66-7,9.38-2.93,1.13-8.52,1.4-9.32-2.54-.39-1.91,1.41-4.26,2.1-5.9C687.49,812.81,684,814.41,681.53,816.93Z" transform="translate(-195.15 -164.7)"/><path class="cls-4" d="M840,635.66c.41,1.1,1.47,2.45,2.47,1.83A2,2,0,0,0,843,637a27.85,27.85,0,0,0,5-20.54c-.4-2.57-1.66-5.53-4.23-5.88l4.12-2.45a2.84,2.84,0,0,1,1.63-.58,2.61,2.61,0,0,1,1.78,1.21,13.61,13.61,0,0,1,2.46,7.7c.32,7.49-3.38,14.49-7,21.07-1,1.75-2.53,3.8-4.46,3.3a4,4,0,0,1-1.51-.89c-1.72-1.5-6.46-8.37-3-9.72C838.7,631.91,839.26,633.83,840,635.66Z" transform="translate(-195.15 -164.7)"/><path class="cls-4" d="M371,346.37a11.29,11.29,0,0,1-7.9-4.58,14.11,14.11,0,0,1-.84-15.45,17.44,17.44,0,0,1,8.82-6.95,35,35,0,0,1,11.23-1.92,11.37,11.37,0,0,1,5.25.75c2.76,1.32,4.12,4.48,4.73,7.47a11.56,11.56,0,0,1,.13,4.86c-.68,2.9-3.05,5.06-5.29,7a43.18,43.18,0,0,0-3.74-9.54,5.22,5.22,0,0,0-1.59-2c-1.94-1.27-4.44.28-6.22,1.75-2,1.63-4.05,3.49-4.39,6-.43,3.13,2,5.85,4.25,8.07a7.57,7.57,0,0,0,2.7,1.4C376.7,345.52,373.65,346.57,371,346.37Z" transform="translate(-195.15 -164.7)"/><path class="cls-4" d="M317,585.71c-2.86,0-5.89,1.33-7.09,3.91-.91,1.93-.67,4.18-.25,6.27,1.6,7.78,6.11,15.36,13.3,18.73,2,1,4.38,1.53,6.42.67a6.43,6.43,0,0,0,3.54-4.76,13.7,13.7,0,0,0-.47-6.09A33.85,33.85,0,0,1,335,613a11.52,11.52,0,0,1-2,8.49,8.71,8.71,0,0,1-7.8,3.19,17,17,0,0,1-5.64-2.17c-3-1.57-6-3.18-8.29-5.64a24.94,24.94,0,0,1-3.76-5.74c-3.4-6.71-5.7-14.43-3.9-21.73,1.15-4.66,4.68-9.3,9.48-9.48a10.26,10.26,0,0,1,6.93,2.77,14.7,14.7,0,0,1,3.95,4.82C321.65,586.79,319.51,585.72,317,585.71Z" transform="translate(-195.15 -164.7)"/><path class="cls-7" d="M333.93,668a9.12,9.12,0,0,0,1.86-3.9,28.56,28.56,0,0,0,.8-4.6,41.32,41.32,0,0,0-.22-9.75c-.53-4.39-1.07-11.73-6.37-13a.47.47,0,0,0-.58.57c.63,1.94,1.42,3.8,2.06,5.75a35.9,35.9,0,0,1,1.42,7.42,49.51,49.51,0,0,1,.23,8.78c-.09,1.41-.33,2.78-.54,4.18a13.58,13.58,0,0,0-.34,4.1,1,1,0,0,0,1.68.45Z" transform="translate(-195.15 -164.7)"/><path class="cls-4" d="M546.85,853.45c.54,1.41,1.08,3,.38,4.39a3.79,3.79,0,0,1-1.86,1.6c-2.94,1.34-6.41.22-9.23-1.35a16.45,16.45,0,0,1-6.72-6.21c-1.48-2.72-1.72-6.26,0-8.82l-1.24.22a2.11,2.11,0,0,0,1.38-.8c-3.7.5-7.41,3.32-7.44,7,0,2.53,1.6,4.76,3.29,6.65a28.57,28.57,0,0,0,10.13,7.67,15.5,15.5,0,0,0,12.45,0c3.85-1.85,6.65-6,6.21-10.3a12.21,12.21,0,0,0-1.11-3.77,11.2,11.2,0,0,0-3.68-4.67c-1.26-.87-7.72-2.86-7.48.18.06.73,2.31,2.64,2.76,3.38A27.59,27.59,0,0,1,546.85,853.45Z" transform="translate(-195.15 -164.7)"/><path class="cls-7" d="M679.84,819.16a11,11,0,0,0-1.15,6.07,11.26,11.26,0,0,0,1.46,5.13c2.1,3.57,6.05,4.58,9.93,3.83a18.65,18.65,0,0,0,9.38-5.38,13.72,13.72,0,0,0,3.18-4.49,12.22,12.22,0,0,0,.78-5.05c0-.52-.78-1-1.17-.48-.82,1.05-1.69,2.07-2.57,3.05s-1.75,2.22-2.68,3.29a18.5,18.5,0,0,1-6.59,4.82c-2.63,1.1-5.7,1.19-7.66-1.17a8.86,8.86,0,0,1-1.71-3.86,20.45,20.45,0,0,1-.28-2.69c-.06-1-.41-2-.49-3a.22.22,0,0,0-.43-.05Z" transform="translate(-195.15 -164.7)"/><path class="cls-7" d="M845.23,609.58c-.21.93.51,1.89.8,2.75a16,16,0,0,1,.58,3.3,22.48,22.48,0,0,1-.7,7.48,42.47,42.47,0,0,1-2.22,7.25c-.86,1.95-2.93,2.25-4.78,2.9a.53.53,0,0,0-.23.88,5.53,5.53,0,0,0,3.59,1.93,4.65,4.65,0,0,0,4.15-1.56,10,10,0,0,0,1.94-4.26c.45-1.64.87-3.28,1.18-5a24.2,24.2,0,0,0,0-9.48A15,15,0,0,0,848,611.9c-.51-1-1.21-2.47-2.4-2.62a.42.42,0,0,0-.4.3Z" transform="translate(-195.15 -164.7)"/><path class="cls-4" d="M788.62,615.92A6.7,6.7,0,0,0,793,617a6,6,0,0,0,2.56-1.25,12.4,12.4,0,0,0,3.95-6.56,49.41,49.41,0,0,0,1.15-7.68c.34-3,.81-6.09.19-9.06s-2.62-5.88-5.58-6.56a7.88,7.88,0,0,0-5.53,1,22.09,22.09,0,0,0-4.44,3.64,10.6,10.6,0,0,1,4.52-6.15,16.07,16.07,0,0,1,7.33-2.43,8.6,8.6,0,0,1,3.12.13,7.45,7.45,0,0,1,4.65,4.46,22,22,0,0,1,1.32,6.5l1,9.92c.36,3.53.69,7.2-.5,10.54-2,5.66-7.88,9-13.57,10.9a8.72,8.72,0,0,1-4.43.64,8.4,8.4,0,0,1-3.19-1.62,19.82,19.82,0,0,1-6.73-7.76c-.72-1.64-2.07-10.77,1.56-8.39,1.48,1,2.4,3.24,3.52,4.58A17.69,17.69,0,0,0,788.62,615.92Z" transform="translate(-195.15 -164.7)"/></g><g id="Layer_4" data-name="Layer 4"><path d="M581.66,416.84c2.43-.15,4.07-1.86,5.14-3.9a6.9,6.9,0,0,0-.54-7.38,9.9,9.9,0,0,0-7.92-3.68,11.2,11.2,0,0,0-8.41,4,11.48,11.48,0,0,0-2.57,5.2c-.08.47,0,.88-.06,1.35s-.11.9-.14,1.36a8.22,8.22,0,0,0,.25,2.75.57.57,0,0,0,1.09,0c.48-1.31.7-2.92,1.49-4.09l-.5.5c1-.69,1.42-2.14,2.14-3.14a14.76,14.76,0,0,1,2.14-2.46,8.13,8.13,0,0,1,5.26-2,6.28,6.28,0,0,1,5.1,2,6.7,6.7,0,0,1,1.29,4.8,5.12,5.12,0,0,1-3.78,4.61c-.08,0-.07.16,0,.15Z" transform="translate(-195.15 -164.7)"/><path d="M607.16,321a6.23,6.23,0,0,1-3.21-4,7.22,7.22,0,0,1,.77-5.41,7.79,7.79,0,0,1,4.06-3.62,3.46,3.46,0,0,1,2.17-.08,2.8,2.8,0,0,1,1,.46l.26.17s-.15-.12,0,0,.44.46.32.3a1.86,1.86,0,0,1,.47,1.17,6.61,6.61,0,0,1,.09,1.54,6.89,6.89,0,0,0-.18,1,2.25,2.25,0,0,1,0,.82c-.19.64-.4,1.26-.62,1.89s.63,1,1.08.62a19.85,19.85,0,0,0,2-2.2l-.45.45a3.75,3.75,0,0,0,1.39-1.73,5.9,5.9,0,0,0,.68-2.41,6.1,6.1,0,0,0-1.61-4,7.45,7.45,0,0,0-7.48-2c-5.51,1.55-9.64,8.59-7.25,14a6.74,6.74,0,0,0,2.82,3.19,6.24,6.24,0,0,0,3.76.54c.47-.08.34-.69,0-.83Z" transform="translate(-195.15 -164.7)"/><path d="M752.33,346.09a2.06,2.06,0,0,1-.26-.62c0-.14,0-.29,0-.44s0-.32-.05-.49c0,.18,0,0,0-.06s0-.4,0-.6,0,0,0,0a2,2,0,0,1,.05-.26,10.07,10.07,0,0,1,.36-1.22c.07-.21,0,0,0,0l.12-.24.21-.5c.19-.41.39-.8.62-1.19a6.19,6.19,0,0,1,1.4-1.82l.32-.28.44-.26c.29-.18-.11,0,.21-.1L756,338s.41-.07.2,0,.14,0,.2,0h.26c-.33,0-.06,0,.13,0s.46.18.15,0a5.82,5.82,0,0,1,.59.33c.3.19-.12-.15.12.12l.37.37s.2.25.06.07.07.11.1.15a4.37,4.37,0,0,1,.32.55c.07.11.22.49.1.17.06.17.12.34.17.52s.09.42.15.62,0-.06,0-.1l0,.36a8.55,8.55,0,0,1-.42,2.86,13,13,0,0,1-.47,1.5,4,4,0,0,0-.5,1.82l.16-.62c-.39.91-.77,1.79-1.1,2.73a.53.53,0,0,0,.78.59,15.74,15.74,0,0,0,2.26-1.83l-.55.32c1.29-.38,2.22-2,2.86-3.06a7.95,7.95,0,0,0-2.11-10.44,5.89,5.89,0,0,0-6.84,0,10.84,10.84,0,0,0-4.11,6c-.54,2.27-.47,5.84,2.52,6.25a.79.79,0,0,0,.88-1.14Z" transform="translate(-195.15 -164.7)"/><path d="M723.67,328.33a37.43,37.43,0,0,1,3.52,15.78c0,2.17-.4,5.13-2.74,6-2,.78-4.38-.3-6.18-1.2a41.82,41.82,0,0,1-11.38-8.56c-2.87-3-6.88-7.41-5.6-11.95.7-2.47,2.59-4.19,4.66-5.58,2.32-1.56,5.26-1.88,7.87-2.66a.63.63,0,0,0,0-1.21,13.56,13.56,0,0,0-15.21,5.88,10.54,10.54,0,0,0-1.08,8.33,22.73,22.73,0,0,0,4.78,7.71,40.45,40.45,0,0,0,14,10.71c2.35,1.07,5.19,1.87,7.73,1a6.49,6.49,0,0,0,4-5.29c1-6.38-1.2-13.41-4.26-18.94,0,0-.05,0,0,0Z" transform="translate(-195.15 -164.7)"/><path d="M373.72,397.68a35.77,35.77,0,0,1-1.24,18.85,20.11,20.11,0,0,1-4.42,7.75c-2,2.06-5.17,3.56-8.11,3.09a.82.82,0,0,0-.63,1.5c3,1.87,6.67,1,9.18-1.34s3.9-5.58,5.11-8.68a31.33,31.33,0,0,0,2.14-10.53,32.28,32.28,0,0,0-1.81-10.7.11.11,0,1,0-.22.06Z" transform="translate(-195.15 -164.7)"/><path d="M530.09,345.6c.77,1.49,3,2.47,4.42,3.21a28.73,28.73,0,0,0,5.63,2.24,29.14,29.14,0,0,0,12.18.83,25.73,25.73,0,0,0,9.95-3.69,18.51,18.51,0,0,0,4.1-3.44A22.9,22.9,0,0,0,568,342.6a8.72,8.72,0,0,0,.93-2.62,1.16,1.16,0,0,0-1.93-1.12c-.56.59-1.23,1-1.77,1.61a22.93,22.93,0,0,1-1.68,1.74,25.55,25.55,0,0,1-3.39,2.74,22.74,22.74,0,0,1-8.8,3.45,28.55,28.55,0,0,1-10.62-.37,54.51,54.51,0,0,1-5.3-1.42c-1.53-.49-3.43-1.63-5.05-1.54a.35.35,0,0,0-.3.53Z" transform="translate(-195.15 -164.7)"/><path d="M450.08,313.77a30,30,0,0,0,4.85,2.07,24.6,24.6,0,0,0,5,.86c1.89.21,3.78.24,5.68.34a24.38,24.38,0,0,0,4.6-.06,18,18,0,0,0,7.49-2.51,9,9,0,0,0,2.88-2.71,8.6,8.6,0,0,0,.64-1.87,3.11,3.11,0,0,0,.07-1.86,1.06,1.06,0,0,0-1.55-.63,5.12,5.12,0,0,0-1,1.09,8.4,8.4,0,0,1-1.11,1,14.23,14.23,0,0,1-2.43,1.95,18.74,18.74,0,0,1-6.36,2c-1.38.22-2.75.53-4.14.63a46.64,46.64,0,0,1-4.73,0c-3.27-.14-6.52-.33-9.79-.46-.07,0-.1.11,0,.14Z" transform="translate(-195.15 -164.7)"/><path d="M629,308.12c4.85,3.66,11.11,5.34,17.07,6.13a56,56,0,0,0,9.06.51,37.29,37.29,0,0,0,4.48-.41,7.9,7.9,0,0,0,4.17-1.72,1.09,1.09,0,0,0-.22-1.71c-2.5-1.12-5.77-.42-8.43-.34a53.79,53.79,0,0,1-8.51-.4c-5.76-.75-11.18-2.62-16.77-4.09a1.11,1.11,0,0,0-.85,2Z" transform="translate(-195.15 -164.7)"/><path d="M815.75,579.79a31.73,31.73,0,0,1-1.93-16.56,25.64,25.64,0,0,1,2.51-7.91c.64-1.25,1.36-2.47,2.06-3.69s1.56-2.22,1.54-3.74a.71.71,0,0,0-.7-.7c-1.73,0-2.75,1.16-3.86,2.33a15.25,15.25,0,0,0-2.63,3.91,29.71,29.71,0,0,0-2.75,9.2,23.06,23.06,0,0,0,4.85,17.69c.33.41,1.12,0,.91-.53Z" transform="translate(-195.15 -164.7)"/><path d="M795.87,571.25a17,17,0,0,0-17.58,2.58c-4.08,3.43-7.07,10.36-2.94,14.86a.52.52,0,0,0,.87-.36c-.25-4.46,1.15-9.35,4.76-12.21,4.2-3.33,9.79-3.53,14.83-4.48a.22.22,0,0,0,.06-.39Z" transform="translate(-195.15 -164.7)"/><path d="M784.23,589c4.08-3.94,10.53-7.63,16.26-4.94,2.83,1.33,4,4.07,4.5,7a69.5,69.5,0,0,1,.87,10.59c.19,6.3-.18,12.69-4.91,17.39-3.89,3.87-10,5.3-15,2.71-5.66-2.94-6.86-9.49-5.54-15.23a.84.84,0,0,0-1.4-.81c-5.49,4.75-3.13,14,1.87,18.09a17.07,17.07,0,0,0,20.21.83,19.87,19.87,0,0,0,6.84-8.16,27.5,27.5,0,0,0,2-12,100.07,100.07,0,0,0-1.08-12.94c-.58-3.78-2.07-7.23-5.45-9.29a12.83,12.83,0,0,0-10.79-1.11c-3.73,1.35-6.61,4.35-8.71,7.63a.22.22,0,0,0,.34.26Z" transform="translate(-195.15 -164.7)"/><path d="M821.28,603.81c0-.16,0,0,0,0l-.05.07.16-.21a2.17,2.17,0,0,0,.14-.75c0-.06,0-.39,0-.16s.12-.15.16-.2a4.52,4.52,0,0,0,.23-.5,9.29,9.29,0,0,1,1.21-1.82,12.67,12.67,0,0,1,1.61-1.82,2.09,2.09,0,0,1,.22-.2s-.15.11,0,0a4.39,4.39,0,0,1,.47-.27c.26-.14-.24.07,0,0l.26-.08.25-.07c.29-.07-.25,0,0,0a3,3,0,0,1,.52,0c.29,0-.26-.08,0,0l.24.07c-.28-.09.06,0,.16.11-.28-.19.18.24.12.15s.2.5.09.18a3.63,3.63,0,0,1,.15.54c.08.33,0-.07,0,.26s0,.51,0,.77c0,.08-.06.54,0,.26a5.3,5.3,0,0,1-.1.55,8,8,0,0,1-.4,1.26c.1-.24-.08.18-.12.25s-.17.34-.26.51q-.31.6-.69,1.17c-.6.9-1.05,1.49-1.64,2.46a7,7,0,0,0-1.33,2.65.9.9,0,0,0,.9.9,6.33,6.33,0,0,0,2.89-1.62,7.5,7.5,0,0,0,1.36-1.21c.41-.5.81-1,1.18-1.56A10.34,10.34,0,0,0,831,598.9a5.55,5.55,0,0,0-1.51-3.58,4.7,4.7,0,0,0-3.44-1.25c-2.59.13-4.52,1.89-5.74,4.06a7.88,7.88,0,0,0-1.32,3.71,4,4,0,0,0,.47,1.69,1.34,1.34,0,0,0,1.4.67.41.41,0,0,0,.4-.39Z" transform="translate(-195.15 -164.7)"/><path d="M657,814.89c.55-.27.66-.86.78-1.4a1,1,0,0,0-.14-.72c0-.08-.11-.17-.14-.25.13.3,0-.21,0-.24a2,2,0,0,0-1.6-1.17c-2.32-.43-4.33,1.41-5.15,3.43a5.78,5.78,0,0,0,1.42,6.16,8.37,8.37,0,0,0,6.23,2.33,10.75,10.75,0,0,0,4.47-1.2,9.09,9.09,0,0,0,.86-.49,7.1,7.1,0,0,0,.89-.93,4.36,4.36,0,0,0,1.3-1.71.82.82,0,0,0-.77-1,4.15,4.15,0,0,0-1.66.38c-.12,0-.29.12-.42.15a1.55,1.55,0,0,0-.64,0l-.61.26a16.43,16.43,0,0,1-2.91.93,5.92,5.92,0,0,1-1.16.08,5.79,5.79,0,0,1-.72,0c.3,0-.25-.06-.25-.07a5.56,5.56,0,0,1-.7-.19l-.34-.12c.14,0,.11,0-.08-.05a4.31,4.31,0,0,1-.47-.26c-.06,0-.54-.37-.38-.24a5.67,5.67,0,0,1-.5-.48c-.21-.23,0,.06-.17-.21a2.57,2.57,0,0,1-.46-1c-.1-.31,0,.17,0-.19a4.42,4.42,0,0,1,0-.63c0,.32.08-.29.09-.35s.09-.31.15-.46c-.09.24.15-.28.19-.33s.11-.18.17-.27l0,0,.33-.33c.14-.12.16-.13.06,0a2.26,2.26,0,0,1,.26-.16c.16-.08.17-.09.05,0l.22-.07.52-.11c-.06,0,.06,0,.16,0a2,2,0,0,0,1.19-.22h-.92a3.59,3.59,0,0,1,.38.21c.16.09.36.11.5.19s.17.53-.1.78c0,0,0,.08.05.06Z" transform="translate(-195.15 -164.7)"/><path d="M573.94,826.06c-1-2-4.15-1.7-5.69-.54a5.48,5.48,0,0,0-1.71,6.26c.93,2.45,3.7,3.84,6.17,4.07a6.66,6.66,0,0,0,7.12-4.61,4.74,4.74,0,0,0,.11-1.88,4.53,4.53,0,0,0-1.81-3.12c-.34-.25-.78.17-.68.53a4.47,4.47,0,0,1,0,2c0,.18,0,.36-.09.53l-.06.27-.07.21c.08-.2-.15.35-.11.26,0,.12-.09.24-.13.37a2.76,2.76,0,0,0-.08.27l0,.1a4.66,4.66,0,0,1-.25.5c0,.1-.12.19-.18.29s-.18.26-.09.14-.09.1-.11.12a1.8,1.8,0,0,1-.19.2c0,.05-.45.4-.28.28-.17.12-.35.23-.53.34l-.34.17c-.23.1.14,0-.09,0a5.76,5.76,0,0,1-.59.18l-.3.06c-.05,0-.34.06-.17,0a5.16,5.16,0,0,1-4.37-1.51,3.58,3.58,0,0,1-1.13-2,3.49,3.49,0,0,1,.53-2.2c1.12-1.77,3.29-1.55,5.08-1.31a0,0,0,0,0,0-.05Z" transform="translate(-195.15 -164.7)"/><path d="M469.72,805.18a7,7,0,0,0-10.46,5.54,8.33,8.33,0,0,0,2.51,6.44,6.6,6.6,0,0,0,7.47,1.12c2.49-1.18,4.41-4.33,3.29-7.06a.57.57,0,0,0-1.09,0,5.49,5.49,0,0,1-1.12,2.22,6.14,6.14,0,0,1-.43.45,3.52,3.52,0,0,1-.46.39,5.69,5.69,0,0,1-1.16.77l-.29.14c.35-.16-.3.13-.29.12.26-.1,0,0,0,0l-.38.13a6.21,6.21,0,0,1-.62.14c-.28,0,.39,0-.1,0h-.39l-.4,0c.08,0,.3.07,0,0s-.4-.09-.59-.15l-.29-.09-.21-.08c.18.08-.1,0-.14-.07l-.39-.21-.25-.16c-.06,0-.3-.24-.1-.07a5.48,5.48,0,0,1-.44-.4c-.14-.14-.27-.29-.4-.44-.3-.36.07.11-.09-.12l-.21-.31a4.73,4.73,0,0,1,1.23-6.4,7.27,7.27,0,0,1,5.74-1.61c.16,0,.28-.19.12-.28Z" transform="translate(-195.15 -164.7)"/><path d="M283.57,603.63c0-.21,0-.41,0-.62l-.23.86a2.64,2.64,0,0,0-.45-3,5.92,5.92,0,0,0-1.63-1.32,6.33,6.33,0,0,0-4.37-.65,8.28,8.28,0,0,0-5.89,5.58c-1.56,4.61,1.16,10.67,6.23,11.48a7.34,7.34,0,0,0,2.43,0,6.17,6.17,0,0,0,1.9-.72c1.24-.65,2.47-1.55,2.64-3l-.16.63a5.17,5.17,0,0,0,.91-3.27c-.06-.52-.8-.87-1.09-.3a4.8,4.8,0,0,1-1.51,1.88L283,611a4.27,4.27,0,0,0-1.31.37c-.21.08-.41.18-.61.27.27-.12,0,0,0,0l-.37.12a4.94,4.94,0,0,1-.52.13c.35-.06.16,0,0,0a3.14,3.14,0,0,0-.68.07c.46-.06-.07,0-.23,0h-.62a2.56,2.56,0,0,1-.62-.07c.4.12.13,0-.12,0l-.52-.15c-.36-.11,0,0,.08,0l-.36-.18c-.17-.09-.32-.2-.48-.3-.32-.2,0,0,0,0l-.24-.21a4.89,4.89,0,0,1-.39-.4l-.21-.24c-.17-.18.2.32,0,0s-.39-.69-.59-1,0,.12.06.14-.08-.21-.11-.31a5.75,5.75,0,0,1-.2-.71c-.05-.18-.07-.37-.11-.56.11.56,0-.1,0-.24a5.42,5.42,0,0,1,0-.57c0-.14.1-.9,0-.33a12.09,12.09,0,0,1,.28-1.19l.09-.23c-.13.43-.07.15,0,0s.26-.5.41-.73.43-.54.17-.25c.17-.19.33-.38.51-.55a1.9,1.9,0,0,0,.21-.19c.21-.23-.25.16,0,0s.46-.3.71-.44c.07,0,.36-.14,0,0l.35-.12.35-.09c.37-.11-.16,0,.08,0h.36c.13,0,.48.08.05,0l.68.19c-.36-.11-.11-.06,0,0l.38.22c.05,0,.33.27.14.1s.19.19.18.19a3.15,3.15,0,0,0,2.09,1.06l-.86-.23c-.24-.17.09.14.11.17a1.45,1.45,0,0,0,2.45-1Z" transform="translate(-195.15 -164.7)"/><path d="M291.72,544.2a36.76,36.76,0,0,1,5.16,14.23,27.23,27.23,0,0,1-.11,6.38,43.13,43.13,0,0,1-1.62,6.25.6.6,0,0,0,.87.66c2.06-1.09,3.17-3.4,3.86-5.53a14.69,14.69,0,0,0,.05-7.59,22.6,22.6,0,0,0-3.28-7.24q-2.38-3.61-4.76-7.26a.1.1,0,0,0-.17.1Z" transform="translate(-195.15 -164.7)"/><path d="M325.93,588.79c-2.05-3-4.24-6.08-7.38-8a11,11,0,0,0-10.44-.7c-6.36,3.06-6.82,11.35-6,17.43,1,8,3.22,16.17,8.75,22.27,4.85,5.34,13.13,9.33,20.32,6.51a11.86,11.86,0,0,0,7.2-9.28c.75-4.78-1.21-8.9-4.46-12.29a1.08,1.08,0,0,0-1.68,1.3c2.58,4.76,4.11,13-1.67,16.17-5.26,2.88-12.16-.48-16-4.2-4.86-4.69-7.1-11.31-8.32-17.79-.91-4.8-2.12-11.53,1.16-15.74,2.12-2.72,6-3.22,9.14-2.38a17.71,17.71,0,0,1,9.33,6.73s.1,0,.07,0Z" transform="translate(-195.15 -164.7)"/><path d="M333.8,588.91c-.36-2.91-1.81-5.75-3.18-8.31a28.21,28.21,0,0,0-5.25-7.28,10,10,0,0,0-7.1-3.09c-2.08.06-4.86,1.3-5.51,3.48-.13.45.42.93.83.64A7.55,7.55,0,0,1,316,573a7.85,7.85,0,0,1,2.82-.05,10.1,10.1,0,0,1,5.55,3.41,43.55,43.55,0,0,1,4.6,6c1.41,2.2,2.41,4.64,3.84,6.81.25.37,1,.28.95-.26Z" transform="translate(-195.15 -164.7)"/><path d="M527.88,842.2c-2.24-1.56-5.12.11-6.39,2.17-1.74,2.81-1.13,6.41.14,9.26a22.66,22.66,0,0,0,12.52,11.49c5.27,2.1,12.44,2.65,17.45-.46,4.53-2.81,6.23-8.9,4.4-13.81a11.71,11.71,0,0,0-6.32-6.6,11.17,11.17,0,0,0-8.89-.06.42.42,0,0,0,.11.81c4,.27,8.65,2.16,10.8,5.69a8.2,8.2,0,0,1-1.14,10c-3.25,3-9,2.66-13,1.59a21.32,21.32,0,0,1-10.69-6.88c-1.66-2-3.24-4.64-3.18-7.32a6.62,6.62,0,0,1,4.19-5.59.2.2,0,0,0,0-.34Z" transform="translate(-195.15 -164.7)"/><path d="M419.84,815.65a11,11,0,0,0,4.62-11.21c-.09-.5-.49-1.22-.41-1.7s1.09-.45,1.57-.48a22.64,22.64,0,0,1,4,.14c2.69.32,5.26,1.41,8,1.69.3,0,.38-.35.22-.54-1.87-2.22-5.13-2.95-7.88-3.26a20.22,20.22,0,0,0-4.33,0c-1.11.12-2.54.2-3.15,1.31s.16,2.39.42,3.51a9.92,9.92,0,0,1,.17,3.56,11.58,11.58,0,0,1-3.36,6.78c-.09.09,0,.25.14.18Z" transform="translate(-195.15 -164.7)"/><path d="M534.45,406c-.16,0-.57-.71-.74-.82s-.5-.22-.73-.38a12.09,12.09,0,0,1-1.4-1,7.52,7.52,0,0,1-2.07-2.71c-1-2.56-.18-5.51,1.34-7.68a7.09,7.09,0,0,1,5.65-3.2,4.36,4.36,0,0,1,2.63,1.08c1,.86,1.26,1.93,2.12,2.88l-.45-.78a5.47,5.47,0,0,1,.4,2.15,1.24,1.24,0,0,0,2.29.62,4.7,4.7,0,0,0,.71-2.05,6.27,6.27,0,0,0,0-2.16,7.59,7.59,0,0,0-2.4-3.71,8.73,8.73,0,0,0-8.84-1.58c-6.36,2.43-10,10.37-7,16.65a7.75,7.75,0,0,0,3.59,3.63,5.65,5.65,0,0,0,2.57.64,4.07,4.07,0,0,0,1.21-.06,1.37,1.37,0,0,0,.56-.32c.15-.13.3-.48.48-.52s.34-.59,0-.64Z" transform="translate(-195.15 -164.7)"/><path d="M379.45,339.48a2.19,2.19,0,0,1-1.24.25c-.42,0-.79.23-1.2.24a5.92,5.92,0,0,1-2.22-.53,7.88,7.88,0,0,1-3.84-3.8,4.18,4.18,0,0,1,.13-4.51,6.67,6.67,0,0,1,4.3-2.24,13.85,13.85,0,0,1,3.75,0c.64.07,1.27,0,1.9.11s1.34.22,2,.25a.49.49,0,0,0,.25-.91,13.59,13.59,0,0,0-1.91-.95,16.38,16.38,0,0,0-2.09-.93,13.56,13.56,0,0,0-4.34-.56,8.76,8.76,0,0,0-6.24,3.15,7.13,7.13,0,0,0-.7,7.57,10.39,10.39,0,0,0,5.39,5.46,5.24,5.24,0,0,0,3.93-.13,3.13,3.13,0,0,0,1.58-1,6,6,0,0,0,.59-1.45c0-.05,0-.09-.08-.07Z" transform="translate(-195.15 -164.7)"/><path d="M619.72,343c-1.37-4-6.84-4.69-10.46-4-4.51.89-8.29,3.89-11,7.49a53.7,53.7,0,0,0-7.36,14.25,40.29,40.29,0,0,0-2.08,8.15,29.57,29.57,0,0,0,.36,8.5A20.33,20.33,0,0,0,597.89,391a19.63,19.63,0,0,0,15.69,2c10.36-2.94,18-12.55,20.5-22.78a32.25,32.25,0,0,0-.77-17.61,28.59,28.59,0,0,0-3.95-8,15.91,15.91,0,0,0-3.05-3.49,35.32,35.32,0,0,0-3.55-2.24c-.85-.49-2.09.55-1.44,1.44a23.12,23.12,0,0,1,1.72,2.76c.53,1,1.18,1.87,1.78,2.81a38.08,38.08,0,0,1,3.08,5.73A28.14,28.14,0,0,1,630,364.79c-.68,8.75-5.64,17.33-13.31,21.73A18.14,18.14,0,0,1,604,388.79c-4.61-1-8-4.07-10.12-8.18a29.65,29.65,0,0,1-3.4-14.53c.13-5.2,2.64-10.17,5.18-14.6,2.44-4.25,6-9.16,10.9-10.63a14.18,14.18,0,0,1,6.88-.2c2.2.42,3.91,1.68,5.81,2.76a.33.33,0,0,0,.48-.37Z" transform="translate(-195.15 -164.7)"/><path d="M486.53,342.61c-.79.43-1.51,1-2.33,1.36a5.8,5.8,0,0,0-1.85,1.3,19,19,0,0,0-2.94,4.11,25.5,25.5,0,0,0-3,9.78c-.77,7.85,2.7,15.41,7.43,21.46a32.37,32.37,0,0,0,9,8.37c3.76,2.14,8.11,2.95,12.35,3.46,7.94.93,17.06-.8,21.5-8.16,2.59-4.29,2.28-9.57,1-14.23a61.88,61.88,0,0,0-2.6-7.08,42.31,42.31,0,0,0-3.92-6.48c-.74-1.12-2.79-.45-2.29,1,.31.87.47,1.76.74,2.63s.65,1.88.88,2.85c.45,1.95,1.08,3.86,1.55,5.8.83,3.41,2,7.31,1.07,10.81-1.73,6.6-9.49,8.4-15.39,8.16A35,35,0,0,1,497,385.8c-3.32-1.25-6-3.73-8.32-6.3-4.57-5-8-11.09-8.93-17.86a21.86,21.86,0,0,1,1.08-10.11,17.26,17.26,0,0,1,2.5-4.6,20.15,20.15,0,0,1,3.35-4.11c.12-.1,0-.28-.17-.21Z" transform="translate(-195.15 -164.7)"/></g><g id="Layer_10" data-name="Layer 10"><path class="cls-8" d="M397.58,551.13s-29.6,19.15-7,64.42,70.51,74.87,114,82.7S684,715.66,721.43,638.18c0,0,29.6-35.69,20.89-69.64,0,0-7.83-15.67-20-16.54,0,0-36.56,58.32-97.5,78.35s-128,5.22-165.41-25.25a280.85,280.85,0,0,1-50.66-53.4,7.1,7.1,0,0,0-11.15-.57Z" transform="translate(-195.15 -164.7)"/><path class="cls-9" d="M647.87,633s-3,54.84-6.1,65.73-18.28,22.2-25.24,24.37-15.24.87-15.24.87-12.62,0-19.15-7.4-6.53-17-6.53-17,2.18,14.8-5.22,20-45.71-1.74-51.8-3.92-12.19-17-15.67-24.81-9.14-47.44-9.14-55.28v-3.05s26.55,15.67,65.29,14.37c0,0,7.83,13.93,11.75,17,0,0,7.4-12.18,14.8-15.67C585.62,648.19,638.29,639.05,647.87,633Z" transform="translate(-195.15 -164.7)"/><path d="M600.3,723.81a226.12,226.12,0,0,0,.56-47.32,239.6,239.6,0,0,1,2,35.62c-.08,4-.24,7.94-.62,11.95l-2-.25Z" transform="translate(-195.15 -164.7)"/><path d="M553.72,721c-.45-12.49-.94-25-.74-37.5.46,12.48,1.62,24.93,2.73,37.37l-2,.13Z" transform="translate(-195.15 -164.7)"/><path d="M526.35,717.72c-4.88-16.75-8.45-34.16-7.76-51.68-.1,13.08,2.45,26,5.83,38.61,1.15,4.18,2.4,8.36,3.82,12.43l-1.89.64Z" transform="translate(-195.15 -164.7)"/><path d="M621.24,719.26a56.74,56.74,0,0,0,2.69-17.09,65.29,65.29,0,0,1,0,13.26,34.59,34.59,0,0,1-.77,4.47l-1.89-.64Z" transform="translate(-195.15 -164.7)"/><path class="cls-9" d="M652.66,629c-.41.15,15.23,22.64,20,23.51s15.67-31.78,14.8-46.14l-1.31-2.62S669.2,623,652.66,629Z" transform="translate(-195.15 -164.7)"/><path class="cls-9" d="M406.29,629.48s19.15-13.93,23.94-10.45,5.22,31.77,3.91,36.13C434.14,655.16,412.38,637.31,406.29,629.48Z" transform="translate(-195.15 -164.7)"/><path class="cls-9" d="M464.68,652.87c-4.95-6.51-14.17-21.24-12.48-38.86a1.32,1.32,0,0,1,1.95-1c5.9,3.18,25.14,13.94,29.18,21.28a67.82,67.82,0,0,1-12.38,19A4.12,4.12,0,0,1,464.68,652.87Z" transform="translate(-195.15 -164.7)"/><path class="cls-9" d="M699.67,655.16s-2.62-25.25.87-33.08,13.49-5.23,16.1-4.36,7,7,7,7S702.28,650.8,699.67,655.16Z" transform="translate(-195.15 -164.7)"/><path class="cls-10" d="M607.63,650c2.33-.31,4.79-.49,7,.41,1.92.8,3.43,2.37,5.29,3.28s4.55.89,5.59-.91a6.92,6.92,0,0,0,7.37,4.89c1-.14,2-.48,2.94-.05,1,.51,1.35,1.83,1.53,3a151.74,151.74,0,0,1,.81,40.22c6.47-8.33,7.37-19.59,7.84-30.13q.81-18.29,1-36.59L603.73,644c-6.42,1.47-12.91,3-18.82,5.88-4.71,2.32-14.27,8.52-13.86,14.52,4.77.1,12-6.74,16.63-8.77A73.64,73.64,0,0,1,607.63,650Z" transform="translate(-195.15 -164.7)"/><path class="cls-10" d="M508.62,654.73c-.42,1.36,2,1.09,3.11.16,8.54-7.38,21.48-6.23,32.27-2.9a37,37,0,0,1,10.11,4.48c4.74,3.26,8,8.19,11.17,13a36.12,36.12,0,0,0-5.59-22.78c-13.84.58-27.53-2.57-41-5.7-8.64-2-17.33-4-25.43-7.62a229.9,229.9,0,0,0,4.28,33.69c1.7,8.36,3,20.38,7.68,27.54,1.05-4.27-.08-9.41-.12-13.83A86.26,86.26,0,0,1,508.62,654.73Z" transform="translate(-195.15 -164.7)"/><path class="cls-10" d="M466.58,633.85c.44.73,1,1.53,1.85,1.64a5.15,5.15,0,0,0,1.23-.13,3.66,3.66,0,0,1,3.32,1.36l2.88,6.1c.21-1,1.79-1,2.35-.18a2.86,2.86,0,0,1-.11,2.85,44.64,44.64,0,0,0,3.73-8.28,5.54,5.54,0,0,0,.26-3.91,5.83,5.83,0,0,0-1.81-2l-10.21-8.44c-4.8-4-9.73-8-15.57-10.17a1.5,1.5,0,0,0-1.38,0,1.41,1.41,0,0,0-.41.77c-1.13,4.08-.6,12.54,3.63,12.54,3,0,1.53-2.9,4.9-.8C463.29,626.41,465.29,631.76,466.58,633.85Z" transform="translate(-195.15 -164.7)"/><path class="cls-10" d="M433.75,642.67a45.68,45.68,0,0,1-10.51,1.84c1.55,5,9.48,5.58,11.12,10.56-.66-5.67-1.82-9.84-5.27-13.23-2.21-2.16-4.14-5.36-6.54-7.45-1.71-1.48-3.41-3.42-3.24-5.68a7.06,7.06,0,0,1-5.09-1.72,27.49,27.49,0,0,0-7.9,2.56c1.06-.53,13.34,15.24,16,16.32s12.27.24,9.16-2.92" transform="translate(-195.15 -164.7)"/><path class="cls-10" d="M674.67,627.72c2-2.49,2.86-6.34,5.91-7.35a89.8,89.8,0,0,0-.67,13.81c4.69-8.51,5-18.66,5.24-28.37a46.34,46.34,0,0,1-10.72,7.13,17.87,17.87,0,0,0-4.39,2.53c-3.09,2.78-6.95,4.64-9.87,7.62-3.46,3.54-3.16,7.06-8.65,7.88.7-.1,4.51,3.62,5.63,4a8.19,8.19,0,0,0,5.32.46C667,634.69,671.67,631.1,674.67,627.72Z" transform="translate(-195.15 -164.7)"/><path class="cls-10" d="M701,643.42l.48-1.6a51,51,0,0,1-1.77,7.71c-.11-5.66-1.13-12.23.09-17.76A30.17,30.17,0,0,0,703.3,645a105.36,105.36,0,0,0,18.51-22.61c.69,1.61-.34,3.39-1.33,4.83A285.78,285.78,0,0,1,697.61,656a66.8,66.8,0,0,0,2.94-19.35C700.55,637,701.05,643.06,701,643.42Z" transform="translate(-195.15 -164.7)"/><path class="cls-11" d="M444,601c7.76,8.72,15.36,17.85,25.14,24.22,12.18,7.94,26.8,11,41,13.92l40.52,8.29a37.53,37.53,0,0,1,7.61,2.13c5.85,2.59,9.91,8,13.71,13.1,1.31-6.06,6.69-10.55,12.5-12.73s12.11-2.5,18.28-3.22c41.37-4.86,79.9-29.86,101.2-65.66,1.55-2.59,3-5.55,2.36-8.49a186.56,186.56,0,0,1-111.5,67.66A138.63,138.63,0,0,1,565,642.75c-11.84-.39-23.53-2.68-35.12-5.16-17.5-3.77-35.12-8.09-50.92-16.51-27.61-14.73-47.21-40.53-67.65-64.23-2.05-2.37-4.28-4.84-7.29-5.74-7.5-2.23-6.62,3.95-2.78,7.48,4.9,4.49,9.9,8.84,14.71,13.42Q430.55,585.92,444,601Z" transform="translate(-195.15 -164.7)"/><path class="cls-11" d="M398.62,613.79c4.94,11.9,12.08,23,21.76,31.51a127.41,127.41,0,0,0,15.13,11q7.74,5,15.59,9.86c12.48,7.73,25.35,15.24,39.53,19.06,3.43.92,7.05,1.68,9.9,3.81s4.66,6.18,3,9.34c-24.12-7.89-48-17.31-69-31.51s-39.19-33.59-48.49-57.2c-1-2.64-7.25-23,.64-22.43C391.27,587.49,397,610,398.62,613.79Z" transform="translate(-195.15 -164.7)"/><path class="cls-11" d="M700.62,651.59a51.09,51.09,0,0,0,7.75-9.06c2.21-3.47,6.29-6.43,8.28-10C722.44,622,732.33,614,737.48,603.2c1,1.31.37,3.23-.36,4.74-10.58,22-23.47,43.21-40.91,60.28a83.58,83.58,0,0,1-10.46,8.89,79.43,79.43,0,0,1-21,10c-5.32,1.74-13.55,5.38-19,4.62,3.5-7.43,19.26-11.48,25.94-15.33C683.1,669.8,691.14,660.84,700.62,651.59Z" transform="translate(-195.15 -164.7)"/><path d="M376.43,550.08c5.33-9.85,18.83-12.45,27.86-5.94,3,2.13,5.2,5,7.24,7.75A206,206,0,0,0,438.65,582a112.75,112.75,0,0,1-29.53-28.34,32.27,32.27,0,0,0-6.5-7.24c-7.95-6.09-19.79-4.38-26.19,3.65Z" transform="translate(-195.15 -164.7)"/><path d="M687.06,579.71c23.44-.62,24.84-31.33,43.09-40.57,6.08-3.48,15.56-3,18.85,3.92a11.2,11.2,0,0,0-8.52-4.46c-6.66-.27-12.4,4.16-16.53,9-6.63,7.81-10.35,17.85-17.81,25.1-4.92,4.84-12.12,8.44-19.08,7Z" transform="translate(-195.15 -164.7)"/><path d="M474.25,718.43c50.35,19.93,107,42.22,159.57,17.13a89.07,89.07,0,0,0,19.78-12.94,82.81,82.81,0,0,1-19.1,14.25C582.71,764.48,523,742.1,474.25,718.43Z" transform="translate(-195.15 -164.7)"/><path class="cls-4" d="M591.71,743.23C612,742.41,632,737,650.6,728.65a110.67,110.67,0,0,0-15.52,6.72c-4.45,2.5-8.56,5.62-13.17,7.81-6,2.86-12.71,4-19.34,4.71-20.27,2.07-40.72-.28-60.46-5-9.82-2.36-19.49-5.32-29-8.62-5-1.71-9.87-3.53-14.76-5.41-3.8-1.46-10.56-2.88-13-5.82,6.16-1.62,19.29,4.7,25.82,6.55,8.88,2.53,17.79,5,26.77,7.19C555.51,741,573.56,744,591.71,743.23Z" transform="translate(-195.15 -164.7)"/><path class="cls-4" d="M719.29,553.07c2.27-2,3.22-5.09,5.21-7.35,2.55-2.89,6.47-4.08,10.18-5.14a26.14,26.14,0,0,1,7.24-1.34,8.77,8.77,0,0,1,6.63,2.71c-5.73.91-11.53,1.84-16.87,4.1s-10.28,6-12.76,11.28A24.26,24.26,0,0,1,735,538.4c3.27-1.07,7-1.36,10,.32" transform="translate(-195.15 -164.7)"/><path class="cls-4" d="M400.24,548.92c.92.64,2,1.37,3.07,1,1.37-.46,2.39-2.62,3.63-1.86a9,9,0,0,0-3.28-4.54c-2.78-2-6.45-2.21-9.87-2-3.88.25-10.94.94-12.64,5C387.74,543.84,394.39,544.84,400.24,548.92Z" transform="translate(-195.15 -164.7)"/></g></g></svg>