<svg xmlns="http://www.w3.org/2000/svg" xmlns:xlink="http://www.w3.org/1999/xlink" viewBox="0 0 642.49 659.79"><defs><style>.cls-1{fill:#fcdfd4;}.cls-2{fill:#ff6940;}.cls-10,.cls-11,.cls-12,.cls-13,.cls-3,.cls-4,.cls-5,.cls-6,.cls-7,.cls-8,.cls-9{fill-rule:evenodd;}.cls-3{fill:url(#GradientFill_13);}.cls-4{fill:#fff;}.cls-5{fill:#f7d7d8;}.cls-6{fill:url(#GradientFill_9);}.cls-7{fill:url(#GradientFill_12);}.cls-8{fill:#fc000e;}.cls-9{fill:url(#GradientFill_2);}.cls-10{fill:url(#GradientFill_11);}.cls-11,.cls-12{fill:#e91c24;}.cls-11{stroke:#000;stroke-miterlimit:10;stroke-width:3px;}.cls-13{fill:url(#GradientFill_2-2);}</style><linearGradient id="GradientFill_13" x1="451.67" y1="484.21" x2="679.13" y2="704.71" gradientUnits="userSpaceOnUse"><stop offset="0" stop-color="#a00400"/><stop offset="1" stop-color="#c40008"/></linearGradient><linearGradient id="GradientFill_9" x1="118.94" y1="447.3" x2="465.96" y2="665.55" gradientUnits="userSpaceOnUse"><stop offset="0" stop-color="#e7d4d7"/><stop offset="1" stop-color="#eb777a"/></linearGradient><linearGradient id="GradientFill_12" x1="217.29" y1="336.02" x2="461.63" y2="929.54" gradientUnits="userSpaceOnUse"><stop offset="0" stop-color="#e90c14"/><stop offset="0.18" stop-color="#e90c14"/><stop offset="0.37" stop-color="#a00300"/><stop offset="0.53" stop-color="#c20007"/><stop offset="0.72" stop-color="#ea0009"/><stop offset="1" stop-color="#fff"/></linearGradient><linearGradient id="GradientFill_2" x1="672.16" y1="401.49" x2="817.64" y2="591.59" gradientUnits="userSpaceOnUse"><stop offset="0" stop-color="#f1404c"/><stop offset="1" stop-color="#eb777a"/></linearGradient><linearGradient id="GradientFill_11" x1="453.32" y1="302.56" x2="596.76" y2="817.99" gradientUnits="userSpaceOnUse"><stop offset="0" stop-color="#ef4753"/><stop offset="0.18" stop-color="#e90c14"/><stop offset="0.37" stop-color="#a00300"/><stop offset="0.53" stop-color="#c20007"/><stop offset="0.72" stop-color="#ea0009"/><stop offset="1" stop-color="#fff"/></linearGradient><linearGradient id="GradientFill_2-2" x1="437.21" y1="531.58" x2="464.8" y2="643.26" xlink:href="#GradientFill_2"/></defs><g id="Layer_13" data-name="Layer 13"><path d="M630.24,724.2" transform="translate(-194.23 -207.74)"/></g><g id="Layer_5" data-name="Layer 5"><path class="cls-1" d="M680.14,425.37c-4.08,1.83-21.15,11.46-32.9,48.32-3.59-12.83-32.36-12.46-46.23-25.2-17.88-16.34-14.53-37.35-30.76-39.3l.11-.07s14.56-11.88,22.82-26.82c0,0-4.75,13.08,9.73,19.17,14.32,6,71.73-33,157.83-118.37-10.86,11.36-69.72,73.3-92.45,105.68C644.9,422.06,645.81,436.39,680.14,425.37Z" transform="translate(-194.23 -207.74)"/><path class="cls-1" d="M642.41,601.71c-1.75-2-10.23-10.22-33.49-10.68,6.78-4.27,1.63-20.78,6.59-31,6.36-13.11,19-14.78,17.39-24.47,0,0,9.39,6.41,19.42,8.61,0,0-8.35-.49-9.38,8.89s31.34,35.68,95.29,70.67c-8.41-4.32-54.2-27.62-76.77-35.16C638.27,580.84,630.18,583.82,642.41,601.71Z" transform="translate(-194.23 -207.74)"/><path class="cls-1" d="M383.26,509.42c2.66.37,14.44.95,32.23-14C413.2,503.06,428,512.1,430.93,523c3.86,14.05-4.58,23.66,3.05,29.86h-.08s-11.21,1.37-20.21,6.32c0,0,6.61-5.13,1.2-12.87s-47.08-6.18-118.24,9.62c9.17-2.29,59-14.93,80.91-24.12C400.13,522.39,404.26,514.82,383.26,509.42Z" transform="translate(-194.23 -207.74)"/><path class="cls-1" d="M434.51,475.25c24.36-14-107.31-200.88-107.31-200.88S496.53,470.56,449,377.86c29.58,27.83,50.58,7.2,41.2-13.71,23.88,35.67,52.24,30,52.24,30l-42.61,26.36-47.55,32.22Z" transform="translate(-194.23 -207.74)"/><path class="cls-1" d="M593.72,634c-22.25,9.16-43.45,39.15-43.45,39.15s6.64-18.63.67-24-32.16,39.71-32.16,39.71,15.53-44.41,1.25-54.59c-13.46-9.56-95.71,138.84-104.59,154.93,7.8-15.63,78.23-156.77,68.81-168s-20.61,11.69-21.84,14.19c1.06-2.8,9.14-26.14,2.38-30.9S436.24,642.92,434,647.26c1.5-5.13,20.58-69.53,12.74-87.28a82.4,82.4,0,0,0,24.8,24.72c3.08,2,5.89,1.82,8.93,3.11,32.42,13.64,58.94-6.89,58.94-6.89v.36l.17.18C538.44,607.11,563.9,631.9,593.72,634Z" transform="translate(-194.23 -207.74)"/><path class="cls-2" d="M695.42,432.86C578,489.72,573,341.23,573,341.23c-45.37,115-213.22,101.53-213.22,101.53,34.39,13.36.94,29.55.94,29.55,86.79,23.4,68.79,124.18,68.79,124.18,125.12-34,155.94,107.1,155.94,107.1,13.24-50.44,58.59-15.94,58.59-15.94-67.6-53.65-26-175.56,57.19-191.56C639.49,481.19,695.42,432.86,695.42,432.86Z" transform="translate(-194.23 -207.74)"/><path class="cls-1" d="M564.68,425.36c-48,61.79-166.32,39.09-166.32,39.09,87.07,33.09,68.44,102,68.44,102C550.39,543.27,580,639.8,580,639.8c-18.3-41.4.18-136.79,68-160.45C574.68,502.13,564.68,425.36,564.68,425.36Z" transform="translate(-194.23 -207.74)"/><path class="cls-3" d="M756.38,537.59s8.52,15.76.52,28.42-13.44,10.85-18.09,8-.51-9.55-12.4-12.91-14.2-2.33-18.34-1.29-36.42,16.53-38.49,28.67-.78,24.54-8.78,26.35-9-7.49-19.12-6.71-11.36,5.68-9.3,16S636,642,627,646.86s-15,6.21-15.76,1.56,6.71-17.83.26-21.71-24.54-8.26-20.67-15.24,28.67-5.42,34.1-14.72-3.62-10.59-5.42-16.79,0-10.6,4.65-11.37,17.3,2.33,21.44-5.17-6.46-26.35-6.2-36.94-.52-19.12-6.2-20.93S614,503.48,615.59,497s17.44-6.72,19.63-14.86,3-15.89-.12-19-23.77-3.62-29.71-1.3-11.63,14.21-22.48,17.57-23,2.84-22.73-1.55,12.66-14.72,2.33-23.25-23-4.65-24.55-17.82,16.28-19.38,22.22-16.54,5.94,8.53,5.94,15.24,8.27,17.06,23.51,16,16.53-27.64,12.4-34.36,18.34-9.82,18.34-9.82,17,15,28.68,8,13.17-20.15,19.37-26.09,9.82-10.85,13.43-21.7,18.34-18.34,24.8-12.92-9.56,15-6.45,23.51,8,14.47,12.14,14.47,19.37-10.59,30-8.53,18.09,14.47,14.73,23-8,19.64-17.83,20.67-5.42-8-18.85-8.78-16.28,4.9-16.54,14.46,8.27,44.56,19.12,53.86,35.65,37.2,33.45,50.26ZM645.07,659.37c6.19.52,8.52-7.24,8.26-12.14s-1.81-15-9.3-12.92-4.91,24.28,1,25.06ZM621.55,772.52c3.62,7.24,9,21.71,7.49,30s-8,17.83-.52,18.6,13.18-7.49,19.38-7.75,14-1,15.5-10.33-8-27.39-7.75-34.62,28.16-33.84,35.91-39.78,8.78-17.05,2.58-20.15-9.3-9.3-6.46-19.12S713,670.22,718.42,672s-3.35,10.34-3.1,14,13.7,11.37,21.7,5.69,5.17-23.51,2.85-31.52-2.07-21.7,2.84-30,7-1.8,15.5-7,9-13.44,6.71-18.6-6.71-2.58-13.17.26-11.37,8.26-12.92,13.43-6.2,18.86-9,17.05-5.42-10.08-10.85-9-7,5.68-13.18,8.52-6.45-3.1-9.29-4.39-14-4.13-21.19,2.33-4.39,25.31-9.3,33.84-32.29,10.07-36.16,7.49-13.69-18.08-19.64-15,5.17,26.86,6.46,31.51-4.65,31-9,34.88-9.3,4.13-6.72,14,12.4,16.53,20.67,33.06ZM223.3,534.77s16-16,30.48-4.14,4.14,16-2.06,21.19,3.09,8.78,15.5,14.46,18.08,8.78,17.56,18.09-9.3,9.3-5.16,19.11,7.23,17.57-2.59,25.32-24.92-.77-27.64.9-11.5,20.93-7.23,26,16.14,4.78,19,8.65-3.37,16.53-1,19.89,12,5.82,13.95,4.65,13.69-27.77,13.95-39.65,3.1-29.71,15-34.1,44.7,4.39,52.45,18.34,1.8,23.25,2.32,27.9,20.41,9.82,26.35,6.72,13.18-13.69,8.79-24.54-9.31-29.71,1-34.36,20.41-11.11,21.7-18.86-9.56-24.28-20.15-27.9S336.84,461.91,310,449.52s-95.06,10.85-86.67,85.25Zm176.06-40.83s-7.23-22.22,8.79-36.68,24.28-11.37,29.45-7.23,10.07,7.49,16,3.35,6.72-20.92,4.65-22.47-15.24.77-20.66-1.29-27.13-28.68-28.16-37.46,1.81-15.24,9-19.89,9.82-6.2,8.78-14.21-1-19.38,7-23.25,27.9-11.11,35.13-3.36.77,24.54,1.81,31.26,7.49,17.31,11.88,17.82,28.16-8.78,31.52-1-1,15.24,3.62,18.6,13.69,4.39,19.11-.26,11.62-17,4.13-27.9-20.15-48.05-14.72-52.18,20.67-10.34,22.22-17.31-11.89-19.12,0-24.54,15,3.61,24.8.77,8-25.06-.26-31.77-135.11,8.52-175.4,35.38S296.81,363,309.21,392.92s37.2,129.17,90.15,101Zm-33.7,243.2c.65,41.58,59,93.77,88.49,101s63.54-10.59,73-14.33S555.67,837.5,559,834.4s1.29-6.72,3-9.95,17.57-15.37,18.34-18.86-3-4-7.49-5.29-5.69-14.86-18.08-12.79-16,12.91-26.87,12.4-24.28-8.27-25.83-25.32,2.58-25.83,19.11-28.41,30.23,2.32,30.23-8.53,6.71-13.17,10.85-16.79,6.2-17.82.51-42.36-26.61-31-29.7-36.43,2.58-22.22-2.85-29.71-30.48-7-35.65-4.13-.77,13.43-5.94,18.6-12.4-3.88-15.5-2.07-6.2,12.92-5.42,18.34,4.39,9.56,16.79,15.24,17.56,16,17.56,28.42-8.78,16.53-15.75,19.12-10.08,5.68-11.63,11.36-3.61,14.21-17.82,15-22.48-8.53-32-12.14-23-18.09-30.48-15-3.1,17.57-5.43,24S365.66,737.14,365.66,737.14Z" transform="translate(-194.23 -207.74)"/><path class="cls-4" d="M583.6,399.61c-.26-8-5.27-24.48-24.54-28.42s-25.06-1-31.78,1.55-15.5-11.88-15-17.82,15.24-18.08,20.41-21.19,13.95,0,18.6-9.3,1.29-18.85,11.88-25.57,22.48-1,25.32,7.75-7.75,9.56-2.33,31.26S605.56,391.86,583.6,399.61Z" transform="translate(-194.23 -207.74)"/><path class="cls-4" d="M556.48,506.17c-2.06-2.84,6.2-17.05,20.93-19.64s17.82,2.07,15,8.27a15.13,15.13,0,0,1-15.5,8.78c-6.2-.77-7.49-1.55-11.62-.51S559.07,509.78,556.48,506.17Z" transform="translate(-194.23 -207.74)"/><path class="cls-5" d="M535.05,679.51c3.1-8,14.62-6.43,19.37-8.79s9.16-1.69,16.21-.72,5.23,12.6,10.66,12.09,29.71-3.36,20.15,10.07-18.6,7.49-23.25,6.2-7-12.91-12.4-14.21-17.57,8.53-23.51,8S531.43,685.45,535.05,679.51Z" transform="translate(-194.23 -207.74)"/><path class="cls-4" d="M584.91,594.25s-8,11.89-20.41,10.86-15.24-15.5-11.88-22.22,10.07-11.88,12.14-19.12-1-12.4-3.88-18.6,5.69-9.56,5.69-9.56,12.91,4.91,14.46,15.24-2.58,22-2.06,29.45S584.91,594.25,584.91,594.25Z" transform="translate(-194.23 -207.74)"/><path class="cls-6" d="M297.65,664.52s10.85-10.85,12.4-16.28,7.49-8.78,12.14-5.42-.51,18.6,10.59,24.8,19.12,1.81,22.74,4.65,1.29,10.33,5.42,15.76-.26,12.14-1.81,17.56,3.88,25.84,19.12,33.07,28.15.78,33.58-5.17,7-18.6,3.88-27.38S418,688,424.23,684.93s4.65,3.1,12.92-2.84,11.62-18.6,19.11-21.7,18.6,1.8,16.28,14-9,7.75-20.67,12.14-17.82,4.39-15,11.36,13.69,5.69,13.69,17.31-7.75,11.63-17.57,20.41-14.2,20.41-5.42,29.71,16.53,7.49,18.34.26,3.62-25.06,12.92-27.9,17.82,14.73,18.34,21.44-10.85,16.28-17.57,23.25-12.4,23.25-9.82,31.26,13.95,13.95,30.23,13.17,18.86-1.29,24.8-6.45,12.4-10.34,18.08-10.08,7.75,13.43,6.46,18.86,5.17,4.91,8.53,10.07-.52,14.47-7.75,15.24-15-8-26.87-10.33-32.29.78-43.66,3.36-29.71-15.5-37.2-21.44S400,789.55,374.11,780.76s-47-44.43-76.46-116.24ZM541.22,757.8c2.32,4.13-7.24,13.17-1.81,16s24.28-2.84,34.1-.25,8.52,17.3,12.91,23.25,14,9.55,22.74,7.49,15-12.92,18.06-17.22,16.55-9.65,19.4-9.39,2.32,8.52,9.3,9.3,33.84-5.43,36.94-14.21S704.48,747,715.07,742,733.16,755,736.77,755s12.66-6.2,19.12-11.37-1.81-10.85,8.27-19.12,14.72-9.81,20.15-15.76,8-25.83,3.35-31.25-15.75-8-27.12-4.14-9,22.48-9.56,25.32-4.91,14-11.62,15.5-12.14-5.17-19.89-3.88-6,12.15-14.73,15-30.48-8.79-36.68-13.69-3.62-13.7-2.07-18.35,3.36-10.59-12.14-14.2-26.35,5.42-30.23,10.07-1.8,25.58,3.62,30,19.38,10.59,20.41,17.31-4.65,15.5-12.4,20.41-19.63,8-29.45,5.68-20.41-15.76-26.09-16.79-9.82,7.49-12.92,4.9-4.65-6.2-10.33-8-15.76-23.76-20.41-23.76-9.56,7.49-11.11,14S537.6,750.05,541.22,757.8Z" transform="translate(-194.23 -207.74)"/><path class="cls-7" d="M261.74,723.93c4.13,10.85,2.06,21.44,11.11,33.33s25.32,17.82,42.11,18.08,39.52,6.46,56.83,15.24,31.77,25.58,42.11,37.2,23.76,24.54,39,25.83,23.51-5.94,34.36-6.71,26.09,4.13,31,7.49,5.17,7.75,11.63,8,16.27-12.66,16-17.31-10.22-8.38-10.22-8.38,6.09,9-5.54,10.83-13.95-1.42-18.47-5.42-6.07-7.88-13.95-7.75-29.84,7.49-41.85,6.2-27.51-22.48-32.68-29.71-42.23-37.2-52.05-43.92S296.48,714.37,261.74,723.93Z" transform="translate(-194.23 -207.74)"/><path class="cls-8" d="M261.74,723.93c-2.2-7-13.83-11.1-12.28-15s10.59-9.3,18.6-6.46,18.35,14.21,28.94,8.27,5.16-16.79-1-24.8-7.93-24.77,6.37-26.46,8.87,7.08,22.57,14.32,16.53,5.68,23,14.46-2.07,18.86-2.59,28.68,5.43,18.08,17.83,24.54,22.73,8,26.87,19.12-9.3,11.62-16.28,10.59-11.88-8.27-26.86-7.24-29.19.78-41.34-1.29S271.16,733,261.74,723.93Z" transform="translate(-194.23 -207.74)"/><path class="cls-4" d="M264.19,613.62c-8,1.55-20.41-22.47-19.63-27.64s5.16-18.08,8.52-18.6,12.4,6.46,11.89,10.33-4.14,5.69-1.3,11.63S277.37,609.49,264.19,613.62Z" transform="translate(-194.23 -207.74)"/><path class="cls-4" d="M483.26,450.36c-5.95-.52-12.15-19.38-11.11-24.54s4.13-9.82,3.61-14.21,5.94-7.23,9.82-5.69,3.62,12.92,12.14,13.95,11.88-9,18.08-8.78,9.05,17.83,4.4,26.35-11.37,7.49-15.24,4.39-.52-8-7.5-8.26S492.81,452.17,483.26,450.36Z" transform="translate(-194.23 -207.74)"/><path class="cls-9" d="M660.21,534.57c5.94,3.36,17.83-1,23.51-10.85s8.79-25.57,11.11-38.49-.19-26.47,5.17-33.07,30.48-10.33,39.52-9,12.92,18.6,25.58,19.38,22.21-22.22,18.08-39.27-10.33-30.49-25.32-28.68-21.18-2.32-22.47-12.65,8.78-9,8-15-12.15-17.31-10.08-22,10.59-9.81,17-6.2,8.78.78,11.63,11.37,4.39,19.12,9.55,21.18,10.08-2.58,10.08-2.58,11.11,7,13.43,20.67-1.29,27.9,8.79,40,23.5,36.42,21.95,61.74-5.68,43.91-3.61,57.35,10.08,31.77,9.82,43.4-9.82,39-25.84,45.46-32.55-11.36-31-18.08,22.22-6.46,26.35-18.6-2.58-41.59-10.33-46.5-28.68-9-48.05-6.72-31.78,20.67-29.71,25.06,11.88,4.65,13.18,10.34-8.53,15.5-19.64,16-19.63-2.84-26.09-8-4.65-20.15-9.56-28.15S645,535.6,660.21,534.57Z" transform="translate(-194.23 -207.74)"/><path class="cls-10" d="M216.17,586.48s-3.1,14.72-10.08,16.27S192.92,556,194.47,538.94s14.46-52.7,18.08-68.71,9.81-56.84,18.6-79.05S254.4,349.07,282.82,331,368.07,270,378.4,263s34.87-30.22,55.28-37.46,43.66-1.29,63.3-4.39,35.13-13.95,49.34-13.43,30.74,1.29,43.91,4.65,33.59,16,38,23.77.26,17-5.68,17.3S614,245,600.83,244.7s-80.56-5-134.17,11.36S334.23,336.41,305.29,359.14,233.48,462.21,227.8,485.72s-38.75,74.91-11.63,100.76ZM583.46,850.65c.38-2.19-8-6.07-6.33-11.36s10.33-2.2,13.69-.39,11.11,17.05,8.65,23.38-8.78,5.55-13.82,4.65-10.85-5.56-10.72-9.3,9.17-4,8.53-7ZM781.63,368.72c5,4.27,7.76,17,4.92,25.3s-3.1,22.73,3.61,30.74,18.86,19.38,23.51,34.1,6.46,28.68,5.94,36.94-2.84,31-4.91,40.05,3.62,18.6,5.43,26.61S824,578,826.07,587s.8,12.06-2.58,25.06-7.3,18-7.3,18,15.82-15.65,18.66-27.79,2.59-31-2.84-44.18-.77-35.39.78-44.17,5.94-31.78,2.84-36.68-6.72-13.18-7-17.83S825.3,446.46,818.32,439s-12.66-19.11-14.47-26.35-.25-23.25-2.58-29.71S788.36,361.73,781.63,368.72Z" transform="translate(-194.23 -207.74)"/><path class="cls-11" d="M216.17,586.48s-16.27-6.73-16.27-34.11,20.15-78.53,24.28-99.72,16.54-65.1,34.1-84.21c16.86-18.35,64.16-49.06,86.22-64.75-3.37,9.32,3.42,4,18.92,7.53S423,295.12,431,296.75s4.48,10.72,8.6,13.91c-3,4.28-5.87,8.27-8.47,11.41C420,335.5,408.63,333.18,397,339.63s-21.44-3.36-29.19-4.13-35.65,25.84-35.65,36.17,9,24,20.41,25.05,13.43-4.13,22.73,2.33,22,18.08,34.88,18.08,20.41-6.2,23.25-13.95,7-22.47,15.76-26.6,11.88,0,10.85,3.87-4.65,12.14-3.62,20.15-3.88,9.82-12.4,14.47-42.37,15.76-53.73,25.57-13.44,24-7,33.07,14.73,10.07,20.93,6.72c3-1.61,5.34-5.17,7.43-8.56,10.22.92,33.41,2.46,35.08,13.16s-3.88,30-11.37,38.23-31,17.31-41.33,21.7-28.68,32-34.36,32-16.53-4.13-19.38-8.52.26-14,0-19.38-5.68-12.4-15.12-11.83c-7.24-.52-15,2.84-19.9,1s-10.07-16-6.2-23.51a28.75,28.75,0,0,0,2.59-20.66c-1.55-5.69-10.85-16.79-16.79-17.57s-42.89,4.65-46,10.08-.25,42.36-7.49,55.54-14.72,20.92-17.31,27.9,6.2,10.59,2.07,16.41ZM545.22,256.6c-9,4.33-15.31,12-16.21,20.52-1.29,12.14-4.65,31-20.66,33.32s-14.47-9.3-15.25-14.46a31.94,31.94,0,0,0-1.45-7.5c1.59,3-.73-24.07,11-26.6s18.08-.52,19.89-9.3,22.67,4,22.67,4Z" transform="translate(-194.23 -207.74)"/><path class="cls-12" d="M344.5,303.69l2.64-1.9c20.67-15,56.32-53.22,80.6-58.9s43.92-4.14,69.24-8.79,55.8-20.14,81.63-12.91,35.73,14.87,29.36,24.68-12.48,17.71-20.06,16.52-14.21-10.59-29.71-9.3a37,37,0,0,0-13,3.51h0s-18.79,4.24-20.6,13-3.1,23.51-16.28,26.35c-10.31,2.22-15.1-4.48-16.69-7.5-.19-.46-.4-.92-.64-1.38h0c-2-3.67-6.18-6.85-15.72-7.13-13.47-.4-25.72,16.66-35.71,30.7-4.12-3.19-4.46-7-11.57-8.48-8.78-1.81-56.83,28.15-77.24,23.51-10.58-2.42-9.63-12.68-6.26-22Zm339.22,220c2.94-5.08,5.19-11.75,7-18.8,2-3.42,12.64-13.5,19.48-14.79s13.69.64,14.08,5.68-4.13,8-8.78,13.18-9,22.73-12.4,26.86-12,4.27-16.92-.13-2.46-12-2.46-12Zm55.8-80.6c9,1.29,12.92,18.6,25.58,19.38s22.21-22.22,18.08-39.27-10.33-30.49-25.32-28.68-21.18-2.32-22.47-12.65,8.78-9,8-15-12.15-17.31-10.08-22,10.59-9.81,17-6.2,8.78.78,11.63,11.37,4.39,19.12,9.55,21.18,10.08-2.58,10.08-2.58c5.93,4.15,11.89,15,13.43,20.67.11.63.21,1.27.29,1.91v0h0c.51,7.33-2.67,24.47,1.78,32.67,3.65,6.72,10.31,13.24,16.46,19.81,6,10.7,11.22,24.29,12.18,38.65a121.71,121.71,0,0,1-3.32,20.59c-5.68,23-19.12,40.81-23.77,39.78s-10.07-11.63-13.69-16-12.4-3.87-16.53-6.45-11.37-18.61-15-25.84-1.3-17.31-2.07-30.22-11.89-21.18-11.89-21.18Zm-79.31,91.45c-5-8.53-19.76-14.09-27.51-16.15s-19.63,1.67-23,9.17,4.65,20.53,10.46,18.6,11.24-6.07,16.54-5.43,14.08,6.72,22.08,15.76,11.33,30.1,18.86,35.39,21.42,6.67,21.42,6.67-10.57-2-16.25-11.19-4.13-24.8-4.39-29.19-5.43-4.13-14.21-11.11-4-12.52-4-12.52Zm.12-229.38c1.55-4.65,24.28-.78,31-7.23s12.14-10.85,20.15-6.2,8.52,27.12,3.61,35.9-16.53,6.21-18.6,1.81,1.81-13.17-1.29-16.27-29.45,8-33.84,8-5.17-11.89-1-16Zm-43.14-36.55c-12.92,7.49-14,18.34-6,26.86s28.42,20.41,31.26,17.83,3.88-12.92-.77-17.57-16.28-4.91-21.19-10.85,2.33-16-3.35-16.27Zm63-.26c-3.88-.52-7-16.54-2.59-20.93s24.55-7,26.61-1.29-15,21.57-24,22.22ZM583.6,399.61c.65,12.14,7.49,20.54,13.69,22.47s18.34,4.14,25.06-1.55,20.8-23.12,29.32-23.38,16.41,6,17.7,10.85.64,13.05,9.43,12.53,15.37-8.52,12.91-13.17S682,398.7,675.44,390.7s-1.81-21.32-1.68-23.38-2.71-6.07-10.08-6.85-8,3.23-9.55,6.2-8.79,14.6-15.76,14.21-13.82-5.68-12.79-10.2,18.86-14.34,20-23.64-7.49-17.05-13.82-16.41-15.63,2.85-24.93,1.81S593,320.82,589,310.08s-18,.79-18.42,6.86-2.33,14.73-8.4,16.66-24.54,5.56-25.83,9.3-4.14,17.31,2.32,18.35,28.8-3.88,38,4.26,5.94,23.38,7,34.1ZM299.78,513.38a28,28,0,0,0,1.51-19.29c-1.5-5.51-10.43-16.49-16.37-17.27a21.93,21.93,0,0,0-4.5-.23c.58-3.34,2.46-7.31,8-8.58,10.08-2.32,27.9,10.34,29.71,18.09,1.59,6.82-12.8,16.77-18.31,27.28ZM333.7,379.64c3,8.32,9.22,15,19.19,15.92s15.32-2.22,21.31,1.94,6.76,5.72,9.94,8h0c-9.11-6.1-28.13.67-32,8.68s5.94,22.73-2.32,24.54S332,430.24,325,421.71s-12.66-31.52-6.2-33.84,4.13,9.3,8.52,8.52C331.05,395.74,335,388.17,333.7,379.64Z" transform="translate(-194.23 -207.74)"/><path class="cls-4" d="M254.8,461.3c-7.75,1.55-20.15-16.28-18.86-28.42s8.53-27.64,12.14-32.29,14.21-16.79,19.63-27.38,8-13.44,15.25-13.95,21.27-1.64,23.76,16-16.27,27.9-23.76,31S265.13,422,263.84,435.21,261.77,459.75,254.8,461.3Z" transform="translate(-194.23 -207.74)"/><path class="cls-13" d="M411.67,471.87c2.28-3.69,4.24-7.18,6.26-7.72,3.87-1,10.07,3.1,16.53,2.07s14.73-3.62,22.73,3.1,7,12.4,15.76,15.75,13.44,2.59,18.35-.25,21.44-11.89,29.19-8,6.45,26.35-.52,32.29-22.22,5.17-27.12,11.88-.52,22.74,7.23,28.16,14.72,12.14,14.72,17.05-13.95,26.87-21.18,26.87-17.57-7.75-27.38-4.91-11.89,15-20.67,14.47-14.21-7.75-13.69-11.89,4.39-17.05-5.43-20.41-18.34-.25-22.21,4.91-14.47,11.63-22.48,9.82-9.56-4.91-13.95.52-3.87,15-5.42,27.64-8.53,22-18.09,25.57-14.47,3.62-16.27-.51,6.2-19.9-3.62-27.13-24.8-15-25.32-23,9.3-13.43,16.28-14.47,14.21-7.49,17.57-15-.52-20.92-7.75-21.44c9.44-.57,18.74,5.11,19,10.54s-3.88,11.37-1,15.76,10.07,8.52,15.75,8.52S380.1,545,390.43,540.57s31-12.41,38.49-20.67,13.17-18.08,11.37-29.71c-1.52-9.76-18.4-17.4-28.62-18.32ZM535.05,679.51c.77-7.75,18.34-33.85,32-31.52s10.59,16.53,15.76,20.15,19.12,0,22.47,7.75-3.87,16.27-3.87,16.27-10.59-1.55-17.31-1.8-12.49-11-17.57-13.7-28.41,7.49-31.51,2.85Zm31.52-143.9c10.59-4.13,19.11,3.1,21.18,11.37s-2.84,15.24,2.07,20.93,13.43,9,11.88,17-14,14.95-26.35,13.18-12.92-14.21-7.23-21.7,9.3-16.27,6.71-23S562.74,538,566.57,535.61Z" transform="translate(-194.23 -207.74)"/><path class="cls-4" d="M426.45,570.32c9.82,3.36,5.94,16.28,5.43,20.41s4.91,11.37,13.69,11.89,10.85-11.63,20.67-14.47,20.15,4.91,27.38,4.91,21.18-22,21.18-26.87-7-11.62-14.72-17.05S487.94,527.7,492.85,521c2-2.81,5.93-4.31,10.26-5.54-10.15,1.4-21.7-2.1-24.71,5.22-3.62,8.78,9.56,29.71,13.43,32.29s5.17,8.53,0,18.09-26.35,13.43-35.65,11.88-7.49-12.92-11.62-16.53-12.92-10.85-25.84-11.11c-8.59-.17-12.26,5.45-15.89,11.54a51.48,51.48,0,0,1-6.06,8.87c-7.25,7.82-19.38,4.65-25,6.9,2.31-.45,4.79,1.28,10,2.46,8,1.81,18.6-4.65,22.48-9.82a14.42,14.42,0,0,1,3.57-3.32c4.5-3,11.2-4.13,18.64-1.59Zm-97.93,46.41c2.74,7.83-1.92,18.28-.49,21.54a5,5,0,0,0,4.31,3.1c-4.15-1.94-.72-12.84,2.19-22.67,2.05-6.91,3.84-13.28,2.56-15.63-3.1-5.68-17.82-2.33-22.48-6.72S312.8,577,322.44,570.9a18.49,18.49,0,0,1-7.07,2.78c-7,1-16.79,6.46-16.28,14.47s15.5,15.76,25.32,23A11.47,11.47,0,0,1,328.52,616.73Z" transform="translate(-194.23 -207.74)"/></g></svg>