<svg xmlns="http://www.w3.org/2000/svg" xmlns:xlink="http://www.w3.org/1999/xlink" viewBox="0 0 703.48 743.04"><defs><style>.cls-1{fill:#d6351e;}.cls-2{fill:#fb2d24;}.cls-3{fill:#f5bbb4;}.cls-4,.cls-5,.cls-6,.cls-7,.cls-8{fill-rule:evenodd;}.cls-4{fill:url(#GradientFill_8);}.cls-5{fill:#fff;}.cls-6{fill:url(#GradientFill_6);}.cls-7{fill:url(#GradientFill_5);}.cls-8{fill:#fba9a6;}</style><linearGradient id="GradientFill_8" x1="409.74" y1="335" x2="621.65" y2="849.4" gradientUnits="userSpaceOnUse"><stop offset="0" stop-color="#f50c01"/><stop offset="1" stop-color="#f01000"/></linearGradient><linearGradient id="GradientFill_6" x1="409.5" y1="321.19" x2="624.66" y2="728.69" gradientUnits="userSpaceOnUse"><stop offset="0" stop-color="#f01f17"/><stop offset="1" stop-color="#f65c53"/></linearGradient><linearGradient id="GradientFill_5" x1="389.57" y1="330.52" x2="642.02" y2="782.88" gradientUnits="userSpaceOnUse"><stop offset="0" stop-color="#e11501"/><stop offset="1" stop-color="#f10d01"/></linearGradient></defs><g id="Layer_13" data-name="Layer 13"><path d="M630.24,724.2" transform="translate(-167.56 -146.1)"/></g><g id="Layer_5" data-name="Layer 5"><path class="cls-1" d="M549.42,626.65c-21.28,3.2-1,72.08,2.61,84.12-3.93-11.6-25.73-74.3-30.6-47.5-.21-4.31-5.9-99.89-98.7,156C467.55,647,523.05,565,283.4,772.21c200-206.38,219.17-228.1-37.85-189.38,125.81-34.21,194-37-13.92-77.87,133.37,4.81,247.19,32.53,144-72.87l-.06-.06c-24.11-24.56-60-56.46-110.3-97.56,47.47,31,89.36,57.83,121.35,75.84,55,31,81.06,36,57.15-8.62-.05-.07,0-.12,0-.18-13.54-25.19-42.92-66.24-91.87-127.33,53.39,53.73,92,94.48,118.58,118.52,35.71,32.35,49.59,34.34,48.37-3.05,0-.83-.07-1.65,0-2.53-.69-13-2.93-30.34-6.64-52.37,29.08,52.16,18.23-47.52,6-188.65,21.54,99.58,22,178,33.6,221.63l0,.3c17,63.51,57.75,52.94,222.15-73.69-69.72,68.8-155.91,117.57-144.81,161.17,9.91,39,185.68,2.28,223-5.93-34.63,8.24-187.35,47.5-186.58,96.34a26.57,26.57,0,0,0,2.22,10c20.32,47.58,174.35,73.37,181.45,74.61-4-.11-69.1-2.09-88.18-6.65,0,0,17.59,14.1,38.09,23.26-7.91-2.5-60.61-19.37-100.12-28.57l-.23,0c-22.53-5.27-40.75-8-43.88-4.25-8.27,9.85,134.52,131,161.82,154.1C787.1,744.78,622.69,614.66,600.67,624.12c-19.12,8,55.05,137.48,86.6,190.71C653.52,760.08,568,623.76,549.42,626.65Z" transform="translate(-167.56 -146.1)"/><path class="cls-2" d="M567.08,435.87c-18.87,58.13-42.34,34.6-42.34,34.6s5.23,53.58-85.5,40.58c67.51,20.35,84.18,39.45,48.91,92.08,41.63-34,65.46-34.84,78.06-19.41-4.5-15.5,15.54-19.63,34.95-10.29-27.94-22.78-15.92-49.72,27.7-69.65C582.34,509.33,559.62,493.26,567.08,435.87Z" transform="translate(-167.56 -146.1)"/><path class="cls-3" d="M531.17,534.69c-38.85,50.76,52.48,31.46,30.16,10.59,12.57.3,33.43-18.15,3.83-24.62,35.66-34.41-46.86-52.62-40.74-13.22C492.36,506.15,494.52,542.43,531.17,534.69Z" transform="translate(-167.56 -146.1)"/><path class="cls-3" d="M682.34,588.1c-64-18.86-63.12-.93-36.84,23-23.06-13-63-32.72-14.1-37.1-37.29-16.75-43.57-64.11,53.12-73C608,525.11,614.55,550.83,682.34,588.1Z" transform="translate(-167.56 -146.1)"/><path class="cls-3" d="M677.55,488.17c-88.44,12.17-120.88-4-56.38-75.21C586.23,469.32,602.52,482.14,677.55,488.17Z" transform="translate(-167.56 -146.1)"/><path class="cls-3" d="M491.47,425.14c29.3,43.64-22.15,55-77.49,18,69,62,108.2,57.1,96.81,7,21,11.34,52.15,22.78,23.61-57.3C541,434.31,534.38,458.17,491.47,425.14Z" transform="translate(-167.56 -146.1)"/><path class="cls-2" d="M761.08,623.91s17.92,14.36,38.71,23.5c-5.11-1.69-59.91-19.3-100.74-28.81l47.24,1.82s-69.6-37.29-78.48-64.47c20.32,47.58,174.35,73.37,181.45,74.61C845.22,630.45,780.16,628.47,761.08,623.91Z" transform="translate(-167.56 -146.1)"/><path class="cls-2" d="M351.88,274.18c53.39,53.73,92,94.48,118.58,118.52-21.62-9.11-35-19.43-26.71,8.81C430.21,376.32,400.83,335.27,351.88,274.18Z" transform="translate(-167.56 -146.1)"/><path class="cls-3" d="M438.88,630.49c86-70.9,46.46-121.29-51-82C449,532.23,483.13,552.87,438.88,630.49Z" transform="translate(-167.56 -146.1)"/><path class="cls-3" d="M577.05,630.09c-4.93-31.49,16.86-16.78,16.86-16.78S581.43,578.4,567.84,601c-10-15.9-55.73-27.13-81.29,45.87C516.52,593.18,551.86,590.41,577.05,630.09Z" transform="translate(-167.56 -146.1)"/><path class="cls-4" d="M389.29,301.05c-3.29.59-3.89,7.77-11.37,8.37s-18.24,2.69-22.73.3-10.47-20.34-5.38-25.13,10.46-2.69,12.86-.59,8.37,3,9-3.29-.6-15.86,7.78-17.95,17.35.3,20.34,5.68S403,281.6,410.82,283.1,429.07,269,436,261.26s11.36-23.93,11.36-32.3-3.89-7.18-8.07-7.48-16.45.3-12-6.28,26.92-12.86,32.9-9.87,13.76,9.57,21.54,7.48,20.94-7.48,28.12-12.86,11.66,0,20.93-4.79,26.32-10.46,30.81-7.77,1.49,6.28,7.18,7.77S581.31,200,584.6,205s-1.5,11.37,1.49,16.75,20,1.8,23.33-1.19,1.8-9,8.68-6.58,22.13,1.79,26.62,13.16,2.09,18.84-4.79,20.33-14.65-10.76-21.23-11.06-12.27,3.89-17.05,8.67-3.89,10.47-12.27,9.87-22.13-11.66-24.22-17,4.18-9.27-4.19-14.65-41.28-8.67-50.55-6.58-16.15,14.66-16.75,18.54,8.21,6.22,6,9.87-17.65,8.08-23,8.38-15.55,8.67-18.84,15.25-4.19,14.95-1.79,21.54-.9,8.37-7.48,15.55-29,14.66-36.79,13.16-2.69-9.87-6.88-14.66-9-6-15.55-3.28ZM662.06,605.52c-4.79-3.29,1.2-17.35,9-16.15s3,18.84-9,16.15ZM743.71,596c-6.88-.9-9.57-21.24-5.08-26.62s14.06-8.67,17.35-6.58,5.08,14.66,3,18.84-6.88,2.7-7.48,6.58-3.29,8.38-7.78,7.78Zm38.88,183c-7.77,1.2-17.05-33.2-4.19-35.89s17.05,32,4.19,35.89ZM209.23,590.87c-5.39,2.39-24.53-15-25.13-20.34s1.79-13.46-4.78-17-12.57-12.86-11.67-18.55,14.06-27.51,14.06-33.79-7.48-8.68-5.68-12.57,6.28-10.76,3.88-14.65-5.08-7.48-2.09-12.56,14.66-11.67,18.25-11.67,9.27,8.08,17.94-3.59,4.79-13.16,3.29-16.75-6-7.18-.9-15,14.66-17.95,20.34-19.14,7.48,9.27,7.48,14.05,8.37,9.87,11.36,9.87,26.92-9,30.21-14.05-1.19-15,3.29-19.15,12-4.18,13.76-9.27,3.89-8.07,8.08-9.87,16.45,1.2,18.54,6.88-12.26,18.84-13.76,23.93,8.38,10.17,8.68,16.15-15.26,17.35-18.25,17.35-1.79-10.47-12-9-27.52,11.36-29.61,17.34-.6,19.15-3.59,24.23-17.65,6-23.63,11.37-2.69,10.16-8.08,15.85-4.48,18.54,1.8,26.32,30.21,18.54,32.6,27.81-5.39,15-12.56,16.75S238.54,554.68,232,558s-8.68,36.19-22.73,32.9Zm530,129.51c3.89-3-5.08-6.28-3.29-8.68s17.65-16.15,25.73-14.05,2.39,10.46,6,14.65,18.54,9,29.31-.9,12.86-33.79,17-30.21.59,19.45,8.37,15.26,18.55-20.94,19.14-28.12-4.78-13.16-12.56-15.25-12.56-5.68-6.88-10.77,21.54-17,23.93-28.71-7.18-28.12-10.77-28.42-6.58,8.68-8.07,15-7.78,21.53-12.27,19.44-8.67-27.52-17.64-23.33,3.59,23.33.3,31.11S780.8,651,781.69,660s15,9,16.46,16.75-9,22.13-15.56,19.74-3.89-15.85-8.67-16.75-6.88,6.28-14.36,9-7.18.3-17.35-1.49-22.73,8.37-25.12,11.36-3.59,7.48,0,9.87.6,4.19-.3,7.48,1.79,16.15,5.08,15.26,16.16-6.29,17.35-10.77ZM281.6,710.5c-5.68-5.38.6-22.73,5.69-29.61s6-8.37,12.56-8.07,8.67,27.81,17.94,30.5,15.55,1.2,21.84-1.79,13.15-7.78,23.92-2.69,2.69,19.14-.89,24.52-8.67,7.78-10.17,12.27,4.19,9.27,6.58,16.75,12.86,10.17,16.75,11.66,6.58.6,5.08,10.17-10.76,15.55-14.65,16.45-14.36-5.68-15-14.06,4.49-20-6-22.73-20,10.17-22.43,10.47-13.46-11.66-13.16-19.74,4.18-15.56-.9-20.94S284,714.39,281.6,710.5Z" transform="translate(-167.56 -146.1)"/><path class="cls-5" d="M514.31,242.12c-1.79-7.77,18.85-18.84,25.13-11.06S527.77,252,514.31,242.12Z" transform="translate(-167.56 -146.1)"/><path class="cls-6" d="M721,268.15c3.3-3.3,18.55,5.08,26.92,7.77s20,2.69,19.44,9.87-12.86,11.37-21.53,10.47-23.33-8.07-23.93-11.36-4.19-12.27-.9-16.75Zm65.8,238.37c-10.47,0-8.07-24.52,0-25.72s9,20,0,25.72ZM861.56,587c-3.59.9-.9-8.38-3.29-11.67s-3.89-13.75.9-18.84,10.17,5.09,10.46,11.37-3.29,20.63-8.07,19.14ZM220.89,642.91c4.18-4.79,20.33,3,17,12s-20.33,3.29-17-12Zm83.75-307.77c-6.88,1.8-7.17,16.45-11.66,18.54s-17.35-5.68-17.65-12.26,1.8-16.45,11.37-20.64,34.39-11.66,40.67-5.08-4.18,17.05-.3,22.13,4.2,8.38-2.39,10.17-13.46-12.86-20-12.86Zm205.48-52c-3.29-1.8-3.89-14.36,7.18-18.25s20,5.09,26.92,8.38,11.66-5.39,17-5.69,8.07,11.67,11.36,20.64,13.76,9,13.76,17.05-17.94,11.37-25.72,9.57S547.51,299.85,537,295.66s-16.45-.6-21.23.3-14.36-5.68-5.69-12.86ZM207.43,683.58c4.48-2.39,24.22,11.07,31.7,8.68s8.37-3.29,13.16-1.8-.3,26.92,3.59,31.11,13.46,10.47,13.76,17.65,5.68,16.15.3,21.53-31.11-6.58-32.31-15.25,7.94-16.09,5.09-19.45-10.47-21.23-14.06-22.13-16.15.9-18.84-1.79-6-12.56-2.39-18.55ZM414.7,857.36c-1.79-3-1.8-13.16,7.48-16.75s15.55,6,17.94,12,3.3,9.57,10.77,8.38,8.38-12,8.08-15-2.69-9.87.89-11.36,11.37,3,14.06.6,8.38,6.27,7.18,12.86-11.37,10.47-11.67,14.65,18.85,11.67,17.05,19.74-19.14,7.78-24.22,4.49-14.66-13.76-20.64-18.24S415,861.85,414.7,857.36ZM572.33,756c-2.69-2.39-4.78-14.06,6.28-17.35s12.86,6.58,19.74,5.08,12.26-7.17,17.95-.59-.9,20-7.78,20.34S592.07,753.28,587,753.28s-13.17,5.38-14.66,2.69ZM800.84,439.82c-4.19,6-3,14.36-.9,16.75s5.39,13.46,12,15.55,36.49,11.07,41,16.45-.29,15.86-2.09,22.44-.6,11.66,8.38,14.65S872,513.4,870.83,509.21s-9-20-9.57-26,9.57-15.85,8.08-28.41S849.89,435,848.4,432.34s-3.29-37.38-5.09-45.46-8.37-22.43-11.66-19.44-1.8,21.54-8.38,19.74-9-30.51-13.46-31.7-15.55,5.38-16.75,14.65,8.68,24.53,15.56,32.6,19.14,35,14.36,37.09-16.46-8.07-22.14,0ZM661.76,280.11c-3-5.39-4.48-18.85,1.8-22.43s22.13,10.46,23.63,14.95-1.2,11.07,6.88,14.06,13.45,3.59,15.85,6.88,1.79,16.75-2.4,19.44-23.92-8.67-29.9-13.16S661.76,283.4,661.76,280.11Z" transform="translate(-167.56 -146.1)"/><path class="cls-7" d="M380.31,547.5c3.59-3.29,13.16,5.68,16.75,5.68s9.57-9.87,10.76-12,6-12.56,3.89-16.75-9.27-10.47-9.27-16.15,16.45-33.8,24.23-34.1,11.66,13.46,19.74,11.37,10.77-15.56,11.66-19.45,5.69-17.34,15-20.63,21.83-4.19,26.32-9,6-9.57,12.86-13.75,24.82-8.08,29.31-5.09-14.36,27.52-7.48,32.9,35.6,19.15,33.2,35.59-23.62,32-28.41,30.51-2.39-10.77-5.38-15.25-13.76,3.89-19.15,2.39-22.43-4.78-29,1.2S467.94,519.38,462,522.37s-19.14,5.39-24.53,12.87-16.15,23-29,34.39-21.83,11.07-26,8.38-9.87-18.85-2.09-30.51Zm101.39,2.09c2.1,8.38,16.16,12.86,21.54,6.28s8.08-16.75-.3-20.93-21.24,6.58-21.24,14.65Zm-208.17,33.5c-1.79-5.68,10.77-20,17.35-11.66s-7.48,20.63-17.35,11.66Zm45.77,42.17c-.6-6,14.05-15.25,17.64-7.17s-7.48,21.53-17.64,7.17Zm91.52-6c-1.79-8.07,18.84-17.94,21.53-12.56S421,628.55,410.82,619.28ZM288.49,541.52c-5.39-7.48,1.79-20-3.59-29s-8.68-14.05-11.07-19.44,2.69-9.87,2.69-9.87-3.29-23.33,10.77-22.13,11.07,12.56,10.47,16.75,23-9,27.82-1.2-2.4,21.24-9.57,26.92-5.69,6.88.59,14.66,12.87,14.95,12.57,19.74S313,554.68,307.33,555s-18.25-8.38-18.84-13.46ZM352.2,382.4c10.77,5.68,18.54,15.55,17.65,20.34s-1.5,12,4.78,12.26,19.44-11.67,19.44-17.65-8.07-6.28-7.18-15.85,23.93-13.46,25.43-26.32-10.17-15.55-21.54-14.35-3.89,10.46-11.36,13.75S351.9,376.12,352.2,382.4Zm282.64,45.46c-.9-5.39,4.19-15.85,14.36-13.46s20.34,21.23,29,28.41,20,.9,27.52,2.4a11.59,11.59,0,0,1,9,15c-2.09,6-14.36,9.27-15.55,13.76s13.76,16.15,14.35,24.23-8.67,13.16-16.45,10.46-21.83-13.16-24.52-17-1.5-16.16-.6-20-.3-12.87-3-15.26-11.67-14.36-16.15-15.55-17.95-9.57-17.95-12.86ZM403.64,780.19c5.68-4.78,18.54,3.59,23.62,6.28s10.77-9,10.47-13.16-3.29-14,4.19-15.85,15.55,8.38,19.44,14.36,16.15,6.87,21.24,3.88,9-13.15,16.15-13.15S514.9,776,517.29,779.89s.3,10.17,7.18,12.27,9.27-4.79,14.06,0,2.39,15.55,6,18.24,16.75-13.76,17.65-17,3.59-12,12.26-9,10.17,9.57,7.48,20-20,15-25.43,16.45,3.59,16.45-.89,20.64-18.25,1.79-21.84-3.59-7.18,14.06-15.25,13.76-14.06-14.66-15-20.94,3-12.61-3.59-19.44S460.76,796.94,452.39,799s-25.43,4.78-30.81,8.67S399.15,790.06,403.64,780.19Z" transform="translate(-167.56 -146.1)"/><path class="cls-8" d="M609.11,842.1c1.5-10.16,17.35-21.83,29.62-23.33s25.72,14.66,23.92,22.14-11.36,9-14.95,8.37-12-9-16.15-2.69-25.43,5.39-22.44-4.49ZM449.4,729.65c0-7.48,16.44-7.48,19.14-3.6s-1.5,12.27-6.28,13.17S449.1,735,449.4,729.65Zm-87,81.35c6.88-2.69,16.75,20.34,10.77,23s-18.85-16.45-10.77-23Zm18.54-86.14c-4.78-6.28,1.5-16.75,7.18-14.06s-.9,18-7.18,14.06ZM563.06,436.24c-3.89-5.09,5.69-22.14,10.77-24.53s12.26,17.65,9,24.53-13.16,6.28-19.74,0Zm-97.5-67.3c-3.59-7.48,3.29-15.26,7.48-13.46S489.79,360,491,366.55s-15.55,15.55-25.42,2.39Zm63.41-1.2c-1.8-7.77,11.06-16.15,16.15-7.47s-7.78,13.46-16.15,7.47Zm137.88-15.55c2.39-7.18,22.73-2.09,23.93,6.58s-22.43,10.77-23.93-6.58Zm75.07-20.93c-1.79-5.69,16.75-16.16,22.43-9.88s-9.87,19.74-22.43,9.88ZM623.77,806.51c-7.48.9-6.58-23,1.79-23.33s5.09,19.15-1.79,23.33Zm-63.41,46.36c-4.19-5.68,9.87-20.34,16.75-15.55S574.42,861.85,560.36,852.87Z" transform="translate(-167.56 -146.1)"/></g></svg>