<svg xmlns="http://www.w3.org/2000/svg" viewBox="0 0 954.28 967.55"><defs><style>.cls-1{fill:#d65968;}.cls-2{fill:#fb7719;}.cls-3{fill:#f5cea9;}.cls-4{fill:#f33829;}</style></defs><g id="Layer_13" data-name="Layer 13"><path d="M630.24,724.2" transform="translate(-100.59 -50.35)"/></g><g id="Layer_5" data-name="Layer 5"><path class="cls-1" d="M682.42,619.87c-14.66,24.7,73.65,62,89.2,68.36-15.33-5.73-98.57-36.16-75-8.49-4.63-3.42-108.27-78.28,78,233.86C634.35,721.75,596.42,595.06,608.22,1017.9c-44.44-381.16-50.72-419.31-227.8-120.84,70.9-159,125.7-231.87-92.28-51.38C405.78,711.83,530.6,617.56,334.45,635.2h-.11c-45.76,4.19-109,14.33-194.06,31.64,72.11-22.93,135.29-43.55,180.94-61.41,78.5-30.65,105.73-53.37,39.36-66.38-.11,0-.11-.11-.22-.11-37.49-7.27-104.75-11.57-209.27-12.57,100.66-9.81,175.42-15.32,222.72-22.49,63.62-9.59,77.4-22.27,37.71-52.59-.89-.66-1.77-1.33-2.65-2.1-14-10.25-33.85-22.6-59.76-37.38,78.5,14-33.74-59-190-165.6C280.31,308.06,361.79,373.78,416.7,398.69l.33.22c80.05,36.06,103.53-15,111.47-292,12.24,130.22-10.14,260.54,44.32,285.9C621.56,415.56,732,202.77,755.08,157.23c-20.73,42.78-109.15,233.86-58,274.32a35.58,35.58,0,0,0,12.23,6.18c66.38,19.18,223.17-118.31,230.44-124.6-3.53,4.08-60.53,69.69-81.37,85.56,0,0,29.44-6.28,56.23-19.73-9.26,6.06-71.22,46.31-114.11,79.38l-.22.22c-24.48,18.86-42.67,35.4-41.46,41.79,3.2,16.87,249.07-28.44,296-37.15-49.5,10.69-322.94,70.78-331.76,101.54C715.28,591.32,911.76,624,993.46,636.3,908.34,624.94,695.1,598.26,682.42,619.87Z" transform="translate(-100.59 -50.35)"/><path class="cls-2" d="M500.08,440.44c44.16,68.62,0,73,0,73s59.82,39.85-30.26,122.67c78.06-52.6,111.9-53.7,136.53,27.23,0-71.78,19.27-97.12,45.88-97.12-19.84-8.45-7.17-32.65,18.86-44.83-47.15,9.64-64.85-25.55-48.61-87.48C588.92,486.72,553.12,496.64,500.08,440.44Z" transform="translate(-100.59 -50.35)"/><path class="cls-3" d="M571.92,561.05c19.67,83.06,76.87-27.69,36.43-22.23,10.93-12.74,9.47-49.9-22.22-24.76-5.47-65.95-94,4-48.09,31C509.62,577.08,549,605.49,571.92,561.05Z" transform="translate(-100.59 -50.35)"/><path class="cls-3" d="M754.85,449.85c-73.59,50.28-54.28,64.49-7.29,57.57-32.91,12.86-87.06,37.52-50.27-16.76-48.82,24.41-103.1-9.11-30.6-116.58C626.94,473.49,659,488.48,754.85,449.85Z" transform="translate(-100.59 -50.35)"/><path class="cls-3" d="M647.48,370.4C585.34,472.12,541.18,492,522.07,365.16,550.84,448.9,577.86,442.88,647.48,370.4Z" transform="translate(-100.59 -50.35)"/><path class="cls-3" d="M425.11,509.56c69.88,6.57,38.14,69.35-46.81,95.36,122.36-19,150.45-63.64,89-94.2C496.77,498.58,534.91,476,428,437.9,476.39,466.13,495.5,493.1,425.11,509.56Z" transform="translate(-100.59 -50.35)"/><path class="cls-2" d="M858.39,398.69s30-6.39,57-20.17c-6.07,3.86-70.57,45.64-114.89,79.82L842.29,411s-97.35,40.47-133,26.69c66.38,19.18,223.17-118.31,230.44-124.6C936.23,317.21,879.23,382.82,858.39,398.69Z" transform="translate(-100.59 -50.35)"/><path class="cls-2" d="M392.88,417s3.42,20.95,16,32.19c-14-10.25-33.85-22.6-59.76-37.38,78.5,14-33.74-59-190-165.6C280.31,308.06,361.79,373.78,416.7,398.69l.33.22,23.82,30.66Z" transform="translate(-100.59 -50.35)"/><path class="cls-2" d="M360.36,538.94c-37.49-7.27-104.75-11.57-209.27-12.57,100.66-9.81,175.42-15.32,222.72-22.49C346.13,518.54,324.19,523.62,360.36,538.94Z" transform="translate(-100.59 -50.35)"/><path class="cls-2" d="M334.34,635.2c-45.76,4.19-109,14.33-194.06,31.64,72.11-22.93,135.29-43.55,180.94-61.41C291.89,616.45,297.62,637.4,334.34,635.2Z" transform="translate(-100.59 -50.35)"/><path class="cls-3" d="M593,737.41c-.67-148.81-86.18-150.5-127.82-16.49C500,643.94,550.13,626.09,593,737.41Z" transform="translate(-100.59 -50.35)"/><path class="cls-3" d="M709.32,594.2c-36.72-21.5-3.11-31.61-3.11-31.61S659.58,546,671.5,579.17c-24.88-3.11-75.14,34.72-21.25,122.81C620,625.61,647,586.74,709.32,594.2Z" transform="translate(-100.59 -50.35)"/><path class="cls-3" d="M782.29,287.72c15.54-51.82-8.25-45-36.79,16.06C726.61,344.16,766.75,339.54,782.29,287.72Z" transform="translate(-100.59 -50.35)"/><path class="cls-4" d="M900.4,247.31c4.85,94.38-133.19,68.91-53.36,7.72-32.09,3.2-32-31.21-10.92-26.9A57.61,57.61,0,0,1,834,210c2.42-48.62,81.48-40.57,77.84,10.81,26.9-25.36,34.62,1.54,26.35,17.64C983.31,222.39,927.41,341.58,900.4,247.31Z" transform="translate(-100.59 -50.35)"/><path class="cls-3" d="M911.87,220.85S907,198,883.42,229.45c5.4-28.56-29.55-48.74-49.39-19.41C836.45,161.42,915.51,169.47,911.87,220.85Z" transform="translate(-100.59 -50.35)"/><path class="cls-3" d="M621.25,227s47.81-49.78,24.64-62.1-43.35,28.55-47.81,95.61C593.74,325.91,637.4,289.13,621.25,227Z" transform="translate(-100.59 -50.35)"/><path class="cls-4" d="M729.28,105.63v.11a24.22,24.22,0,0,1-9.37,6.39c42.89,22.61-104,67.37-79.17-6.39a56.47,56.47,0,0,1-8.27-9c-29.55-41,49.95-74.76,56.68-10.37C713.84,52,745.71,87,729.28,105.63Z" transform="translate(-100.59 -50.35)"/><path class="cls-3" d="M729.28,105.63c7-25.14-31.86-28-47.52,8.6,6.61-64.5-55-41.9-49.29-17.53-29.55-41,49.95-74.76,56.68-10.37C713.84,52,745.71,87,729.28,105.63Z" transform="translate(-100.59 -50.35)"/><path class="cls-3" d="M442.36,299.15c-26.76-36.21-49.06-1.56-17,32.44C456.53,364.66,469.13,335.37,442.36,299.15Z" transform="translate(-100.59 -50.35)"/><path class="cls-4" d="M491.78,199.68a95.81,95.81,0,0,1-1.43,13c-9.7,54.69-60,58.77-76,29.22-11.68,45-61,37-69.46-1.33C337,280.28,306,290,288.47,235.73a159.77,159.77,0,0,1-7.17-33.41c-9.59-99.12,102.43-117.42,114-32.85,8.27-47.85,37.16-27.79,41.46,6.72C461.35,142.46,494.1,155.25,491.78,199.68Z" transform="translate(-100.59 -50.35)"/><path class="cls-3" d="M491.78,199.68c-6.94-22.71-37.59-26.79-53.25,4.85-5.62-22.38-35.17-32.08-53.47,6.28-2-52-81.49-73.76-103.76-8.49-9.59-99.12,102.43-117.42,114-32.85,8.27-47.85,37.16-27.79,41.46,6.72C461.35,142.46,494.1,155.25,491.78,199.68Z" transform="translate(-100.59 -50.35)"/><path class="cls-4" d="M142.71,417.88a71.6,71.6,0,0,1-9.37-18.19c-21.72-64.73,103.09-82.15,99.12-13.12-.44,8.16-2.76,17.64-7.39,28.33C292,500.68,70.71,492.08,142.71,417.88Z" transform="translate(-100.59 -50.35)"/><path class="cls-3" d="M232.46,386.57c-9.81-45.54-90.85-27.46-99.12,13.12C111.62,335,236.43,317.54,232.46,386.57Z" transform="translate(-100.59 -50.35)"/><path class="cls-3" d="M236.1,723.07c-9.73-25.7,5.06-35.43,124.19-64.24C324.86,693.87,245.83,748.76,236.1,723.07Z" transform="translate(-100.59 -50.35)"/><path class="cls-4" d="M264.87,843.58c-7.82,24.15-25.13,39.59-44.65,47.2-29,11.35-62.85,5.07-76.85-16.21-23.26-35.73,22.49-59.43,22.49-59.43S137.75,810,158.14,799c-82.36-2.2-61.85-99.23-27.45-92.51a20.64,20.64,0,0,1,6.84,2.65c24.36-40.46,42.45-2.54,42.45-2.54s-7.94,61.64,30.65,62.85C230.69,770,208,789,208,789S284.28,783.49,264.87,843.58Z" transform="translate(-100.59 -50.35)"/><path class="cls-3" d="M220.33,890.66l-.11.12c-29,11.35-62.85,5.07-76.85-16.21-23.26-35.73,22.49-59.43,22.49-59.43S137.75,810,158.14,799c-82.36-2.2-61.85-99.23-27.45-92.51-29.66,33,2.76,85.68,64.72,90.31-25.91,22.6-36.82,45.2,1.21,45.53C159.47,863.76,179.31,894.86,220.33,890.66Z" transform="translate(-100.59 -50.35)"/><path class="cls-4" d="M518.8,981.85c-77.07,26-71.89-24-71.89-24s-39.25,21.83-43.22-15.21c-3.09-28.78,13.45-33.08,23.81-32.2a19.53,19.53,0,0,1,6.73,1.66C414.16,877.32,449,861,463,874.57c3.42-37.05,58-14.78,37.26,19.73,15.22-16.76,30.33-16.65,41.46-7.93v.11C565.77,905.22,571.28,964.1,518.8,981.85Z" transform="translate(-100.59 -50.35)"/><path class="cls-3" d="M518.8,981.85c-77.07,26-71.89-24-71.89-24s-39.25,21.83-43.22-15.21c-3.09-28.78,13.45-33.08,23.81-32.2l.11.11c-24.25,22,3.09,50.39,36.39,21.61-2.76,53.15,109.49,34.29,77.73-45.64C565.77,905.22,571.28,964.1,518.8,981.85Z" transform="translate(-100.59 -50.35)"/><path class="cls-4" d="M875.92,791.1c8.27,28.78-26.24,20.51-26.24,20.51s-2.53,35.17-47.52,3.86a78,78,0,0,1-7.61-6c-32-28.12,6.84-47.2,23.16-45.32-20-16.87-4.41-23.82,15.76-18.08-20.5-78.4,57-71.78,69.47-42.45l.11.33a2.21,2.21,0,0,1,.44.88C941.75,681.84,961.15,804,875.92,791.1Z" transform="translate(-100.59 -50.35)"/><path class="cls-3" d="M875.92,791.1c8.27,28.78-26.24,20.51-26.24,20.51s-2.53,35.17-47.52,3.86a78,78,0,0,1-7.61-6c31.1,16.64,72.22-16.54,57.67-43.12,16.76,8.16,40.24,2.21,26.9-14.88,17.75,1.87,41.13-9.26,23.93-47.52a2.21,2.21,0,0,1,.44.88C941.75,681.84,961.15,804,875.92,791.1Z" transform="translate(-100.59 -50.35)"/><path class="cls-3" d="M933,571.48c-3.57,13.26-14,15.24-78.54-.51C827.65,564.42,936.58,558.22,933,571.48Z" transform="translate(-100.59 -50.35)"/></g></svg>