<svg xmlns="http://www.w3.org/2000/svg" viewBox="0 0 719.84 797.11"><defs><style>.cls-1{fill:#d64a54;}.cls-2{fill:#fbc400;}.cls-3{fill:#f5e491;}.cls-4{fill:#691f25;}.cls-5{fill:#5d0f15;}</style></defs><g id="Layer_13" data-name="Layer 13"><path d="M630.24,724.2" transform="translate(-195.55 -119.75)"/></g><g id="Layer_5" data-name="Layer 5"><path class="cls-1" d="M534.89,674.92c-24.94-.5-15.27,82.16-13.45,96.64-2.23-14-14.88-89.93-25.68-60.26.6-5,12.77-115.29-143.25,159,84.85-188,164.29-270.93-150-81,268.85-196.73,295-217.81-6.25-223.77,150.42-14.52,228.93-4.34-.71-91.7C347,505.36,471.64,559.27,374.34,418.68l0-.08c-22.76-32.77-57.51-76.22-107-133,48.19,44.64,90.81,83.53,123.84,110.35,56.76,46.17,85.57,57,67,1.32,0-.09,0-.13,0-.22C447.58,365.61,422,313,378,233.61c50.5,71.83,86.67,125.93,112.33,158.58,34.48,43.94,50,48.92,55.86,6,.13-.94.25-1.89.45-2.89,1.75-15,2.58-35.24,2.65-61.13,23,65.28,30.11-50.74,43.75-214.38,5.15,118-9.59,207.67-4.91,259.8l0,.35c7,75.89,55.65,71.77,268.22-40.8-93.1,65-201.11,103.87-197,155.86,3.71,46.53,211.72,38.87,256,36.78-41.18,2.66-223.35,17.68-232,73.64a30.8,30.8,0,0,0,.58,11.89C697.89,675.61,868.85,735.16,876.71,738c-4.59-.92-78.54-15.89-99.45-24.83,0,0,17.35,19.54,39,34-8.55-4.4-65.47-34-108.81-52.2l-.26-.07c-24.72-10.42-45-17.08-49.31-13.42C646.49,691.1,786,857.4,812.66,889.14,783.39,856.33,621,675.54,593.94,682.05c-23.42,5.46,36,167.83,61.69,234.82C627.77,847.72,556.63,675.25,534.89,674.92Z" transform="translate(-195.55 -119.75)"/><path class="cls-2" d="M592.34,460.4c-32.92,62.72-55.15,31.25-55.15,31.25s-4.49,62.25-105.6,29.67c73.15,36.44,88.46,61.52,37.88,114.77,54.22-30.73,81.6-27,93-6.93-2.11-18.6,21.59-19.39,41.94-4.94-27.47-31.49-8.47-59.92,45.26-74.16C595.42,547.3,572.6,524.51,592.34,460.4Z" transform="translate(-195.55 -119.75)"/><path class="cls-3" d="M532,566.29c-54.31,50.41,53.81,46.2,32.38,18,14.3,2.8,41.74-14.21,9.19-27.38,47.46-32.36-43.26-69.27-44-23.06C493.23,526.1,488.61,568,532,566.29Z" transform="translate(-195.55 -119.75)"/><path class="cls-3" d="M694.3,656.84c-69.48-34.05-71.94-13.39-46.6,19.14-23.81-19.35-65.61-49.69-8.86-45.14-39.34-26.42-37.26-81.76,74.94-73C621.69,570.36,624.11,601,694.3,656.84Z" transform="translate(-195.55 -119.75)"/><path class="cls-3" d="M708.34,541.73c-103.43-3.37-137.32-28.23-49.73-97C607.68,502.36,623.79,520.19,708.34,541.73Z" transform="translate(-195.55 -119.75)"/><path class="cls-3" d="M508,433.37C533,489,472,491.86,416,438.84c66.73,84.28,112.47,86.38,109.25,26.88C547,482.79,580.37,502,563.4,404.87,562.8,453.51,550.61,479.48,508,433.37Z" transform="translate(-195.55 -119.75)"/><path class="cls-2" d="M777.26,713.14s17.67,19.91,39.64,34.41c-5.51-2.92-64.68-33.75-109.47-52.59L761,706.27s-72.24-56.21-77.07-89C697.89,675.61,868.85,735.16,876.71,738,872.12,737.05,798.17,722.08,777.26,713.14Z" transform="translate(-195.55 -119.75)"/><path class="cls-2" d="M378,233.61c50.5,71.83,86.67,125.93,112.33,158.58-22.92-14.62-36.15-29-32.24,4.85C447.58,365.61,422,313,378,233.61Z" transform="translate(-195.55 -119.75)"/><path class="cls-3" d="M407.84,657.72C520,593.51,484.61,528.21,365.58,554.13,438.6,547.43,473.56,577.68,407.84,657.72Z" transform="translate(-195.55 -119.75)"/><path class="cls-3" d="M565.79,684.25c.52-36.94,22.54-15.88,22.54-15.88s-7.44-42.32-27.38-19.12c-8.3-20.11-58.39-41.88-101.85,36.53C503.84,630.26,544.75,634,565.79,684.25Z" transform="translate(-195.55 -119.75)"/><path class="cls-1" d="M801.94,640.31c3,11.36-11.05,7-11.05,7s12.84,14.79-6.69,18.54a26.45,26.45,0,0,1-28.12-12.16s-31.31,43.65-91.65,33.71a139.65,139.65,0,0,1-21-5.41,34.2,34.2,0,0,1,3.07,10.38c1.17,9-1.29,21.55-21.49,26.58,0,0,6.08,17.75-19.89,20.94,0,0,5.53,20.63-36.9,36.59s-174.35,18.66-125.73-98.66c-2.82,1.6-80.79,45.74-104-21.92-12-34.75,3.38-58.38,19.83-72.62v-.07a103.47,103.47,0,0,1,28.06-17.31c-1.9.55-27.26,7.86-32.42-2.76-5.28-11,10.26-8.47,10.26-8.47s-8.29-2.77-6.76-18.67c1.48-15.16,24-8.84,25.91-8.28a75,75,0,0,1-15.84-13.45h-.06c-12.22-13.63-23.08-36.71,2-64.95,31.61-35.61,77.47-15.54,86-10.75-3.2-103.26,216.22-90.31,160.17,29.9,0,0,48.38-26.4,26.09,10,2.58-3.44,20-23.88,61.64,3.44,10.62,6.93,20,17,28,28.36l.12.12c12,16.89,21.12,36.59,27.56,53.05a317,317,0,0,1,11.36,34.31S793,588,803.3,606.36s-19.47,25.17-19.47,25.17S798.94,629,801.94,640.31Z" transform="translate(-195.55 -119.75)"/><path class="cls-1" d="M491.51,301.05c-24.37,6.32-27.07-14.18-27.07-14.18s-15.47,6.75-19.71-10c-.43-1.66-.73-3.32-1-4.85V272c-1.84-14,4.73-23.27,16.45-29,13-6.38,38.43-5.77,36.65,8.23,0,0,11-12.28,21.92,2.27A18.61,18.61,0,0,1,521.6,259C526.2,274,512.94,295.46,491.51,301.05Z" transform="translate(-195.55 -119.75)"/><path class="cls-1" d="M687,378.76c-26,30-58.38,5.65-54-16.52-21.06-6.26-32.48-20.87-30-38.18,1.23-8.78,6-18.24,14.92-27.69,19.83-21,43.4-8.41,47.45,14.24,1.48,7.74.62,16.64-3.43,25.79,0,0,15.1-8.84,11.91,9.33C673.86,345.73,712.9,348.68,687,378.76Z" transform="translate(-195.55 -119.75)"/><path class="cls-1" d="M794.7,469.29c-6.26-18.18-26.21-6.74-16.21,8.65C785.77,489.14,801,487.47,794.7,469.29Z" transform="translate(-195.55 -119.75)"/><path class="cls-1" d="M319.4,458.25c-6.9-18.16-29.64-8.79-17.86,11.18C307.85,480.12,326.3,476.42,319.4,458.25Z" transform="translate(-195.55 -119.75)"/><path class="cls-1" d="M357.23,777.13s9.39,35.12-27.51,21.73c-10.49-3.8-16-10.31-17.92-17.19-4.91-17.31,12.15-37.32,26-23.63,2-6.94,5.83-10.13,10.13-10.87C360.6,745.08,376.81,765.34,357.23,777.13Z" transform="translate(-195.55 -119.75)"/><path class="cls-1" d="M550.41,847.75c-6,2.45-14.36,2.27-24.8-2.34,0,0,16.82,23.82-3,35.61s-41.37,4.36-47.08-19,15.22-33.58,26.95-33.7c0,0-4.55-9.21,7.3-14,7.92-3.26,12.34,4.11,13.69,7,1.91-6.33,4.24-10.81,6.82-13.76,12.22-14.05,30.33,5.47,31.74,18.54C563.06,835.47,559,844.31,550.41,847.75Z" transform="translate(-195.55 -119.75)"/><path class="cls-3" d="M646.5,692.37c-13.75,26-44.76-10.81-44.76-10.81,11.73,41.08-51.63,99.77-116.46,62.32S464,644.12,464,644.12c-76.92,42.23-129.23-4.36-105.66-60.84-16.45,14.24-31.8,37.87-19.83,72.62,23.21,67.66,101.18,23.52,104,21.92-48.62,117.32,83.31,114.56,125.73,98.66s36.9-36.59,36.9-36.59C631.09,736.7,625,719,625,719,645.21,713.92,647.67,701.39,646.5,692.37Zm137.33-60.84s29.84-6.75,19.47-25.17-32.85-8.6-32.85-8.6a317,317,0,0,0-11.36-34.31c5.9,36.95-21.05,82.81-89.94,77.72,0,0,46.78,35.11-4.72,46.17v.06c60.34,9.94,91.65-33.71,91.65-33.71a26.45,26.45,0,0,0,28.12,12.16c19.53-3.75,6.69-18.54,6.69-18.54s14.06,4.36,11.05-7S783.83,631.53,783.83,631.53ZM703.41,481.92c-41.69-27.32-59.06-6.88-61.64-3.44,22.29-36.41-26.09-10-26.09-10,56.05-120.21-163.37-133.16-160.17-29.9-8.54-4.79-54.4-24.86-86,10.75-25.11,28.24-14.25,51.32-2,64.95h.06c-11.79-41.38,56.91-80.55,104.37-52.43,0,0-9.15-49.36,51.88-55.38s64.33,51.64,48.31,73.31c0,0,22.9-9.4,36.22,0,10.56,7.43,4.61,17.8,1.72,21.73,2.15-2.21,7.12-5.89,15.41-4.24,11.67,2.34,11.85,15.29,11.85,15.29s43.65-50.1,94.12-2.27C723.36,498.92,714,488.85,703.41,481.92Z" transform="translate(-195.55 -119.75)"/><path class="cls-4" d="M419.09,606.71c84.11-15.78,61.69,79.06,61.69,79.06,48.52-65,152.44-27.55,152.44-27.55-19.47-14.38,4.49-18.87,4.49-18.87-50.9-29.75-22.16-90.44-22.16-90.44-85,0-80.26-94.64-80.26-94.64-17.07,29.65-39.83,0-39.83,0,33.55,45.59-13.78,115.6-69.18,111.41C462.81,585.74,419.09,606.71,419.09,606.71Z" transform="translate(-195.55 -119.75)"/><path class="cls-5" d="M500.55,634c41-30.85,112,3.89,112,3.89-49.42-35.94-25.76-76.37-25.76-76.37-56.9.3-59-65.88-59-65.88,4.46,29.35-23.66,86.55-70.68,89.84C507.44,583.65,500.55,634,500.55,634Z" transform="translate(-195.55 -119.75)"/><path class="cls-3" d="M521.6,259c-8.11-4.48-18.79-7-26.16,3.93-7.12-22-45.55-19.4-51.69,9-1.84-14,4.73-23.27,16.45-29,13-6.38,38.43-5.77,36.65,8.23,0,0,11-12.28,21.92,2.27A18.61,18.61,0,0,1,521.6,259Z" transform="translate(-195.55 -119.75)"/><path class="cls-3" d="M665.38,310.61c-20.93-15.1-51.69-8.47-62.37,13.45,1.23-8.78,6-18.24,14.92-27.69C637.76,275.37,661.33,288,665.38,310.61Z" transform="translate(-195.55 -119.75)"/><path class="cls-3" d="M550.41,847.75c11.61-20.45-5.4-42.61-20.07-40.16,12.22-14.05,30.33,5.47,31.74,18.54C563.06,835.47,559,844.31,550.41,847.75Z" transform="translate(-195.55 -119.75)"/><path class="cls-3" d="M348,747.17c-4.36,8.6-4.36,23.27-4.36,23.27s-26.22-11.66-31.8,11.23c-4.91-17.31,12.15-37.32,26-23.63C339.79,751.1,343.66,747.91,348,747.17Z" transform="translate(-195.55 -119.75)"/><path class="cls-4" d="M507,681.06a34.86,34.86,0,0,1,18.69-15.31c3.92-1.33,8.07-1.67,12-2.34s7.84-1.57,11.87-2.29A43,43,0,0,1,574,663.76c7.71,3.34,14.31,9.65,17.29,17.34l-.5.35a67.82,67.82,0,0,0-19.35-11.66,83.19,83.19,0,0,0-21.78-5.32,29.26,29.26,0,0,0-11.55.88c-3.74,1.1-7.09,3.26-10.41,5.08-6.68,3.65-13.22,7-20.3,11.06Z" transform="translate(-195.55 -119.75)"/><path class="cls-4" d="M621.7,615.91a134.32,134.32,0,0,1-6.17-13.49c-1.94-4.67-3.11-9.73-1.85-14.78s2-9.94,3.6-14.72a26.23,26.23,0,0,1,8.42-12.17l.43.44a35,35,0,0,0-4.64,26.41c1.3,4.48,1.1,8.91.7,13.72s0,9.52.1,14.43Z" transform="translate(-195.55 -119.75)"/><path class="cls-4" d="M425.29,553.22c8.27-2,15.84-3.6,23.53-5.59a48.43,48.43,0,0,0,11.64-3.32,31.55,31.55,0,0,0,9.59-7.37,98.59,98.59,0,0,0,13.71-19.27,94.25,94.25,0,0,0,9-22.07h.62c1.83,8.38.12,17.49-3.84,25.15a48,48,0,0,1-17.33,18.77l-10.79,6.53c-3.56,2.16-7,4.81-11,6.44a39.4,39.4,0,0,1-25.14,1.34Z" transform="translate(-195.55 -119.75)"/><path class="cls-4" d="M428.83,615.52a16.92,16.92,0,0,1,15.67,3.74,21.2,21.2,0,0,1,2.57,3.49c.57,1.36,1.25,2.6,1.67,3.94a22.81,22.81,0,0,1,1.15,4,15.42,15.42,0,0,1,.5,4.31c.27,6.29-4.86,11.16-9.71,13.33a43.3,43.3,0,0,1-15.35,3.41l-.1-.6c4.81-1.64,9.61-3.28,13.28-6.35a25.14,25.14,0,0,0,7.67-10.41,8.21,8.21,0,0,0-.33-6.49,12.35,12.35,0,0,0-2.12-2.64c-1-.65-1.77-1.38-2.72-1.95a92,92,0,0,0-12.23-7.21Z" transform="translate(-195.55 -119.75)"/><path class="cls-3" d="M658.27,517.61c9.48-8.7,23.58-13.8,36.81-10.94,3.26.71,6.34,2.13,9.43,3.18l8.56,4.75c2.61,1.91,5.42,3.51,8,5.44,2.4,2.14,5.23,3.86,7.53,6.16a65.75,65.75,0,0,1,19.75,33.59c3.08,12.85,1.93,26.85-3.8,38.5l-.58-.19a93.23,93.23,0,0,0-17.83-69.61,69.44,69.44,0,0,0-6.37-6.83,65,65,0,0,0-7.69-5.33,78.26,78.26,0,0,0-8.71-3.26c-3.08-.43-6.06-1.06-9-1.34-12-1.14-23.87,1.37-35.71,6.39Z" transform="translate(-195.55 -119.75)"/><path class="cls-3" d="M511,419.22a36.08,36.08,0,0,1,20.27-7c3.66-.05,7.32,1.1,10.79,1.68s7,1.22,10.65,2.07a27.39,27.39,0,0,1,17.46,13.81c3.59,6.81,3.82,15.54,0,21.92l-.59-.18a38.69,38.69,0,0,0-5.17-18.66,40.21,40.21,0,0,0-13-13.79,32.71,32.71,0,0,0-4.57-2.22,24.13,24.13,0,0,0-5-1c-1.69-.26-3.45.22-5.13.39a38.93,38.93,0,0,0-5,1c-6.64.86-13.12,2.27-20.47,2.45Z" transform="translate(-195.55 -119.75)"/><path class="cls-3" d="M386.21,516.83a22.42,22.42,0,0,1-6.1-19.38,35.73,35.73,0,0,1,3.72-9.78c.77-1.54,1.49-3.08,2.39-4.54a36.49,36.49,0,0,1,2.66-4.4,38,38,0,0,1,15.46-13.16,51,51,0,0,1,19.31-5.22l.13.6a88.47,88.47,0,0,0-17.07,8.74,95.84,95.84,0,0,0-14.24,11.89,20.7,20.7,0,0,0-3,3.58,17.92,17.92,0,0,0-2.21,4.08,31.5,31.5,0,0,0-1.71,8.91,58.58,58.58,0,0,0,1.17,18.39Z" transform="translate(-195.55 -119.75)"/><path class="cls-3" d="M362.5,606a36.49,36.49,0,0,1,3.32,13.44,34,34,0,0,0,0,6.92,13.85,13.85,0,0,0,3.19,6l4.59,4.64c1.6,1.36,3.18,2.63,4.87,3.81,3.2,2.61,7,4.8,10.9,8.06l-.19.58a22,22,0,0,1-14.43-3.25A20.93,20.93,0,0,1,366,633.9a41,41,0,0,0-2.12-6.92c-.78-2.22-2.43-4.3-3.12-6.64A20.87,20.87,0,0,1,361.88,606Z" transform="translate(-195.55 -119.75)"/><path class="cls-3" d="M474.5,721.45A122.15,122.15,0,0,0,500,737.3a49.42,49.42,0,0,0,6.78,3.31l3.52,1.51,3.69,1a30.13,30.13,0,0,0,7.56,1,38,38,0,0,0,7.6-.44,57,57,0,0,0,7.39-1.4,49.86,49.86,0,0,0,7.18-1.89l3.53-1.09,3.35-1.52c1.11-.51,2.25-1,3.38-1.42l3.2-1.79c8.67-4.51,16.37-10.76,23.82-18.13l.51.34a50.9,50.9,0,0,1-21.16,23.52A53.89,53.89,0,0,1,529.23,747l-4-.26-3.91-.58c-2.6-.28-5.18-.59-7.76-1.08-2.6-.31-5.21-.63-7.81-1.16A42.6,42.6,0,0,1,498,742c-10-3.49-19.16-10.69-24-20.2Z" transform="translate(-195.55 -119.75)"/></g></svg>