<svg xmlns="http://www.w3.org/2000/svg" viewBox="0 0 547.02 538.49"><defs><style>.cls-1{fill:#563815;}.cls-2{fill:#e9513c;}.cls-3{fill:#f5d563;}</style></defs><g id="Layer_13" data-name="Layer 13"><path d="M630.24,724.2" transform="translate(-252.85 -291.45)"/></g><g id="Layer_5" data-name="Layer 5"><path class="cls-1" d="M629.81,606.49c-42.31,44.37-77.78,16.34-82.9,5.34-8.67,68.38-114,37.75-81.62-13-29.07,2-39-16.29-18.62-24.19-34.14-15-21.35-43.53-1.34-47.2.06,0,.06-.06.12-.06a23.77,23.77,0,0,1,9.67.23,47.83,47.83,0,0,1-3.67-6.12c-12.45-24.3,5.78-40.86,34.3-19.46-.89-52.21,83.23-56.82,82.73-10.17a49.1,49.1,0,0,1-1.78,12.06c18.41-17.51,32.25-3.22,24.86,8.73,9.73-4.84,20.51-4.73,30.19-1C650.21,522.48,669.89,564.46,629.81,606.49Z" transform="translate(-252.85 -291.45)"/><path class="cls-2" d="M629.81,606.49c-42.31,44.37-77.78,16.34-82.9,5.34-8.67,68.38-114,37.75-81.62-13-29.07,2-39-16.29-18.62-24.19-34.14-15-21.35-43.53-1.34-47.2-22.62,11.62-6.72,45.53,15.91,33.8-8.9,18.74,4.16,16.68,12.12,10.79-2.06,40.31,61.1,72.5,62.43-12.29,22.41,63.6,119.7,22.24,86-48.09C650.21,522.48,669.89,564.46,629.81,606.49Z" transform="translate(-252.85 -291.45)"/><path class="cls-2" d="M568.48,491.85c-15.84-33.75-71-19.13-76.22,29.07-14.18-25-44.48-17.68-40.81.56-12.45-24.3,5.78-40.86,34.3-19.46C484.86,449.81,569,445.2,568.48,491.85Z" transform="translate(-252.85 -291.45)"/><path class="cls-3" d="M514.8,579.76c8.77-7.54,10.66-27.52-6.38-24.6-.29-20.81-36.82,3.25-16.88,11.79C484.66,583.54,506,587.3,514.8,579.76Z" transform="translate(-252.85 -291.45)"/><path class="cls-3" d="M557.41,548.76c2,30.65,44.69-4.45,23.81-8.35,15.9-16.26-19-29.77-30.74-7.64C523,524.48,532.62,558.26,557.41,548.76Z" transform="translate(-252.85 -291.45)"/><path class="cls-1" d="M764.3,480.89h-.06a46.89,46.89,0,0,1-21.85,10.23c-46.37,9.07-53.7-17.68-51.93-31L664.17,471l4.44-14.57-24.51,5.73L657.33,441l-55.54,25.3,38.25-43s-28.58,2.06-16.85-29.68c7.28-19.85,27.47-38.48,49.71-44.7,13.34-3.73,27.41-3,40,4.72,33.47,20.46,19.79,51.48,15.73,56.43,24.3-11,21.35,11,13.07,17.29C781.37,422.29,787.71,461,764.3,480.89Z" transform="translate(-252.85 -291.45)"/><path class="cls-2" d="M764.3,480.89h-.06c-41.53,17.85-73-9.45-64.49-43.25-34,8.62-16.12-13.51-16.12-13.51-44.2,4.22-62.11-47.93-11-75.11l.28-.11c13.34-3.73,27.41-3,40,4.72,33.47,20.46,19.79,51.48,15.73,56.43,24.3-11,21.35,11,13.07,17.29C781.37,422.29,787.71,461,764.3,480.89Z" transform="translate(-252.85 -291.45)"/><path class="cls-3" d="M706.39,378.19c-1.11-21.21-41.7-18.61-38,6.63C671.25,404.49,707.49,399.4,706.39,378.19Z" transform="translate(-252.85 -291.45)"/><path class="cls-1" d="M451.06,409.23l25,39.36L439.22,425l10.28,25.19-29.07-12.07,2.33,9.51-28.3-5.95s2.34,52.76-44.42,4c-16.46-17.23-21.41-39.19-18.68-59C337,343.23,378.9,310,414.53,359.14c3.84-37,21.85-9,21.85-9s31.92-51.43,52.21-1.06c0,.06.05.06.05.11v.06C508.83,399.5,451.06,409.23,451.06,409.23Z" transform="translate(-252.85 -291.45)"/><path class="cls-2" d="M488.64,349.18v.06c0,37.36-39.64,53.54-59.71,30.91,0,20.07-11.56,43.26-20.07,17-12.34,56.38-70.88,31.08-77.5-10.5C337,343.23,378.9,310,414.53,359.14c3.84-37,21.85-9,21.85-9s31.92-51.43,52.21-1.06C488.59,349.13,488.64,349.13,488.64,349.18Z" transform="translate(-252.85 -291.45)"/><path class="cls-3" d="M383.67,376.31c9-23.4-23.21-20.1-28.55,4.89C347.15,418.49,413.5,375,383.67,376.31Z" transform="translate(-252.85 -291.45)"/><path class="cls-1" d="M404,648.69c8.39,8.95,16.12,23.85-4.56,37.8-32.58,21.85-52.32-10.73-32.81-26.41,0,0-26.29,2.06-12.39-15.28-33-6.4-48.54-31.47-43.93-52.88,1.78-8.5,6.84-16.4,15.24-22.35C373,536,384.73,601.82,384.73,601.82l32.81-15.18-30.19,38.75,17.12-5.22-10.23,20.18A58.38,58.38,0,0,1,404,648.69Z" transform="translate(-252.85 -291.45)"/><path class="cls-3" d="M351.46,590.84c4.41-6.71-10.3-23.48-17.64,3.26C329,611.55,370.44,594.67,351.46,590.84Z" transform="translate(-252.85 -291.45)"/><path class="cls-2" d="M399.47,686.49c-32.58,21.85-52.32-10.73-32.81-26.41,0,0-26.29,2.06-12.39-15.28-33-6.4-48.54-31.47-43.93-52.88,2.78,23.58,29.14,54.21,56.05,40-5.17,21.24,1.16,28.91,14,23.74-17.74,30.69,22.07,27.91,23.63-6.95C412.42,657.64,420.15,672.54,399.47,686.49Z" transform="translate(-252.85 -291.45)"/><path class="cls-1" d="M648.38,728.58c-5.17,8.12-6.34,18.57-18.57.89-15.35,20.91-47.32,34.86-55.71-.28-3.34-13.79,3-22.35,11.9-27.57,13.78-8.12,33.69-8.45,33.69-8.45l-23.24-49,40.2,38.64-2.39-13.46,16.73,7.9-17.07-31c1.39,1.39,24,23.74,39.75,33.08,10.62-15.68,34.75-25.58,48.32-16.91,5.34,3.4,9.06,9.62,9.73,19.52C734.05,717,665.83,760.83,648.38,728.58Z" transform="translate(-252.85 -291.45)"/><path class="cls-2" d="M648.38,728.58c-5.17,8.12-6.34,18.57-18.57.89-15.35,20.91-47.32,34.86-55.71-.28-3.34-13.79,3-22.35,11.9-27.57-12.4,16,21.9,52.7,67.49,3.39,15.51,39,79.23,3.45,68.5-42.65,5.34,3.4,9.06,9.62,9.73,19.52C734.05,717,665.83,760.83,648.38,728.58Z" transform="translate(-252.85 -291.45)"/><path class="cls-3" d="M449.4,776.91c-10.16-13.07,7.26-54.89,38.05-108.33C487.91,688.16,459.57,790,449.4,776.91Z" transform="translate(-252.85 -291.45)"/><path class="cls-3" d="M535.08,829.77c-11.32-5.52-12.2-97-8.71-157.41C534.79,711.27,546.41,835.29,535.08,829.77Z" transform="translate(-252.85 -291.45)"/><path class="cls-3" d="M252.85,511c.34,11.56,61.23,24.49,145.59,18.37C361.83,519.38,252.51,499.44,252.85,511Z" transform="translate(-252.85 -291.45)"/><path class="cls-3" d="M312.38,467.46c-1,12.93,39.8,26.19,87.76,40.14C378.37,491.27,313.4,454.53,312.38,467.46Z" transform="translate(-252.85 -291.45)"/><path class="cls-3" d="M508.31,291.94c-11.9,9.52,7.83,80.28,24.5,145.93C534.8,416.08,520.22,282.41,508.31,291.94Z" transform="translate(-252.85 -291.45)"/><path class="cls-3" d="M626,306.91c-14.29-.34-41.84,65.65-64,132C576.86,403.39,640.29,307.25,626,306.91Z" transform="translate(-252.85 -291.45)"/><path class="cls-3" d="M726,525.63c-6.12-7.15-11.22-3.74-65,15.3C672.65,541.73,732.14,532.77,726,525.63Z" transform="translate(-252.85 -291.45)"/><path class="cls-3" d="M799.83,594c-2.38-11.91-77.9-14-134.7-17.69C693.36,583.46,802.21,605.9,799.83,594Z" transform="translate(-252.85 -291.45)"/><path class="cls-3" d="M741.32,637.2c2.72-11.22-36.06-26.53-78.58-42.86C679,605.72,738.6,648.43,741.32,637.2Z" transform="translate(-252.85 -291.45)"/><path class="cls-1" d="M467.25,607.67c.73,8.71,4.91,15.26,10.56,20.87,2.82,2.79,6,5.64,9.86,7.32a26.29,26.29,0,0,0,12.25,2,51.15,51.15,0,0,0,11.92-2.3,42.3,42.3,0,0,0,10.51-5.34c6.57-4.37,11.74-10.71,16.37-18l.52.19a33.48,33.48,0,0,1-39.49,28.53A95.76,95.76,0,0,1,487,637.54c-4.14-1.34-8.44-2.81-12.21-5.48-7.44-5.26-11.58-16-8.12-24.47Z" transform="translate(-252.85 -291.45)"/><path class="cls-1" d="M562.16,616.45a83.07,83.07,0,0,0,26.29.83,42,42,0,0,0,6.56-.86,27.47,27.47,0,0,0,6.46-1.81,35.73,35.73,0,0,0,11.16-7.41c6.52-6.18,12-13.09,17.37-20.16s10.24-14.6,15.9-22l.51.24c-2.5,8.9-6.1,17.63-11.61,25.21s-12.24,14.36-20.35,19.11c-4,2.37-8.12,4.51-12.23,6.62s-8.3,4.41-13,5.58A34.63,34.63,0,0,1,562,617Z" transform="translate(-252.85 -291.45)"/><path class="cls-1" d="M547.36,594.17a22.89,22.89,0,0,1,5.23,3.34,27.65,27.65,0,0,1,4.2,4,27.29,27.29,0,0,0,3.66,4.71,11.24,11.24,0,0,0,5.37,2.24,71.16,71.16,0,0,0,11,.87c3.59.21,7.36,0,11.75.57l.15.53a20.28,20.28,0,0,1-11.83,4.83,19.43,19.43,0,0,1-12.31-4,36.9,36.9,0,0,0-5.15-3.54c-1.73-1.06-4-1.54-5.74-2.75a17.1,17.1,0,0,1-6.79-10.4Z" transform="translate(-252.85 -291.45)"/><path class="cls-1" d="M710,446.83a90,90,0,0,1,6.22,13.82c.83,2.28,1.37,4.88,2.9,6.91a13,13,0,0,0,6,4.33,46.6,46.6,0,0,0,14,2.62c4.77.44,9.67.31,15.12.49l.17.53A25.62,25.62,0,0,1,739,480.44a23.63,23.63,0,0,1-15.44-6c-2-1.88-3.85-3.84-5.75-5.72s-4.16-3.63-5.67-6a21.6,21.6,0,0,1-2.64-15.83Z" transform="translate(-252.85 -291.45)"/><path class="cls-1" d="M658.06,406.57c5.47,2.69,10.37,4.49,15.52,6.63,2.55,1.05,5.15,2.54,8,3a20.23,20.23,0,0,0,8.55-.43,93.23,93.23,0,0,0,15.68-5.36c4.88-2.27,9.4-4.77,13.2-9.43l.52.19c-.46,6.38-5.59,11.82-11.13,14.57a32.22,32.22,0,0,1-18.07,3.07c-1.52-.05-3-.33-4.5-.49l-4.44-.32c-3-.1-6.1.2-9.15-.4A21.07,21.07,0,0,1,657.67,407Z" transform="translate(-252.85 -291.45)"/><path class="cls-1" d="M359.17,412.55c6.24.52,11.54,1.84,17,2.54,2.68.34,5.57,1,8.41.4a17.73,17.73,0,0,0,3.93-1.63,30.52,30.52,0,0,0,3.23-2.74,52.6,52.6,0,0,0,8.12-14.3c2.09-5.14,3.88-10.45,5.74-16.29h.56a30.27,30.27,0,0,1-.76,18.41c-2.1,5.86-6.12,11.48-11.78,14.57l-4.24,2c-1.48.46-2.81,1.26-4.28,1.68s-2.89,1.2-4.42,1.56a33.27,33.27,0,0,1-4.71.94c-6.44.18-12.41-2.64-17.05-6.65Z" transform="translate(-252.85 -291.45)"/><path class="cls-1" d="M429.84,367.61a86.69,86.69,0,0,1,9.67,7,22.82,22.82,0,0,0,4.6,3.8,12.69,12.69,0,0,0,5.75,1.44,46.47,46.47,0,0,0,11.32-1.05A47.21,47.21,0,0,0,472.12,375l.29.29a16,16,0,0,1-10.18,7.82,20.24,20.24,0,0,1-12.87-1c-2-.86-3.85-1.73-5.8-2.44a40.88,40.88,0,0,1-6-2.17,17.5,17.5,0,0,1-8-9.64Z" transform="translate(-252.85 -291.45)"/><path class="cls-1" d="M579.64,723.28a39.74,39.74,0,0,1,4.64,8.37,14.08,14.08,0,0,0,1.8,4.38,12.36,12.36,0,0,0,1.73,1.59,21.3,21.3,0,0,0,2.16.93,25.87,25.87,0,0,0,8.69.67,35.19,35.19,0,0,0,9-1.5l.29.3c-1.7,3.32-5.32,5.19-8.89,5.63a13,13,0,0,1-10.24-3.11c-1.33-1.24-2.46-2.46-3.75-3.59s-2.8-2.16-3.84-3.59a13.11,13.11,0,0,1-2-10Z" transform="translate(-252.85 -291.45)"/></g></svg>