<svg xmlns="http://www.w3.org/2000/svg" viewBox="0 0 372.19 346.7"><defs><style>.cls-1{fill:#71241e;}.cls-2{fill:#f5ed88;}.cls-3{fill:#d6625f;}.cls-4{fill:#651412;}</style></defs><g id="Layer_13" data-name="Layer 13"><path d="M630.24,724.2" transform="translate(-360.32 -357.17)"/></g><g id="Layer_5" data-name="Layer 5"><path class="cls-1" d="M414.61,639.29c4.63,5.68,8.62,14.87-4.27,22.33-20.3,11.67-30.72-8.55-18.45-17.08,0,0-15.75.14-6.75-9.62-19.38-5.17-27.61-20.74-24-33.3a21.77,21.77,0,0,1,10-12.68c29.59-18.05,33.9,21.64,33.9,21.64l20.17-7.69-19.58,21.84,10.41-2.41-6.92,11.6A34.77,34.77,0,0,1,414.61,639.29Z" transform="translate(-360.32 -357.17)"/><path class="cls-2" d="M385.69,602.67c2.9-3.81-5.17-14.41-10.64,1.22C371.47,614.08,396.83,605.74,385.69,602.67Z" transform="translate(-360.32 -357.17)"/><path class="cls-3" d="M410.34,661.62c-20.3,11.67-30.72-8.55-18.45-17.08,0,0-15.75.14-6.75-9.62-19.38-5.17-27.61-20.74-24-33.3.68,14.16,15.11,33.49,31.73,26.12-4,12.43-.5,17.27,7.36,14.71-11.82,17.55,12,17.54,14.36-3.16C419.24,645,423.23,654.16,410.34,661.62Z" transform="translate(-360.32 -357.17)"/><path class="cls-1" d="M728.14,437.08a26.52,26.52,0,0,1-10.67,8.39c-24.2,10.87-31.63-2.82-32.35-10.31l-13,9.29.57-8.54L660,442.17l4.53-13.27L637.4,449.82l15.44-28.38s-15.37,4.77-13-14.09c1.45-11.79,10.11-24.55,21.48-30.79,6.82-3.74,14.61-5.11,22.46-2.52,20.92,6.92,17.39,25.63,15.81,28.86,11.88-9.12,13.08,3.3,9.35,7.79C730,402.86,738.4,423.21,728.14,437.08Z" transform="translate(-360.32 -357.17)"/><path class="cls-3" d="M728.14,437.08c-20.43,15.06-41.16,4.15-40.82-15.42-17.5,9.06-10.54-5.33-10.54-5.33-23.63,7.95-40.08-18.29-15.6-39.67l.14-.1c6.82-3.74,14.61-5.11,22.46-2.52,20.92,6.92,17.39,25.63,15.81,28.86,11.88-9.12,13.08,3.3,9.35,7.79C730,402.86,738.41,423.21,728.14,437.08Z" transform="translate(-360.32 -357.17)"/><path class="cls-2" d="M683.37,388.3c-3.31-11.46-25.18-4.86-19.94,8.48C667.51,407.17,686.68,399.76,683.37,388.3Z" transform="translate(-360.32 -357.17)"/><path class="cls-1" d="M694.11,425.38a49.86,49.86,0,0,1,5.17,6.76,14.13,14.13,0,0,0,2.47,3.41,7.18,7.18,0,0,0,3.84,1.6,26.11,26.11,0,0,0,8-.35c2.66-.37,5.33-1.07,8.33-1.67l.16.27a14.3,14.3,0,0,1-7.85,4.66,13.3,13.3,0,0,1-9.21-1.29c-1.36-.77-2.59-1.61-3.88-2.4a20,20,0,0,1-3.86-2.56,12.13,12.13,0,0,1-3.47-8.32Z" transform="translate(-360.32 -357.17)"/><path class="cls-1" d="M660.56,410c3.34.77,6.25,1.13,9.33,1.64a20.92,20.92,0,0,0,4.76.64,11.39,11.39,0,0,0,4.62-1.33,51.94,51.94,0,0,0,7.89-4.93,19.37,19.37,0,0,0,6-6.84l.31,0c.56,3.55-1.55,7.18-4.23,9.39a18.1,18.1,0,0,1-9.5,4c-.83.17-1.68.2-2.51.31l-2.47.38a31,31,0,0,1-5.06,1,11.87,11.87,0,0,1-9.32-4Z" transform="translate(-360.32 -357.17)"/><path class="cls-1" d="M448.66,403.67l10.12,23.25L441,411.14l3.42,14.39-14.62-8.91.46,5.3-14.71-5.56s-3.17,28.55-24.22-1.57a38.33,38.33,0,0,1-5.1-33.27c6.68-22.87,32-37.2,47-7.83,5.16-19.58,12.5-3,12.5-3s21.46-25,28.15,3.8l0,.06C480.53,403.25,448.66,403.67,448.66,403.67Z" transform="translate(-360.32 -357.17)"/><path class="cls-3" d="M473.89,374.54c-3.13,20.08-25.79,25.49-34.69,11.65-1.68,10.79-9.84,22.28-12.21,7.46-11.35,29.27-40.7,10.78-40.78-12.13,6.68-22.87,32-37.2,47-7.83,5.16-19.58,12.5-3,12.5-3s21.46-25,28.15,3.8Z" transform="translate(-360.32 -357.17)"/><path class="cls-2" d="M415.19,380.34c6.8-11.83-10.79-12.75-15.75.24C392,400,431.33,382.14,415.19,380.34Z" transform="translate(-360.32 -357.17)"/><path class="cls-1" d="M399,397.77c3.31.8,6.05,2,8.93,2.78a13.56,13.56,0,0,0,4.49.92,9.59,9.59,0,0,0,2.25-.54,16.21,16.21,0,0,0,2-1.21,28.79,28.79,0,0,0,5.56-7c1.55-2.59,3-5.3,4.45-8.28l.3.05a16.49,16.49,0,0,1-1.95,9.83,14.51,14.51,0,0,1-7.55,6.84l-2.45.74c-.83.12-1.62.44-2.44.54s-1.66.4-2.51.47a18.8,18.8,0,0,1-2.61.11,13.77,13.77,0,0,1-8.6-5Z" transform="translate(-360.32 -357.17)"/><path class="cls-1" d="M440.74,379.52a48.76,48.76,0,0,1,4.61,4.59,12.41,12.41,0,0,0,2.15,2.43,6.8,6.8,0,0,0,3,1.25,25,25,0,0,0,6.17.39,25.65,25.65,0,0,0,6.2-1.12l.13.18a8.71,8.71,0,0,1-6.13,3.35A11,11,0,0,1,450,389c-1-.62-1.93-1.25-2.92-1.79a24,24,0,0,1-3.05-1.67,9.6,9.6,0,0,1-3.51-5.86Z" transform="translate(-360.32 -357.17)"/><path class="cls-1" d="M651.75,687.86c-3,5.36-3.35,12.06-11.78,1.25C631,703,611.13,713,604.49,691c-2.63-8.66,1.09-14.34,6.56-18,8.48-5.67,21.14-6.62,21.14-6.62L615.6,636l27,23.12-2-8.47,10.94,4.41-12-19.13c.93.84,16.12,14.24,26.52,19.6,6.18-10.37,21.18-17.55,30.13-12.53,3.52,2,6.12,5.79,6.91,12.07C705.87,677.32,664.05,707.75,651.75,687.86Z" transform="translate(-360.32 -357.17)"/><path class="cls-3" d="M651.75,687.86c-3,5.36-3.35,12.06-11.78,1.25C631,703,611.13,713,604.49,691c-2.63-8.66,1.09-14.34,6.56-18-7.3,10.61,15.88,32.75,43.09-.32,11.31,24.24,50.56-.71,42-29.66,3.52,2,6.12,5.79,6.91,12.07C705.87,677.32,664.05,707.75,651.75,687.86Z" transform="translate(-360.32 -357.17)"/><path class="cls-1" d="M607.8,687a24.9,24.9,0,0,1,3.26,5.16,9,9,0,0,0,1.31,2.72,8,8,0,0,0,1.16,1,13.29,13.29,0,0,0,1.41.51,16.54,16.54,0,0,0,5.56.11,22.8,22.8,0,0,0,5.68-1.28l.2.18a7.28,7.28,0,0,1-5.46,3.91,8.29,8.29,0,0,1-6.63-1.61c-.89-.74-1.65-1.47-2.51-2.14a20.86,20.86,0,0,1-2.58-2.15,8.37,8.37,0,0,1-1.65-6.29Z" transform="translate(-360.32 -357.17)"/><path class="cls-3" d="M427.56,488.21c-1.14,9.25-1.86,20.67-.56,31.47,0,.05,0,.05,0,.09.87,7.28,2.66,14.28,5.82,20.15,12.41,23.12,25.6,18,27.65,17.08-19.08,11,8.53,11.17,9.54,11.19-56.08,41.51,42.12,102.64,66.6,54.06,2.75,4.38,18.92,25.17,42.48,16.64,18.71-6.74,19.49-20.16,17.26-29.53l0,0a37.77,37.77,0,0,0-4-10.18c.79.74,9.58,9.31,14.08,2.67,4.7-7,1.56-10.34,1.56-10.34s6.54,5.1,6.87-1.34c.28-6.2-13.29-9.19-14.3-9.4a55.84,55.84,0,0,0,17.34-1c11.18-2.48,24.24-9.54,27.42-28.63,6.26-37.12-40.89-36.3-42.6-36.26,52-42.06-9.75-73.93-33.37-77.22s-26.26,7.65-26.26,7.65c-12.82-5.05-14.46,4.69-14.46,4.69-10.62-2.76-14.88,2.43-16.62,6.89a17.69,17.69,0,0,0-1.19,5.58,71.5,71.5,0,0,0-8.36-7.77C429.72,429.44,428,484.52,427.56,488.21Zm137.32,32.35s-15.83,21.54,7.89,33.36c-21.4-9.77-47.08,7.14-54.24,21.46-.58,1.48-1,2.34-1,2.34.29-.77.64-1.55,1-2.34,3-7.49,10.3-31.14-11.76-43,0,0,21.07-12.74,7.29-41.75C515.08,492.08,538.72,524.43,564.88,520.56Z" transform="translate(-360.32 -357.17)"/><path class="cls-1" d="M512,456.87c12.9-8.58,18,16.24,18,16.24,4.89-21.94,49-33.17,69.53.44s-15.21,51.5-15.21,51.5c46.19-.21,58.67,34.5,33.58,54.7,11.19-2.45,24.22-9.54,27.42-28.63,6.26-37.12-40.89-36.29-42.6-36.26,52-42.05-9.75-73.92-33.37-77.22s-26.26,7.65-26.26,7.65c-12.81-5.05-14.46,4.69-14.46,4.69C518.05,447.23,513.77,452.4,512,456.87Zm-79.2,83c12.42,23.11,25.59,18,27.65,17.08C441,568.24,470,568.19,470,568.19c-56.13,41.52,42.13,102.63,66.6,54.06,2.74,4.36,18.91,25.17,42.48,16.64,18.71-6.75,19.49-20.16,17.26-29.53-4.94,22.1-46.59,22.94-61.48-2,0,0-8.17,25.13-37.91,12.59s-16.79-40.05-3.93-46.05c0,0-13-1.41-16.76-9.1-3-6.09,2.34-9.39,4.67-10.48a8.54,8.54,0,0,1-8.2-1.92c-4.81-4-1.64-10-1.64-10s-32.77,12.21-44.1-22.59C427.89,527.05,429.67,534,432.84,539.92Zm-5.28-51.71c6.57-18.57,30.55-33,61.14-13.34,0,0-12.82-28,13.79-20.19C429.72,429.44,428,484.52,427.56,488.21Z" transform="translate(-360.32 -357.17)"/><path class="cls-1" d="M573.74,497.16a18.34,18.34,0,0,1-12.49,2.39,40.62,40.62,0,0,1-6.14-1.94c-2-.68-4-1.24-6.06-1.92a22.64,22.64,0,0,1-10.66-7.37A17,17,0,0,1,534.75,476l.32,0a35.67,35.67,0,0,0,6,10.25,43.51,43.51,0,0,0,8.74,7.94,15.42,15.42,0,0,0,5.56,2.49,29,29,0,0,0,6.09.27c4,0,7.89.06,12.17,0Z" transform="translate(-360.32 -357.17)"/><path class="cls-1" d="M504.3,498.47a71,71,0,0,1-.53,7.79,12.43,12.43,0,0,1-2.86,7.3c-1.84,2-3.4,4.11-5.36,5.91A13.77,13.77,0,0,1,488.6,523l-.1-.31a18.37,18.37,0,0,0,8.79-11,19.4,19.4,0,0,1,3.12-6.52c1.37-2.09,2.39-4.41,3.58-6.7Z" transform="translate(-360.32 -357.17)"/><path class="cls-1" d="M579.41,576.82c-4.33-1.16-8.24-2.32-12.29-3.33a25.27,25.27,0,0,0-6.22-1.39,16.44,16.44,0,0,0-6.29,1,51.8,51.8,0,0,0-11.18,5.47,49.4,49.4,0,0,0-9.71,7.95l-.29-.16a20.08,20.08,0,0,1,8.1-10.67,25.37,25.37,0,0,1,12.73-4.33l6.63-.3a41.6,41.6,0,0,1,6.71-.22,20.73,20.73,0,0,1,12,5.7Z" transform="translate(-360.32 -357.17)"/><path class="cls-1" d="M593.42,547.1a8.85,8.85,0,0,1-6.3-5.66,10.9,10.9,0,0,1-.32-2.26c.08-.77.08-1.52.22-2.24a11.7,11.7,0,0,1,.48-2.17,8.15,8.15,0,0,1,.86-2.11c1.45-3,5-3.94,7.83-3.73a22.79,22.79,0,0,1,8,2.28l-.1.3a21.7,21.7,0,0,0-7.74-.4,13.3,13.3,0,0,0-6.16,2.89,4.29,4.29,0,0,0-1.48,3.09,6.14,6.14,0,0,0,.32,1.75c.29.54.47,1.08.76,1.58a48.74,48.74,0,0,0,3.85,6.42Z" transform="translate(-360.32 -357.17)"/><path class="cls-1" d="M462.69,534.76c-6.57,1.64-14.38.46-19.77-4.19a46,46,0,0,1-3.57-3.84l-2.77-4.35c-.72-1.54-1.62-3-2.33-4.53s-1.45-3.1-1.94-4.74a34.68,34.68,0,0,1-.69-20.5,30.44,30.44,0,0,1,11.43-16.85l.22.23A49,49,0,0,0,434,512.67a36.58,36.58,0,0,0,1.23,4.76,34.21,34.21,0,0,0,2.22,4.4,40.41,40.41,0,0,0,3.21,3.69c1.32,1,2.53,2,3.85,2.9,5.28,3.55,11.38,5.36,18.12,6Z" transform="translate(-360.32 -357.17)"/><path class="cls-1" d="M506.1,617.27A19.07,19.07,0,0,1,495,615.4a32.83,32.83,0,0,1-4.57-3.49c-1.48-1.16-2.94-2.33-4.4-3.63a14.39,14.39,0,0,1-4.61-10.77,12.1,12.1,0,0,1,5.51-10.14l.23.23a20.38,20.38,0,0,0-2.3,9.93,21.24,21.24,0,0,0,2.55,9.65,19.17,19.17,0,0,0,1.56,2.17,12.71,12.71,0,0,0,2.08,1.71,10.6,10.6,0,0,0,2.47,1.11,20.06,20.06,0,0,0,2.57.77,98.14,98.14,0,0,1,10.08,4Z" transform="translate(-360.32 -357.17)"/><path class="cls-1" d="M588.34,603.46a11.79,11.79,0,0,1-2,10.5,19,19,0,0,1-4.18,3.59c-.75.52-1.47,1.05-2.25,1.5a19.59,19.59,0,0,1-2.34,1.37,19.91,19.91,0,0,1-10.45,2.2,26.94,26.94,0,0,1-10.25-2.43l.1-.31a46.87,46.87,0,0,0,10.09.24,50.56,50.56,0,0,0,9.57-1.92,11.22,11.22,0,0,0,2.27-.91,9.61,9.61,0,0,0,2-1.33,16.43,16.43,0,0,0,3-3.7,30.62,30.62,0,0,0,4.08-8.8Z" transform="translate(-360.32 -357.17)"/><path class="cls-1" d="M621.72,568.16a19.13,19.13,0,0,1,1.84-7,17.69,17.69,0,0,0,1.74-3.2,7.23,7.23,0,0,0,0-3.55l-1-3.3c-.4-1-.82-2-1.3-3-.83-2-2-4-3-6.46l.23-.23a11.62,11.62,0,0,1,5.87,5.14,11,11,0,0,1,.94,7.86,21,21,0,0,0-.76,3.74c-.2,1.22,0,2.59-.22,3.85a11,11,0,0,1-4.1,6.35Z" transform="translate(-360.32 -357.17)"/><path class="cls-1" d="M598.91,486.63a64.3,64.3,0,0,0-7.81-13.73,26.9,26.9,0,0,0-2.31-3.24l-1.25-1.58-1.46-1.37a15.65,15.65,0,0,0-3.25-2.35,20.75,20.75,0,0,0-3.63-1.71,30,30,0,0,0-3.77-1.2,26.36,26.36,0,0,0-3.8-.94l-1.9-.38L567.8,460c-.65,0-1.28-.11-1.92-.19l-1.93,0a52,52,0,0,0-15.57,2.4l-.16-.29a26.88,26.88,0,0,1,15.7-5.56,28.38,28.38,0,0,1,16.09,4.7l1.76,1.11,1.66,1.25c1.13.79,2.25,1.58,3.31,2.45s2.26,1.6,3.33,2.5a22,22,0,0,1,3.13,2.82,22.51,22.51,0,0,1,6,15.37Z" transform="translate(-360.32 -357.17)"/><path class="cls-4" d="M502.78,483.61c16.08,26.55-12.47,47.4-12.47,47.4C529.66,552.38,503.66,595,503.66,595c15.35-9.42,18.43,10,18.43,10-4.06-29.52,35.42-50,60-34.16-11.86-18.46,13.63-17.17,13.63-17.17C552.84,539.8,587,501.56,587,501.56,548.27,519.43,509.6,476,509.6,476,515,487.55,502.78,483.61,502.78,483.61Zm62.1,36.95s-15.83,21.55,7.89,33.36c-21.4-9.76-47.1,7.15-54.24,21.46-.6,1.48-1,2.34-1,2.34a21.3,21.3,0,0,1,1-2.34c3-7.48,10.29-31.14-11.76-43,0,0,21.1-12.75,7.28-41.79C514.05,490.62,538.15,524.52,564.88,520.56Z" transform="translate(-360.32 -357.17)"/></g></svg>