<svg xmlns="http://www.w3.org/2000/svg" viewBox="0 0 212.79 179.07"><defs><style>.cls-1{fill:#d6586f;}.cls-2{fill:#692331;}</style></defs><g id="Layer_13" data-name="Layer 13"><path d="M630.24,724.2" transform="translate(-437.13 -438.25)"/></g><g id="Layer_5" data-name="Layer 5"><path class="cls-1" d="M600.85,513.22s36.89-18.43,15.68-53.08-66.61-23.06-71.66-.44c-4.61-22.49-19.58-23.49-19.77-11-17-18.41-33-9.37-22.83,12.81-78.74-50.65-87.7,95.48-18.11,69.56,0,0-3.27,6.22,1.69,10.36a8.8,8.8,0,0,0,8.44,2c-2.39,1.12-7.92,4.53-4.8,10.8,3.91,7.93,17.26,9.38,17.26,9.38-13.25,6.18-26.61,34.56,4.06,47.46s39.07-13,39.07-13c18.45,30.89,79,22,59.25-8.47.82.76,9.88,9.59,14.51,2.75,4.85-7.19,1.61-10.66,1.61-10.66s6.74,5.26,7.09-1.38c.29-6.39-13.71-9.47-14.74-9.69C664.6,575.92,661.45,513,600.85,513.22Zm-2.33,47.16c-25.33-16.34-66,4.78-61.83,35.2,0,0-3.18-20-19-10.31,0,0,26.79-43.88-13.76-65.9,0,0,29.42-21.5,12.85-48.86,0,0,12.59,4.06,7-7.83,0,0,39.85,44.75,79.81,26.33,0,0-35.25,39.42,8.94,53.67C612.57,542.68,586.29,541.35,598.52,560.38Z" transform="translate(-437.13 -438.25)"/><path class="cls-2" d="M589.93,484.48a18.89,18.89,0,0,1-12.88,2.46,41.64,41.64,0,0,1-6.33-2c-2.05-.7-4.15-1.27-6.25-2a23.3,23.3,0,0,1-11-7.6,17.55,17.55,0,0,1-3.76-12.74l.33,0a37.07,37.07,0,0,0,6.21,10.57,45,45,0,0,0,9,8.17A15.7,15.7,0,0,0,571,483.9a29.41,29.41,0,0,0,6.28.28c4.13,0,8.12.06,12.54,0Z" transform="translate(-437.13 -438.25)"/><path class="cls-2" d="M518.36,485.83a72.9,72.9,0,0,1-.56,8,12.83,12.83,0,0,1-2.94,7.53c-1.9,2.07-3.5,4.23-5.53,6.08a14.24,14.24,0,0,1-7.16,3.62l-.1-.32a18.84,18.84,0,0,0,9.05-11.39,20.21,20.21,0,0,1,3.22-6.72,74.33,74.33,0,0,0,3.69-6.91Z" transform="translate(-437.13 -438.25)"/><path class="cls-2" d="M595.76,566.58c-4.46-1.19-8.48-2.39-12.66-3.43a25.89,25.89,0,0,0-6.41-1.43,17.06,17.06,0,0,0-6.49,1,53.34,53.34,0,0,0-11.52,5.64,51.06,51.06,0,0,0-10,8.19l-.29-.16a20.7,20.7,0,0,1,8.34-11A26.1,26.1,0,0,1,569.85,561l6.83-.32a43,43,0,0,1,6.92-.22,21.43,21.43,0,0,1,12.33,5.87Z" transform="translate(-437.13 -438.25)"/><path class="cls-2" d="M610.21,536a9.13,9.13,0,0,1-6.5-5.83,10.29,10.29,0,0,1-.32-2.33,21,21,0,0,1,.22-2.31,11.41,11.41,0,0,1,.5-2.23,8.24,8.24,0,0,1,.88-2.19c1.49-3.07,5.2-4.06,8.07-3.84a23.72,23.72,0,0,1,8.21,2.35l-.11.31c-2.72-.46-5.43-.92-8-.41a13.72,13.72,0,0,0-6.35,3,4.41,4.41,0,0,0-1.52,3.18,6.09,6.09,0,0,0,.33,1.8c.29.57.48,1.12.79,1.64a49,49,0,0,0,4,6.61Z" transform="translate(-437.13 -438.25)"/><path class="cls-2" d="M475.47,523.23c-6.77,1.69-14.82.47-20.38-4.32a45.66,45.66,0,0,1-3.68-4l-2.85-4.48c-.75-1.58-1.67-3.08-2.41-4.66-.58-1.64-1.49-3.2-2-4.89a35.73,35.73,0,0,1-.72-21.13,31.42,31.42,0,0,1,11.78-17.37l.23.24a50.59,50.59,0,0,0-9.52,37.8,36.89,36.89,0,0,0,1.27,4.91,35.55,35.55,0,0,0,2.28,4.53,41.85,41.85,0,0,0,3.31,3.81c1.36,1,2.61,2.08,4,3,5.44,3.66,11.73,5.52,18.68,6.19Z" transform="translate(-437.13 -438.25)"/><path class="cls-2" d="M520.2,608.27a19.61,19.61,0,0,1-11.46-1.92,32.92,32.92,0,0,1-4.71-3.6c-1.53-1.2-3-2.4-4.54-3.75a14.83,14.83,0,0,1-4.75-11.1,12.45,12.45,0,0,1,5.68-10.45l.23.24a21,21,0,0,0-2.36,10.23,21.75,21.75,0,0,0,2.63,10,17.27,17.27,0,0,0,1.6,2.24,13.36,13.36,0,0,0,2.14,1.76,11,11,0,0,0,2.55,1.14,21.88,21.88,0,0,0,2.65.8,101.85,101.85,0,0,1,10.39,4.13Z" transform="translate(-437.13 -438.25)"/><path class="cls-2" d="M605,594a12.17,12.17,0,0,1-2.11,10.83,19.53,19.53,0,0,1-4.3,3.69c-.77.54-1.51,1.09-2.32,1.55a18.66,18.66,0,0,1-2.41,1.4,20.55,20.55,0,0,1-10.78,2.28,27.68,27.68,0,0,1-10.55-2.51l.09-.32a48.48,48.48,0,0,0,10.4.25,52.16,52.16,0,0,0,9.87-2,10.81,10.81,0,0,0,2.34-.94,9.55,9.55,0,0,0,2.11-1.37,16.65,16.65,0,0,0,3.12-3.81,31.45,31.45,0,0,0,4.21-9.07Z" transform="translate(-437.13 -438.25)"/><path class="cls-2" d="M639.38,557.66a19.68,19.68,0,0,1,1.89-7.27,17.83,17.83,0,0,0,1.79-3.3,7.32,7.32,0,0,0,0-3.66l-1-3.4c-.41-1.06-.84-2.08-1.33-3.08-.86-2.07-2.11-4.1-3.11-6.66l.23-.23a11.89,11.89,0,0,1,6,5.29,11.35,11.35,0,0,1,1,8.11,22.21,22.21,0,0,0-.79,3.84c-.2,1.26,0,2.68-.23,4a11.35,11.35,0,0,1-4.22,6.54Z" transform="translate(-437.13 -438.25)"/><path class="cls-2" d="M615.86,473.63a66.25,66.25,0,0,0-8-14.16,28.8,28.8,0,0,0-2.38-3.33l-1.29-1.63-1.51-1.42a16.61,16.61,0,0,0-3.35-2.42,21.24,21.24,0,0,0-3.74-1.75,30.34,30.34,0,0,0-3.89-1.25,27.88,27.88,0,0,0-3.91-1l-2-.39-2-.15c-.67,0-1.32-.12-2-.19l-2,0a54,54,0,0,0-16.05,2.48l-.16-.3a27.68,27.68,0,0,1,16.18-5.73,29.23,29.23,0,0,1,16.58,4.84l1.81,1.15,1.72,1.29c1.17.8,2.32,1.62,3.41,2.52s2.33,1.65,3.43,2.58a22.17,22.17,0,0,1,3.23,2.9,23.26,23.26,0,0,1,6.21,15.85Z" transform="translate(-437.13 -438.25)"/></g></svg>